<svg width="16" height="16" xmlns="http://www.w3.org/2000/svg">
	<path d="M15.417 4.55c-.1-.483-.533-.817-1.033-.817h-2.117v-2.367c0-.517-.367-.95-.867-1.05-1.117-.217-2.267-.317-3.4-.317-1.15 0-2.283.1-3.4.317-.517.1-.867.533-.867 1.05v2.367h-2.117c-.5 0-.933.333-1.05.817-.367 1.6-.567 3.183-.567 4.783 0 1.583.2 3.2.567 4.833.1.433.45.75.883.817 2.167.317 4.367.483 6.55.483s4.383-.167 6.55-.483c.433-.067.783-.383.883-.817.367-1.633.567-3.25.567-4.833 0-1.6-.2-3.183-.583-4.783zm-9.55-2.333c1.6-.183 2.667-.183 4.267 0v1.517h-4.267v-1.517z"/>
</svg>