<svg width="16" height="16" xmlns="http://www.w3.org/2000/svg">
	<path d="M15.224 2.946c-.19-1.304-1.603-2.554-2.845-2.696-1.552-.161-3.103-.25-4.655-.25s-3.103.089-4.655.25c-1.241.143-2.655 1.393-2.862 2.696-.138 1.018-.207 2.071-.207 3.125 0 1.018.069 2.054.207 3.054.207 1.304 1.621 2.554 2.862 2.696.448.054.897.071 1.345.107v2.929c0 .232.121.446.328.536l.224.036c.138 0 .276-.054.379-.161l3.293-3.304c1.241-.018 2.483-.089 3.741-.214 1.241-.143 2.655-1.321 2.845-2.625.155-1 .224-2.036.224-3.071 0-1.036-.069-2.089-.224-3.107z"/>
</svg>