<svg width="16" height="16" xmlns="http://www.w3.org/2000/svg">
	<path d="M5.283 3.667c.667-.617 1.833-1.067 2.1-1.8.267-.75-.183-1.5-.733-1.867 0 .783-.217 1.117-.75 1.517-.533.4-2.133 1.067-2.867 1.817-.75.75-.9 1.417-.9 1.417h2.55s.05-.583.6-1.083zm3.833 1.083s1.15-.883.983-1.983c-.133-1.033-1-1.683-1-1.683s.183.667-.05 1.25c-.25.583-1.117.917-1.667 1.5-.483.5-.45.917-.45.917h2.183zm-.483 11.2c.383 0 .75-.2.933-.533.033-.05.333-.633.683-1.467.417-.033 1-.117 1.6-.25 1.7-.417 2.833-1.617 3.033-3.217.183-1.417-.283-2.233-.7-2.683-.6-.65-1.517-.95-2.617-.883-.267.017-.517.05-.75.083-.133-.4-.267-.617-.317-.683-.2-.3-.533-.5-.883-.5h-8.017c-.35 0-.683.183-.883.483-.117.183-.717 1.2-.717 3.583 0 2.533 1.567 5.4 1.633 5.533.2.333.55.533.933.533h6.067zm2.2-3.667c.217-.767.367-1.6.367-2.4 0-.5-.017-.95-.067-1.333l.533-.05c.417-.033 1.017.017 1.35.383.35.35.35.95.3 1.4-.167 1.317-1.35 1.75-1.85 1.867-.217.067-.433.1-.633.133z"/>
</svg>