<svg width="32" height="32" xmlns="http://www.w3.org/2000/svg">
	<path d="M16 32c-8.822 0-16-7.178-16-16s7.178-16 16-16c8.823 0 16 7.178 16 16s-7.177 16-16 16zm13.494-13.81c-.468-.147-4.23-1.27-8.513-.584 1.788 4.912 2.515 8.913 2.655 9.744 3.066-2.073 5.249-5.357 5.858-9.16zm-8.156 10.411c-.203-1.199-.996-5.377-2.915-10.364l-.09.031c-7.708 2.686-10.476 8.032-10.722 8.534 2.318 1.807 5.23 2.885 8.389 2.885 1.893 0 3.698-.387 5.338-1.086zm-15.491-3.442c.309-.53 4.06-6.741 11.109-9.019l.538-.163c-.343-.776-.717-1.553-1.108-2.319-6.825 2.043-13.447 1.958-14.046 1.945l-.007.418c0 3.51 1.331 6.715 3.514 9.138zm-3.225-11.937c.611.008 6.242.032 12.635-1.665-2.265-4.026-4.707-7.41-5.067-7.904-3.824 1.803-6.682 5.328-7.568 9.569zm10.175-10.488c.378.506 2.86 3.886 5.1 8.001 4.859-1.821 6.917-4.587 7.163-4.937-2.414-2.141-5.587-3.444-9.06-3.444-1.103 0-2.175.133-3.203.38zm13.782 4.644c-.288.391-2.579 3.326-7.632 5.389.319.651.623 1.313.907 1.98l.294.705c4.548-.572 9.066.344 9.517.44-.03-3.226-1.183-6.188-3.086-8.514z"/>
</svg>