<svg width="32" height="32" xmlns="http://www.w3.org/2000/svg">
	<path d="M28 0h-24c-2.208 0-4 1.792-4 4v24c0 2.208 1.792 4 4 4h24c2.208 0 4-1.792 4-4v-24c0-2.208-1.792-4-4-4zm-12 12c3.684 0 4 4 4 4s.118 4-4 4c-4.116 0-4-4-4-4s.316-4 4-4zm12 14c0 1.105-.894 2-2 2h-20c-1.106 0-2-.895-2-2v-10c0-1.106.894-2 2-2h2.284c-.168.643-.284 1.305-.284 2 0 4.418 3.582 8 8 8s8-3.582 8-8c0-.695-.118-1.357-.284-2h2.284c1.106 0 2 .894 2 2v10zm0-18c0 1.103-.894 2-2 2h-2c-1.104 0-2-.897-2-2v-2c0-1.104.896-2 2-2h2c1.106 0 2 .896 2 2v2z"/>
</svg>