<svg width="48" height="48" xmlns="http://www.w3.org/2000/svg">
	<path d="M24 0c-13.255 0-24 10.745-24 24s10.745 24 24 24 24-10.745 24-24-10.745-24-24-24zm4.96 44.2c-1.768-3.058-2.415-11.35-2.548-13.351 1.267-.545 2.323-1.642 2.379-2.766l5.206.651c.545.986 1.595 1.655 2.803 1.655 1.767 0 3.198-1.433 3.198-3.2 0-1.767-1.431-3.2-3.198-3.2-1.203 0-2.249.663-2.797 1.644l-5.212.651c-.024-.577-.249-1.175-.614-1.726l3.921-3.049c.226.051.46.08.701.08 1.767 0 3.201-1.432 3.201-3.2 0-1.767-1.433-3.2-3.201-3.2-1.767 0-3.199 1.433-3.199 3.2 0 .38.07.743.19 1.081l-2.917 3.75c-.596-.422-1.281-.713-1.979-.79l.655-5.241c.982-.546 1.65-1.595 1.65-2.8 0-1.767-1.434-3.2-3.201-3.2-1.767 0-3.2 1.432-3.2 3.2 0 1.205.666 2.254 1.651 2.8l.655 5.241c-.708.078-1.4.375-2.002.805l-2.906-3.737c.128-.346.202-.718.202-1.11 0-1.767-1.433-3.199-3.201-3.199-1.767 0-3.2 1.432-3.2 3.199 0 1.768 1.432 3.2 3.2 3.2.234 0 .46-.026.679-.073l3.933 3.06c-.356.544-.574 1.136-.603 1.709l-5.214-.652c-.547-.981-1.593-1.644-2.794-1.644-1.767 0-3.201 1.433-3.201 3.2 0 1.767 1.434 3.2 3.201 3.2 1.207 0 2.257-.669 2.802-1.655l5.203-.651c.04 1.274 1.091 2.298 2.35 2.797-.133 2.054-.769 10.268-2.534 13.315-9.082-2.231-15.822-10.425-15.822-20.195 0-11.487 9.313-20.8 20.8-20.8 11.489 0 20.799 9.313 20.799 20.8 0 9.778-6.746 17.975-15.839 20.2z"/>
</svg>