<svg width="32" height="32" xmlns="http://www.w3.org/2000/svg">
	<path d="M32 6.079c-1.177.522-2.442.875-3.77 1.033 1.355-.812 2.396-2.099 2.886-3.631-1.268.752-2.674 1.298-4.169 1.592-1.197-1.275-2.903-2.073-4.792-2.073-3.626 0-6.565 2.94-6.565 6.565 0 .515.057 1.016.17 1.497-5.457-.275-10.294-2.888-13.532-6.86-.565.97-.889 2.098-.889 3.301 0 2.277 1.159 4.287 2.92 5.464-1.076-.034-2.088-.329-2.973-.821l-.001.082c0 3.181 2.263 5.835 5.267 6.438-.551.15-1.131.23-1.73.23-.423 0-.834-.041-1.235-.117.835 2.607 3.26 4.506 6.133 4.559-2.247 1.76-5.078 2.81-8.154 2.81-.53 0-1.052-.031-1.566-.092 2.905 1.863 6.356 2.95 10.064 2.95 12.076 0 18.679-10.004 18.679-18.68 0-.284-.006-.567-.019-.849 1.283-.926 2.396-2.082 3.276-3.398"/>
</svg>