<?xml version="1.0" encoding="UTF-8" standalone="no"?>
<svg width="545px" height="545px" viewBox="0 0 545 545" version="1.1" xmlns="http://www.w3.org/2000/svg" xmlns:xlink="http://www.w3.org/1999/xlink" xmlns:sketch="http://www.bohemiancoding.com/sketch/ns">
    <!-- Generator: Sketch 3.2.2 (9983) - http://www.bohemiancoding.com/sketch -->
    <title>Artboard 1</title>
    <desc>Created with Sketch.</desc>
    <defs>
        <path d="M477.249127,179 C492.094218,154.612937 503.038394,127.589903 509.215087,98.7974684 L497.666667,98.7974684 L497.666667,107.151899 L493.333333,107.151899 L489.333333,40.3164557 L481,40.3164557 L481,32.964557 L476.833333,32.964557 L476.833333,29.7898734 L470.5,29.7898734 L468.5,0.549367089 L466.5,29.7898734 L460.166667,29.7898734 L460.166667,32.964557 L456,32.964557 L456,40.3164557 L447.666667,40.3164557 L443.166667,115.506329 L439.333333,115.506329 L439.333333,98.7974684 L431.166667,98.7974684 L431.166667,90.443038 L432.666667,90.443038 C434,90.443038 435.166667,89.2734177 435.166667,87.9367089 L435.166667,84.5949367 C435.166667,83.2582278 434,82.0886076 432.666667,82.0886076 L418.5,82.0886076 C418.5,72.8987342 411,65.3797468 401.833333,65.3797468 C392.666667,65.3797468 385.166667,72.8987342 385.166667,82.0886076 L371.166667,82.0886076 C369.833333,82.0886076 368.666667,83.2582278 368.666667,84.5949367 L368.666667,87.9367089 C368.666667,89.2734177 369.833333,90.443038 371.166667,90.443038 L372.666667,90.443038 L372.666667,132.21519 L364.333333,132.21519 L364.333333,123.860759 L347.666667,123.860759 L347.666667,132.21519 L345.5,132.21519 L345.5,111.663291 L347.166667,111.663291 C348.5,111.663291 349.666667,110.493671 349.666667,109.156962 L349.666667,105.81519 C349.666667,104.478481 348.5,103.308861 347.166667,103.308861 L299.166667,103.308861 C297.833333,103.308861 296.666667,104.478481 296.666667,105.81519 L296.666667,109.156962 C296.666667,110.493671 297.833333,111.663291 299.166667,111.663291 L300.833333,111.663291 L300.833333,137.227848 L273.5,137.227848 L255.833333,85.4303797 L238.166667,137.227848 L211,137.227848 L211,111.663291 L212.666667,111.663291 C214,111.663291 215.166667,110.493671 215.166667,109.156962 L215.166667,105.81519 C215.166667,104.478481 214,103.308861 212.666667,103.308861 L164.666667,103.308861 C163.333333,103.308861 162.166667,104.478481 162.166667,105.81519 L162.166667,109.156962 C162.166667,110.493671 163.333333,111.663291 164.666667,111.663291 L166.333333,111.663291 L166.333333,132.21519 L164.333333,132.21519 L164.333333,123.860759 L147.666667,123.860759 L147.666667,132.21519 L139.333333,132.21519 L139.333333,90.443038 L140.833333,90.443038 C142.166667,90.443038 143.333333,89.2734177 143.333333,87.9367089 L143.333333,84.5949367 C143.333333,83.2582278 142.166667,82.0886076 140.833333,82.0886076 L126.666667,82.0886076 C126.666667,72.8987342 119.166667,65.3797468 110,65.3797468 C100.833333,65.3797468 93.3333333,72.8987342 93.3333333,82.0886076 L79.1666667,82.0886076 C77.8333333,82.0886076 76.6666667,83.2582278 76.6666667,84.5949367 L76.6666667,87.9367089 C76.6666667,89.2734177 77.8333333,90.443038 79.1666667,90.443038 L80.6666667,90.443038 L80.6666667,98.7974684 L72.6666667,98.7974684 L72.6666667,115.506329 L68.8333333,115.506329 L64.3333333,40.3164557 L56,40.3164557 L56,32.964557 L51.8333333,32.964557 L51.8333333,29.7898734 L45.5,29.7898734 L43.5,0.549367089 L41.5,29.7898734 L35.1666667,29.7898734 L35.1666667,32.964557 L31,32.964557 L31,40.3164557 L22.6666667,40.3164557 L18.6666667,107.151899 L14.3333333,107.151899 L14.3333333,98.7974684 L0.784913129,98.7974684 C6.96160563,127.589903 17.9057824,154.612937 32.7508734,179 L477.249127,179 Z" id="path-1"></path>
        <path id="path-3" d="M18,0 L0.247,0 L0.247,0.16 L18.16,0.16 L18,0 L18,0 Z"></path>
    </defs>
    <g id="Page-1" stroke="none" stroke-width="1" fill="none" fill-rule="evenodd" sketch:type="MSPage">
        <g id="Artboard-1" sketch:type="MSArtboardGroup">
            <g id="ad-machine" sketch:type="MSLayerGroup">
                <path d="M487.854777,394 C511.435258,354.867551 525,309.017883 525,260 C525,116.405965 408.594035,0 265,0 C121.405965,0 5,116.405965 5,260 C5,309.017883 18.5647421,354.867551 42.1452228,394 L487.854777,394 Z" id="Oval-11" fill="#229EE0" sketch:type="MSShapeGroup"></path>
                <path d="M386.375,135.986 C386.324,135.986 386.275,135.993 386.224,135.994 C386.314,135.27 386.375,134.538 386.375,133.79 C386.375,123.965 378.41,116 368.585,116 C360.332,116 353.411,121.629 351.402,129.251 C349.105,127.777 346.38,126.911 343.449,126.911 C335.299,126.911 328.692,133.518 328.692,141.668 C328.692,142.239 328.732,142.8 328.795,143.354 C328.289,143.284 327.776,143.236 327.251,143.236 C321.037,143.236 316,148.273 316,154.486 C316,160.699 321.037,165.736 327.25,165.736 L386.375,165.736 C394.59,165.736 401.25,159.076 401.25,150.861 C401.25,142.646 394.59,135.986 386.375,135.986 L386.375,135.986 Z" id="Shape" opacity="0.06" fill="#FFFFFF" sketch:type="MSShapeGroup"></path>
                <path d="M171.474484,70.023319 C171.474484,62.2785686 165.195916,56 157.451165,56 C150.945575,56 145.48996,60.4371705 143.906326,66.4453626 C142.09567,65.283453 139.947635,64.6008113 137.637217,64.6008113 C131.212818,64.6008113 126.00472,69.8089096 126.00472,76.2333082 C126.00472,76.6834102 126.036251,77.1256295 126.085912,77.562331 C125.687047,77.5071521 125.282665,77.4693152 124.868823,77.4693152 C119.970515,77.4693152 116,81.4398299 116,86.3373499 C116,91.23487 119.970515,95.2053847 124.868035,95.2053847 L171.474484,95.2053847 C177.95012,95.2053847 183.199997,89.9555081 183.199997,83.4798721 C183.199997,77.004236 177.95012,71.7543594 171.474484,71.7543594 C171.4264,71.1899583 171.474484,70.6129448 171.474484,70.023319 Z" id="Shape-2" opacity="0.06" fill="#FFFFFF" sketch:type="MSShapeGroup"></path>
                <g id="city" transform="translate(10.000000, 216.000000)">
                    <mask id="mask-2" sketch:name="Mask" fill="white">
                        <use xlink:href="#path-1"></use>
                    </mask>
                    <use id="Mask" fill-opacity="0.05" fill="#000000" sketch:type="MSShapeGroup" xlink:href="#path-1"></use>
                </g>
                <g id="machine" transform="translate(170.000000, 394.000000)">
                    <path d="M30,94 C30,96.209 31.791,98 34,98 L66,98 C68.209,98 70,96.209 70,94 L70,63 L30,63 L30,94" id="Fill-1" fill="#63B65A" sketch:type="MSShapeGroup"></path>
                    <text id="Ad" sketch:type="MSTextLayer" font-family="Open Sans" font-size="16" font-weight="bold" fill="#FFFFFF">
                        <tspan x="39.2466" y="80.2109375">Ad</tspan>
                    </text>
                    <path d="M66,58 L34,58 C31.791,58 30,59.791 30,62 L30,64 L70,64 L70,62 C70,59.791 68.209,58 66,58" id="Fill-2" fill="#333E47" sketch:type="MSShapeGroup"></path>
                    <path d="M66.149,97.997 C66.099,97.999 66.05,98 66,98 C66.05,98 66.099,97.999 66.149,97.997 M66.815,97.917 C66.614,97.958 66.408,97.985 66.198,97.995 C66.408,97.985 66.614,97.958 66.815,97.917 M66.833,97.913 C66.831,97.913 66.829,97.914 66.827,97.914 C66.829,97.914 66.831,97.913 66.833,97.913 M68.828,96.828 C68.732,96.924 68.631,97.016 68.526,97.102 C68.631,97.016 68.732,96.925 68.828,96.828" id="Fill-3" fill="#E8E6E5" sketch:type="MSShapeGroup"></path>
                    <path d="M39.247,85 L30,85 L30,94 C30,96.209 31.791,98 34,98 L66,98 C66.05,98 66.099,97.999 66.149,97.997 C66.165,97.997 66.182,97.996 66.198,97.995 C66.408,97.985 66.614,97.958 66.815,97.917 C66.819,97.916 66.823,97.915 66.827,97.914 C66.829,97.914 66.831,97.913 66.833,97.913 C67.465,97.779 68.043,97.496 68.526,97.102 C68.631,97.016 68.732,96.924 68.828,96.828 L57.16,85.16 L39.247,85.16 L39.247,85" id="Fill-4" fill="#5EA857" sketch:type="MSShapeGroup"></path>
                    <g id="Group-7" transform="translate(39.000000, 85.000000)">
                        <mask id="mask-4" sketch:name="Clip 6" fill="white">
                            <use xlink:href="#path-3"></use>
                        </mask>
                        <g id="Clip-6"></g>
                        <path d="M0.247,0 L18.161,0 L18.161,0.16 L0.247,0.16 L0.247,0 Z" id="Fill-5" fill="#5EA857" sketch:type="MSShapeGroup" mask="url(#mask-4)"></path>
                        <text id="Ad" sketch:type="MSTextLayer" mask="url(#mask-4)" font-family="Open Sans" font-size="16" font-weight="bold" fill="#E7E6E5">
                            <tspan x="0.2466" y="-4.7890625">Ad</tspan>
                        </text>
                    </g>
                    <path d="M132,134 C132,136.209 133.791,138 136,138 L168,138 C170.209,138 172,136.209 172,134 L172,103 L132,103 L132,134" id="Fill-8" fill="#63B65A" sketch:type="MSShapeGroup"></path>
                    <path d="M168,98 L136,98 C133.791,98 132,99.791 132,102 L132,104 L172,104 L172,102 C172,99.791 170.209,98 168,98" id="Fill-9" fill="#333E47" sketch:type="MSShapeGroup"></path>
                    <path d="M136,100 C135.448,100 135,100.448 135,101 L136,102 C136.552,102 137,101.552 137,101 C137,100.448 136.552,100 136,100" id="Fill-10" fill="#82848A" sketch:type="MSShapeGroup"></path>
                    <path d="M139,100 C138.448,100 138,100.448 138,101 C138,101.552 138.448,102 139,102 C139.552,102 140,101.552 140,101 C140,100.448 139.552,100 139,100" id="Fill-11" fill="#82848A" sketch:type="MSShapeGroup"></path>
                    <path d="M142,100 C141.448,100 141,100.448 141,101 C141,101.552 141.448,102 142,102 C142.552,102 143,101.552 143,101 C143,100.448 142.552,100 142,100" id="Fill-12" fill="#82848A" sketch:type="MSShapeGroup"></path>
                    <path d="M138,104 L132,104 L132,134 C132,136.209 133.791,138 136,138 L168,138 C169.105,138 170.104,137.552 170.828,136.828 L159.16,125.16 L141.247,125.16 L141.247,112.84 L146.84,112.84 L138,104 Z M146.84,112.84 L141.247,112.84 L141.247,125.16 L159.16,125.16 L146.84,112.84 Z" id="Fill-14" fill="#5EA857" sketch:type="MSShapeGroup"></path>
                    <g id="Group-17" transform="translate(141.000000, 112.000000)"></g>
                    <path d="M133.172,99.172 C132.448,99.895 132,100.895 132,102 L132,104 L138,104 L136,102 C135.448,102 135,101.552 135,101 L133.172,99.172" id="Fill-18" fill="#303A43" sketch:type="MSShapeGroup"></path>
                    <path d="M135,101 C135,101.552 135.448,102 136,102 L135,101" id="Fill-19" fill="#787A81" sketch:type="MSShapeGroup"></path>
                    <path d="M30,147 C30,149.209 31.791,151 34,151 L66,151 C68.209,151 70,149.209 70,147 L70,116 L30,116 L30,147" id="Fill-20" fill="#63B65A" sketch:type="MSShapeGroup"></path>
                    <path d="M66,111 L34,111 C31.791,111 30,112.791 30,115 L30,117 L70,117 L70,115 C70,112.791 68.209,111 66,111" id="Fill-21" fill="#333E47" sketch:type="MSShapeGroup"></path>
                    <path d="M34,113 C33.448,113 33,113.448 33,114 L34,115 C34.552,115 35,114.552 35,114 C35,113.448 34.552,113 34,113" id="Fill-22" fill="#82848A" sketch:type="MSShapeGroup"></path>
                    <path d="M37,113 C36.448,113 36,113.448 36,114 C36,114.552 36.448,115 37,115 C37.552,115 38,114.552 38,114 C38,113.448 37.552,113 37,113" id="Fill-23" fill="#82848A" sketch:type="MSShapeGroup"></path>
                    <path d="M40,113 C39.448,113 39,113.448 39,114 C39,114.552 39.448,115 40,115 C40.552,115 41,114.552 41,114 C41,113.448 40.552,113 40,113" id="Fill-24" fill="#82848A" sketch:type="MSShapeGroup"></path>
                    <path d="M68.828,149.828 C68.105,150.552 67.105,151 66,151 C67.105,151 68.105,150.552 68.828,149.828 M30,114.947 L30,115 L30,114.947 M30.035,114.469 C30.027,114.527 30.021,114.584 30.016,114.641 C30.021,114.584 30.027,114.527 30.035,114.469 M30.044,114.404 C30.042,114.42 30.039,114.437 30.037,114.453 C30.039,114.437 30.042,114.42 30.044,114.404 M30.049,114.371 C30.047,114.382 30.046,114.393 30.044,114.403 C30.046,114.393 30.047,114.382 30.049,114.371 M30.084,114.182 C30.076,114.219 30.069,114.255 30.063,114.292 C30.069,114.255 30.076,114.219 30.084,114.182 M30.087,114.166 C30.086,114.171 30.085,114.176 30.084,114.182 C30.085,114.176 30.086,114.171 30.087,114.166 M30.119,114.028 C30.11,114.063 30.102,114.098 30.094,114.133 C30.102,114.098 30.11,114.063 30.119,114.028 M30.133,113.973 C30.13,113.986 30.126,113.999 30.123,114.012 C30.126,113.999 30.13,113.986 30.133,113.973" id="Fill-25" fill="#E8E6E5" sketch:type="MSShapeGroup"></path>
                    <path d="M36,117 L30,117 L30,147 C30,149.209 31.791,151 34,151 L66,151 C67.105,151 68.105,150.552 68.828,149.828 L57.16,138.16 L39.247,138.16 L39.247,125.84 L44.84,125.84 L36,117 Z M44.84,125.84 L39.247,125.84 L39.247,138.16 L57.16,138.16 L44.84,125.84 Z" id="Fill-26" fill="#5EA857" sketch:type="MSShapeGroup"></path>
                    <g id="Group-29" transform="translate(39.000000, 125.000000)"></g>
                    <path d="M31.172,112.172 C30.68,112.663 30.316,113.281 30.133,113.973 C30.13,113.986 30.126,113.999 30.123,114.012 C30.121,114.017 30.12,114.023 30.119,114.028 C30.11,114.063 30.102,114.098 30.094,114.133 C30.092,114.144 30.089,114.155 30.087,114.166 C30.086,114.171 30.085,114.176 30.084,114.182 C30.076,114.219 30.069,114.255 30.063,114.292 C30.06,114.308 30.057,114.325 30.054,114.341 C30.052,114.351 30.051,114.361 30.049,114.371 C30.047,114.382 30.046,114.393 30.044,114.403 L30.044,114.404 C30.042,114.42 30.039,114.437 30.037,114.453 C30.036,114.459 30.036,114.464 30.035,114.469 C30.027,114.527 30.021,114.584 30.016,114.641 C30.011,114.696 30.007,114.751 30.005,114.807 C30.002,114.853 30.001,114.9 30,114.947 L30,115 L30,117 L36,117 L34,115 C33.448,115 33,114.552 33,114 L31.172,112.172" id="Fill-30" fill="#303A43" sketch:type="MSShapeGroup"></path>
                    <path d="M33,114 L33,114 C33,114.552 33.448,115 34,115 L33,114" id="Fill-31" fill="#787A81" sketch:type="MSShapeGroup"></path>
                    <path d="M135.021,23 L169,23 L169,53.108 L135.021,53.108 L135.021,23 Z" id="Fill-32" fill="#D9DDDD" sketch:type="MSShapeGroup"></path>
                    <path d="M172,54 C172,53.448 171.552,53 171,53 L133,53 C132.448,53 132,53.448 132,54 L132,56 C132,56.552 132.448,57 133,57 L171,57 C171.552,57 172,56.552 172,56 L172,54" id="Fill-33" fill="#63B65A" sketch:type="MSShapeGroup"></path>
                    <path d="M192.121,84.121 C191.535,84.707 190.768,85 190,85 L114,85 C113.232,85 112.464,84.707 111.879,84.121 C110.707,82.95 110.707,81.05 111.879,79.879 L111.883,79.875 L135,57 L169,57 L192.117,79.875 L192.121,79.879 C193.293,81.05 193.293,82.95 192.121,84.121" id="Fill-34" fill="#D9DDDD" sketch:type="MSShapeGroup"></path>
                    <path d="M169,39.92 C168.229,39.973 167.451,40 166.667,40 L135.021,40 L135.021,53 L163.846,53 L169,47.846 L169,39.92" id="Fill-35" fill="#C6C8C9" sketch:type="MSShapeGroup"></path>
                    <path d="M163.846,53 L133,53 C132.448,53 132,53.448 132,54 L132,56 C132,56.552 132.448,57 133,57 L159.846,57 L163.846,53" id="Fill-36" fill="#5EA857" sketch:type="MSShapeGroup"></path>
                    <path d="M159.846,57 L135,57 L111.883,79.875 L111.879,79.879 C111.293,80.465 111,81.232 111,82 C111,82.768 111.293,83.536 111.879,84.121 C112.464,84.707 113.232,85 114,85 L131.846,85 L159.846,57" id="Fill-37" fill="#C6C8C9" sketch:type="MSShapeGroup"></path>
                    <path d="M33.021,23 L67,23 L67,53.108 L33.021,53.108 L33.021,23 Z" id="Fill-38" fill="#D9DDDD" sketch:type="MSShapeGroup"></path>
                    <path d="M70,54 C70,53.448 69.552,53 69,53 L31,53 C30.448,53 30,53.448 30,54 L30,56 C30,56.552 30.448,57 31,57 L69,57 C69.552,57 70,56.552 70,56 L70,54" id="Fill-39" fill="#63B65A" sketch:type="MSShapeGroup"></path>
                    <path d="M90.121,84.121 C89.535,84.707 88.768,85 88,85 L12,85 C11.232,85 10.464,84.707 9.879,84.121 C8.707,82.95 8.707,81.05 9.879,79.879 L9.883,79.875 L33,57 L67,57 L90.118,79.875 L90.121,79.879 C91.293,81.05 91.293,82.95 90.121,84.121" id="Fill-40" fill="#D9DDDD" sketch:type="MSShapeGroup"></path>
                    <path d="M33.021,39.999 L33.021,53 L61.846,53 L67,47.846 L67,40 L33.333,40 C33.229,40 33.125,40 33.021,39.999" id="Fill-41" fill="#C6C8C9" sketch:type="MSShapeGroup"></path>
                    <path d="M61.846,53 L31,53 C30.448,53 30,53.448 30,54 L30,56 C30,56.552 30.448,57 31,57 L57.846,57 L61.846,53" id="Fill-42" fill="#5EA857" sketch:type="MSShapeGroup"></path>
                    <path d="M57.846,57 L33,57 L9.883,79.875 L9.879,79.879 C9.293,80.465 9,81.232 9,82 C9,82.768 9.293,83.536 9.879,84.121 C10.464,84.707 11.232,85 12,85 L29.846,85 L57.846,57" id="Fill-43" fill="#C6C8C9" sketch:type="MSShapeGroup"></path>
                    <path d="M0,0 L0,6.667 C0,25.076 14.924,40 33.333,40 L166.667,40 C185.076,40 200,25.076 200,6.667 L200,0 L0,0" id="Fill-44" fill="#DFE4E5" sketch:type="MSShapeGroup"></path>
                    <path d="M93.323,21.279 C93.323,21.507 93.139,21.691 92.912,21.691 C92.684,21.691 92.5,21.507 92.5,21.279 C92.5,21.052 92.684,20.868 92.912,20.868 C93.139,20.868 93.323,21.052 93.323,21.279" id="Fill-45" fill="#E15C46" sketch:type="MSShapeGroup"></path>
                    <path d="M97.441,25.397 C97.441,25.624 97.257,25.809 97.029,25.809 C96.802,25.809 96.618,25.624 96.618,25.397 C96.618,25.169 96.802,24.985 97.029,24.985 C97.257,24.985 97.441,25.169 97.441,25.397" id="Fill-46" fill="#E15C46" sketch:type="MSShapeGroup"></path>
                    <path d="M92.603,21.55 L96.778,25.721 L97.326,25.112 L93.204,20.99 L92.603,21.55" id="Fill-47" fill="#E15C46" sketch:type="MSShapeGroup"></path>
                    <path d="M104.441,24 L95.382,24 C94.473,24 94.044,24.406 94.044,25.316 C94.044,26.226 95,26.632 96,26.632 L96,28.691 C96,29.828 96.613,30.904 97.75,30.904 C98.887,30.904 99.5,30 99.5,29 L100.323,29 C100.323,30 101.525,30.904 102.662,30.904 C103.798,30.904 105,29.828 105,28.691 L105,26.632 C106,26.632 106.368,26.226 106.368,25.316 C106.368,24.406 105.351,24 104.441,24" id="Fill-48" fill="#1C1F1F" sketch:type="MSShapeGroup"></path>
                    <path d="M106.088,17.985 C106.088,21.396 103.323,24.162 99.912,24.162 C96.501,24.162 93.735,21.396 93.735,17.985 C93.735,14.574 96.501,11.809 99.912,11.809 C103.323,11.809 106.088,14.574 106.088,17.985" id="Fill-49" fill="#FBDDBD" sketch:type="MSShapeGroup"></path>
                    <path d="M95.405,24 C96.623,24 98.194,25.647 99.911,25.647 C101.629,25.647 103.2,24 104.418,24 L95.405,24" id="Fill-50" fill="#313534" sketch:type="MSShapeGroup"></path>
                    <path d="M106.378,13.026 C106.482,12.98 106.528,12.858 106.482,12.755 L106.333,12.636 L106.087,12.632 C105.654,12.632 105.67,12.296 105.638,11.871 L106,11.605 L106,11.603 C106,11.489 105.54,11.159 105.426,11.159 L104.901,11 L104.899,11 L103.887,12.503 C102.781,11.663 101.407,11.278 99.912,11.278 C96.273,11.278 93.323,14.287 93.323,17.926 C93.323,21.565 96.273,24.544 99.912,24.544 C103.55,24.544 106.5,21.609 106.5,17.97 C106.5,16.351 105.914,14.878 104.945,13.731 L106.378,13.026 M105.242,17.497 C105.254,17.646 105.264,17.796 105.264,17.948 C105.264,18.827 105.049,19.653 104.674,20.384 C103.197,20.671 101.593,20.007 99.912,20.007 C98.231,20.007 96.627,20.671 95.149,20.384 C94.774,19.653 94.559,18.827 94.559,17.948 C94.559,17.796 94.569,17.646 94.582,17.497 C96.12,17.002 97.947,16.713 99.912,16.713 C101.876,16.713 103.704,17.002 105.242,17.497" id="Fill-51" fill="#1C1F1F" sketch:type="MSShapeGroup"></path>
                    <path d="M97.029,17.985 C96.575,17.985 96.206,18.354 96.206,18.809 C96.206,19.264 96.575,19.632 97.029,19.632 C97.484,19.632 97.853,19.264 97.853,18.809 C97.853,18.354 97.484,17.985 97.029,17.985" id="Fill-52" fill="#1C1F1F" sketch:type="MSShapeGroup"></path>
                    <path d="M102.794,19.632 C103.249,19.632 103.618,19.264 103.618,18.809 C103.618,18.354 103.249,17.985 102.794,17.985 C102.339,17.985 101.97,18.354 101.97,18.809 C101.97,19.264 102.339,19.632 102.794,19.632" id="Fill-53" fill="#1C1F1F" sketch:type="MSShapeGroup"></path>
                    <path d="M96,27 L105,27 L105,28 L96,28 L96,27 Z" id="Fill-54" fill="#E15C46" sketch:type="MSShapeGroup"></path>
                    <path d="M84,26 L116,26 L116,29 L84,29 L84,26 Z" id="Fill-55" fill="#333E47" sketch:type="MSShapeGroup"></path>
                    <path d="M95,23 L105,23 L105,26 L95,26 L95,23 Z" id="Fill-56" fill="#333E47" sketch:type="MSShapeGroup"></path>
                    <path d="M110,25 C110,25.552 109.552,26 109,26 C108.448,26 108,25.552 108,25 C108,24.448 108.448,24 109,24 C109.552,24 110,24.448 110,25" id="Fill-57" fill="#E15C46" sketch:type="MSShapeGroup"></path>
                    <path d="M107,25 L111,25 L111,26 L107,26 L107,25 Z" id="Fill-58" fill="#333E47" sketch:type="MSShapeGroup"></path>
                    <path d="M89,25 L92,25 L92,26 L89,26 L89,25 Z" id="Fill-59" fill="#333E47" sketch:type="MSShapeGroup"></path>
                    <path d="M90,20 L91,20 L91,25 L90,25 L90,20 Z" id="Fill-60" fill="#333E47" sketch:type="MSShapeGroup"></path>
                    <path d="M92,20.5 C92,21.328 91.328,22 90.5,22 C89.672,22 89,21.328 89,20.5 C89,19.672 89.672,19 90.5,19 C91.328,19 92,19.672 92,20.5" id="Fill-61" fill="#63B65A" sketch:type="MSShapeGroup"></path>
                    <path d="M54.25,20 C54.25,24.142 50.892,27.5 46.75,27.5 C42.608,27.5 39.25,24.142 39.25,20 C39.25,15.858 42.608,12.5 46.75,12.5 C50.892,12.5 54.25,15.858 54.25,20" id="Fill-62" fill="#C6C8C6" sketch:type="MSShapeGroup"></path>
                    <path d="M120,20 L118.5,20 C118.499,22.352 117.551,24.467 116.01,26.01 C114.467,27.551 112.352,28.499 110,28.5 L90,28.5 C87.648,28.499 85.533,27.551 83.99,26.01 C82.449,24.467 81.501,22.352 81.5,20 C81.501,17.648 82.449,15.533 83.99,13.99 C85.533,12.449 87.648,11.501 90,11.5 L110,11.5 C112.352,11.501 114.467,12.449 116.01,13.99 C117.551,15.533 118.499,17.648 118.5,20 L121.5,20 C121.499,13.648 116.352,8.501 110,8.5 L90,8.5 C83.648,8.501 78.501,13.648 78.5,20 C78.501,26.352 83.648,31.499 90,31.5 L110,31.5 C116.352,31.499 121.499,26.352 121.5,20 L120,20" id="Fill-63" fill="#C6C8C6" sketch:type="MSShapeGroup"></path>
                    <path d="M160.75,20 C160.75,24.142 157.392,27.5 153.25,27.5 C149.108,27.5 145.75,24.142 145.75,20 C145.75,15.858 149.108,12.5 153.25,12.5 C157.392,12.5 160.75,15.858 160.75,20" id="Fill-64" fill="#C6C8C6" sketch:type="MSShapeGroup"></path>
                    <path d="M153.25,16.5 C155.183,16.5 156.75,18.067 156.75,20 C156.75,21.933 155.183,23.5 153.25,23.5 C151.317,23.5 149.75,21.933 149.75,20 C149.75,18.067 151.317,16.5 153.25,16.5 M153.25,15.1 C150.548,15.1 148.35,17.298 148.35,20 C148.35,22.702 150.548,24.9 153.25,24.9 C155.952,24.9 158.15,22.702 158.15,20 C158.15,17.298 155.952,15.1 153.25,15.1" id="Fill-65" fill="#DFE4E5" sketch:type="MSShapeGroup"></path>
                    <path d="M46.75,16.5 C48.683,16.5 50.25,18.067 50.25,20 C50.25,21.933 48.683,23.5 46.75,23.5 C44.817,23.5 43.25,21.933 43.25,20 C43.25,18.067 44.817,16.5 46.75,16.5 M46.75,15.1 C44.048,15.1 41.85,17.298 41.85,20 C41.85,22.702 44.048,24.9 46.75,24.9 C49.452,24.9 51.65,22.702 51.65,20 C51.65,17.298 49.452,15.1 46.75,15.1" id="Fill-66" fill="#DFE4E5" sketch:type="MSShapeGroup"></path>
                    <path d="M46.75,27.5 C42.608,27.5 39.25,24.142 39.25,20 C39.25,15.858 42.608,12.5 46.75,12.5 C50.892,12.5 54.25,15.858 54.25,20 C54.25,24.142 50.892,27.5 46.75,27.5 M90,31.5 C83.648,31.499 78.501,26.352 78.5,20 C78.501,13.648 83.648,8.501 90,8.5 L110,8.5 C116.352,8.501 121.499,13.648 121.5,20 C121.499,26.352 116.352,31.499 110,31.5 L90,31.5 M179,0 L0,0 L0,6.667 C0,25.076 14.924,40 33.333,40 L139,40 L151.667,27.333 C148.285,26.606 145.75,23.599 145.75,20 C145.75,15.858 149.108,12.5 153.25,12.5 C156.849,12.5 159.856,15.035 160.583,18.417 L179,0" id="Fill-67" fill="#D2D5D6" sketch:type="MSShapeGroup"></path>
                    <path d="M46.75,24.9 C44.048,24.9 41.85,22.702 41.85,20 C41.85,17.298 44.048,15.1 46.75,15.1 C49.452,15.1 51.65,17.298 51.65,20 C51.65,22.702 49.452,24.9 46.75,24.9 M46.75,12.5 C42.608,12.5 39.25,15.858 39.25,20 C39.25,24.142 42.608,27.5 46.75,27.5 C50.892,27.5 54.25,24.142 54.25,20 C54.25,15.858 50.892,12.5 46.75,12.5" id="Fill-68" fill="#BCBEBD" sketch:type="MSShapeGroup"></path>
                    <path d="M89,25 L92,25 L92,26 L89,26 L89,25 Z M90,21.915 C89.417,21.709 89,21.153 89,20.5 C89,19.672 89.672,19 90.5,19 C91.328,19 92,19.672 92,20.5 C92,21.153 91.583,21.709 91,21.915 L91,25 L90,25 L90,21.915 L90,21.915 Z M98.226,11.5 L90,11.5 C87.648,11.501 85.533,12.449 83.99,13.99 C82.449,15.533 81.501,17.648 81.5,20 C81.501,22.352 82.449,24.467 83.99,26.01 C83.993,26.014 83.997,26.017 84,26.021 L84,26 L94.276,26 C94.13,25.815 94.044,25.588 94.044,25.316 C94.044,24.545 94.352,24.136 95,24.029 L95,23.945 L92.654,21.601 C92.56,21.525 92.5,21.409 92.5,21.279 C92.5,21.052 92.684,20.868 92.912,20.868 C93.029,20.868 93.134,20.916 93.209,20.995 L95.214,23 L95.688,23 C94.243,21.783 93.323,19.957 93.323,17.926 C93.323,14.87 95.404,12.258 98.226,11.5 L98.226,11.5 Z M104.562,11.5 L101.772,11.5 C102.546,11.696 103.259,12.026 103.887,12.503 L104.562,11.5 L104.562,11.5 Z M108,25 C108,24.448 108.448,24 109,24 C109.552,24 110,24.448 110,25 L111,25 L111,26 L107,26 L107,25 L108,25 L108,25 Z M110,11.5 L105.94,11.5 C105.977,11.541 106,11.577 106,11.603 L106,11.605 L105.638,11.871 C105.67,12.296 105.654,12.632 106.087,12.632 L106.333,12.636 L106.482,12.755 C106.528,12.858 106.482,12.98 106.378,13.026 L104.945,13.731 C105.914,14.878 106.5,16.351 106.5,17.97 C106.5,19.992 105.59,21.796 104.157,23 L105,23 L105,24.051 C105.722,24.186 106.368,24.592 106.368,25.316 C106.368,25.588 106.335,25.815 106.262,26 L116,26 L116,26.021 C116.003,26.017 116.007,26.014 116.01,26.01 C117.551,24.467 118.499,22.352 118.5,20 L120,20 L118.5,20 C118.499,17.648 117.551,15.533 116.01,13.99 C114.467,12.449 112.352,11.501 110,11.5 L110,11.5 Z" id="Fill-69" fill="#BECAD3" sketch:type="MSShapeGroup"></path>
                    <path d="M92.912,20.868 C92.684,20.868 92.5,21.052 92.5,21.279 C92.5,21.409 92.56,21.525 92.654,21.601 L92.603,21.55 L93.204,20.99 L93.209,20.995 C93.134,20.916 93.029,20.868 92.912,20.868" id="Fill-70" fill="#C48F81" sketch:type="MSShapeGroup"></path>
                    <path d="M93.204,20.99 L92.603,21.55 L92.654,21.601 L95,23.945 L95,23 L95.214,23 L93.209,20.995 L93.204,20.99" id="Fill-71" fill="#C48F81" sketch:type="MSShapeGroup"></path>
                    <path d="M95,24.029 C94.352,24.136 94.044,24.545 94.044,25.316 C94.044,25.588 94.13,25.815 94.276,26 L106.262,26 C106.335,25.815 106.368,25.588 106.368,25.316 C106.368,24.592 105.722,24.186 105,24.051 L105,26 L95,26 L95,24.029" id="Fill-72" fill="#575F63" sketch:type="MSShapeGroup"></path>
                    <path d="M97.029,19.632 C96.575,19.632 96.206,19.264 96.206,18.809 C96.206,18.354 96.575,17.985 97.029,17.985 C97.484,17.985 97.853,18.354 97.853,18.809 C97.853,19.264 97.484,19.632 97.029,19.632 M102.794,19.632 C102.339,19.632 101.97,19.264 101.97,18.809 C101.97,18.354 102.339,17.985 102.794,17.985 C103.249,17.985 103.618,18.354 103.618,18.809 C103.618,19.264 103.249,19.632 102.794,19.632 M99.912,16.713 C97.947,16.713 96.12,17.002 94.582,17.497 C94.569,17.646 94.559,17.796 94.559,17.948 C94.559,18.827 94.774,19.653 95.149,20.384 C95.412,20.435 95.678,20.456 95.949,20.456 C97.199,20.456 98.53,20.007 99.912,20.007 C101.294,20.007 102.624,20.456 103.875,20.456 C104.145,20.456 104.412,20.435 104.674,20.384 C105.049,19.653 105.264,18.827 105.264,17.948 C105.264,17.796 105.254,17.646 105.242,17.497 C103.704,17.002 101.876,16.713 99.912,16.713" id="Fill-73" fill="#CCC9C3" sketch:type="MSShapeGroup"></path>
                    <path d="M95.949,20.456 C95.678,20.456 95.412,20.435 95.149,20.384 C94.774,19.653 94.559,18.827 94.559,17.948 C94.559,17.796 94.569,17.646 94.582,17.497 C96.12,17.002 97.947,16.713 99.912,16.713 C101.876,16.713 103.704,17.002 105.242,17.497 C105.254,17.646 105.264,17.796 105.264,17.948 C105.264,18.827 105.049,19.653 104.674,20.384 C104.412,20.435 104.145,20.456 103.875,20.456 C102.624,20.456 101.294,20.007 99.912,20.007 C98.53,20.007 97.199,20.456 95.949,20.456 M105.94,11.5 L104.562,11.5 L103.887,12.503 C103.259,12.026 102.546,11.696 101.772,11.5 L98.226,11.5 C95.404,12.258 93.323,14.87 93.323,17.926 C93.323,19.957 94.243,21.783 95.688,23 L104.157,23 C105.59,21.796 106.5,19.992 106.5,17.97 C106.5,16.351 105.914,14.878 104.945,13.731 L106.378,13.026 C106.482,12.98 106.528,12.858 106.482,12.755 L106.333,12.636 L106.087,12.632 C105.654,12.632 105.67,12.296 105.638,11.871 L106,11.605 L106,11.603 C106,11.577 105.977,11.541 105.94,11.5" id="Fill-74" fill="#575F63" sketch:type="MSShapeGroup"></path>
                    <path d="M97.029,17.985 C96.575,17.985 96.206,18.354 96.206,18.809 C96.206,19.264 96.575,19.632 97.029,19.632 C97.484,19.632 97.853,19.264 97.853,18.809 C97.853,18.354 97.484,17.985 97.029,17.985" id="Fill-75" fill="#575F63" sketch:type="MSShapeGroup"></path>
                    <path d="M102.794,17.985 C102.339,17.985 101.97,18.354 101.97,18.809 C101.97,19.264 102.339,19.632 102.794,19.632 C103.249,19.632 103.618,19.264 103.618,18.809 C103.618,18.354 103.249,17.985 102.794,17.985" id="Fill-76" fill="#575F63" sketch:type="MSShapeGroup"></path>
                    <path d="M116,26 L84,26 L84,26.021 C85.542,27.555 87.653,28.499 90,28.5 L110,28.5 C112.347,28.499 114.458,27.555 116,26.021 L116,26" id="Fill-77" fill="#67727E" sketch:type="MSShapeGroup"></path>
                    <path d="M95,26 L105,26 L105,23 L95,23 L95,26 Z" id="Fill-78" fill="#67727E" sketch:type="MSShapeGroup"></path>
                    <path d="M109,24 C108.448,24 108,24.448 108,25 L110,25 C110,24.448 109.552,24 109,24" id="Fill-79" fill="#C48F81" sketch:type="MSShapeGroup"></path>
                    <path d="M107,26 L111,26 L111,25 L107,25 L107,26 Z" id="Fill-80" fill="#67727E" sketch:type="MSShapeGroup"></path>
                    <path d="M89,25 L92,25 L92,26 L89,26 L89,25 Z" id="Fill-81" fill="#67727E" sketch:type="MSShapeGroup"></path>
                    <path d="M91,21.915 C90.844,21.97 90.675,22 90.5,22 C90.325,22 90.156,21.97 90,21.915 L90,25 L91,25 L91,21.915" id="Fill-82" fill="#67727E" sketch:type="MSShapeGroup"></path>
                    <path d="M90.5,19 C89.672,19 89,19.672 89,20.5 C89,21.153 89.417,21.709 90,21.915 C90.156,21.97 90.325,22 90.5,22 C90.675,22 90.844,21.97 91,21.915 C91.583,21.709 92,21.153 92,20.5 C92,19.672 91.328,19 90.5,19" id="Fill-83" fill="#86B693" sketch:type="MSShapeGroup"></path>
                    <path d="M110,8.5 L90,8.5 C83.648,8.501 78.501,13.648 78.5,20 C78.501,26.352 83.648,31.499 90,31.5 L110,31.5 C116.352,31.499 121.499,26.352 121.5,20 L118.5,20 C118.499,22.352 117.551,24.467 116.01,26.01 C116.007,26.014 116.003,26.017 116,26.021 C114.458,27.555 112.347,28.499 110,28.5 L90,28.5 C87.653,28.499 85.542,27.555 84,26.021 C83.997,26.017 83.993,26.014 83.99,26.01 C82.449,24.467 81.501,22.352 81.5,20 C81.501,17.648 82.449,15.533 83.99,13.99 C85.533,12.449 87.648,11.501 90,11.5 L110,11.5 C112.352,11.501 114.467,12.449 116.01,13.99 C117.551,15.533 118.499,17.648 118.5,20 L121.5,20 C121.499,13.648 116.352,8.501 110,8.5" id="Fill-84" fill="#BCBEBD" sketch:type="MSShapeGroup"></path>
                    <path d="M153.25,16.5 C151.317,16.5 149.75,18.067 149.75,20 C149.75,21.933 151.317,23.5 153.25,23.5 C155.183,23.5 156.75,21.933 156.75,20 C156.75,18.067 155.183,16.5 153.25,16.5 M153.25,12.5 C149.108,12.5 145.75,15.858 145.75,20 C145.75,23.599 148.285,26.606 151.667,27.333 L154.191,24.809 C153.886,24.869 153.571,24.9 153.25,24.9 C150.548,24.9 148.35,22.702 148.35,20 C148.35,17.298 150.548,15.1 153.25,15.1 C155.952,15.1 158.15,17.298 158.15,20 C158.15,20.322 158.119,20.636 158.059,20.941 L160.583,18.417 C159.856,15.035 156.849,12.5 153.25,12.5" id="Fill-85" fill="#BCBEBD" sketch:type="MSShapeGroup"></path>
                    <path d="M153.25,23.5 C151.317,23.5 149.75,21.933 149.75,20 C149.75,18.067 151.317,16.5 153.25,16.5 C155.183,16.5 156.75,18.067 156.75,20 C156.75,21.933 155.183,23.5 153.25,23.5 M153.25,15.1 C150.548,15.1 148.35,17.298 148.35,20 C148.35,22.702 150.548,24.9 153.25,24.9 C153.571,24.9 153.886,24.869 154.191,24.809 L158.059,20.941 C158.119,20.636 158.15,20.322 158.15,20 C158.15,17.298 155.952,15.1 153.25,15.1" id="Fill-86" fill="#D2D5D6" sketch:type="MSShapeGroup"></path>
                    <path d="M46.75,16.5 C44.817,16.5 43.25,18.067 43.25,20 C43.25,21.933 44.817,23.5 46.75,23.5 C48.683,23.5 50.25,21.933 50.25,20 C50.25,18.067 48.683,16.5 46.75,16.5" id="Fill-87" fill="#BCBEBD" sketch:type="MSShapeGroup"></path>
                    <path d="M46.75,23.5 C44.817,23.5 43.25,21.933 43.25,20 C43.25,18.067 44.817,16.5 46.75,16.5 C48.683,16.5 50.25,18.067 50.25,20 C50.25,21.933 48.683,23.5 46.75,23.5 M46.75,15.1 C44.048,15.1 41.85,17.298 41.85,20 C41.85,22.702 44.048,24.9 46.75,24.9 C49.452,24.9 51.65,22.702 51.65,20 C51.65,17.298 49.452,15.1 46.75,15.1" id="Fill-88" fill="#D2D5D6" sketch:type="MSShapeGroup"></path>
                    <path d="M149.676287,125.210938 L148.848162,122.492188 L144.6841,122.492188 L143.855975,125.210938 L141.2466,125.210938 L145.27785,113.742188 L148.238787,113.742188 L152.285662,125.210938 L149.676287,125.210938 Z M148.270037,120.460938 C147.504409,117.997384 147.073423,116.604168 146.977069,116.28125 C146.880714,115.958332 146.811704,115.703126 146.770037,115.515625 C146.598162,116.182295 146.105979,117.830716 145.293475,120.460938 L148.270037,120.460938 Z M156.301287,125.367188 C155.275241,125.367188 154.469259,124.968754 153.883319,124.171875 C153.297378,123.374996 153.004412,122.27084 153.004412,120.859375 C153.004412,119.427076 153.302587,118.311202 153.898944,117.511719 C154.495301,116.712236 155.316907,116.3125 156.363787,116.3125 C157.462751,116.3125 158.301285,116.739579 158.879412,117.59375 L158.957537,117.59375 C158.837745,116.942705 158.77785,116.361982 158.77785,115.851562 L158.77785,113.054688 L161.168475,113.054688 L161.168475,125.210938 L159.34035,125.210938 L158.879412,124.078125 L158.77785,124.078125 C158.236181,124.937504 157.410668,125.367188 156.301287,125.367188 L156.301287,125.367188 Z M157.137225,123.46875 C157.746603,123.46875 158.193213,123.291668 158.477069,122.9375 C158.760924,122.583332 158.915871,121.981775 158.941912,121.132812 L158.941912,120.875 C158.941912,119.937495 158.797383,119.265627 158.508319,118.859375 C158.219255,118.453123 157.749207,118.25 157.098162,118.25 C156.56691,118.25 156.154154,118.475258 155.859881,118.925781 C155.565609,119.376304 155.418475,120.031246 155.418475,120.890625 C155.418475,121.750004 155.566911,122.394529 155.863787,122.824219 C156.160664,123.253908 156.585139,123.46875 157.137225,123.46875 L157.137225,123.46875 Z" id="Ad" fill="#FFFFFF" sketch:type="MSShapeGroup"></path>
                    <path d="M47.6762875,138.210938 L46.8481625,135.492188 L42.6841,135.492188 L41.855975,138.210938 L39.2466,138.210938 L43.27785,126.742188 L46.2387875,126.742188 L50.2856625,138.210938 L47.6762875,138.210938 Z M46.2700375,133.460938 C45.5044087,130.997384 45.0734234,129.604168 44.9770687,129.28125 C44.8807141,128.958332 44.8117044,128.703126 44.7700375,128.515625 C44.5981616,129.182295 44.1059791,130.830716 43.293475,133.460938 L46.2700375,133.460938 Z M54.3012875,138.367188 C53.2752407,138.367188 52.4692592,137.968754 51.8833187,137.171875 C51.2973783,136.374996 51.0044125,135.27084 51.0044125,133.859375 C51.0044125,132.427076 51.3025866,131.311202 51.8989437,130.511719 C52.4953009,129.712236 53.3169073,129.3125 54.3637875,129.3125 C55.4627513,129.3125 56.3012846,129.739579 56.8794125,130.59375 L56.9575375,130.59375 C56.8377452,129.942705 56.77785,129.361982 56.77785,128.851562 L56.77785,126.054688 L59.168475,126.054688 L59.168475,138.210938 L57.34035,138.210938 L56.8794125,137.078125 L56.77785,137.078125 C56.2361806,137.937504 55.410668,138.367188 54.3012875,138.367188 L54.3012875,138.367188 Z M55.137225,136.46875 C55.746603,136.46875 56.1932132,136.291668 56.4770687,135.9375 C56.7609243,135.583332 56.9158707,134.981775 56.9419125,134.132812 L56.9419125,133.875 C56.9419125,132.937495 56.7973827,132.265627 56.5083187,131.859375 C56.2192548,131.453123 55.7492074,131.25 55.0981625,131.25 C54.5669098,131.25 54.1541536,131.475258 53.8598812,131.925781 C53.5656089,132.376304 53.418475,133.031246 53.418475,133.890625 C53.418475,134.750004 53.566911,135.394529 53.8637875,135.824219 C54.160664,136.253908 54.5851389,136.46875 55.137225,136.46875 L55.137225,136.46875 Z" id="Ad" fill="#FFFFFF" sketch:type="MSShapeGroup"></path>
                </g>
                <g id="machine" transform="translate(0.000000, 92.000000)">
                    <path d="M415,86 C415,88.209 416.791,90 419,90 L451,90 C453.209,90 455,88.209 455,86 L455,55 L415,55 L415,86" id="Fill-1" fill="#63B65A" sketch:type="MSShapeGroup"></path>
                    <path d="M492.621,130.523 L496.702,104 L483.798,104 L487.879,130.523 C486.717,131.293 485.949,132.609 485.949,134.107 C485.949,136.483 487.875,138.409 490.25,138.409 C492.625,138.409 494.551,136.483 494.551,134.107 C494.551,132.609 493.783,131.293 492.621,130.523" id="Fill-2" fill="#333E47" sketch:type="MSShapeGroup"></path>
                    <path d="M435,96 L435,100 C435,102.761 437.239,105 440,105 L540,105 C542.761,105 545,102.761 545,100 L545,96 L435,96" id="Fill-3" fill="#2D353B" sketch:type="MSShapeGroup"></path>
                    <path d="M499.75,157.5 C499.75,158.881 498.631,160 497.25,160 L483.25,160 C481.869,160 480.75,158.881 480.75,157.5 C480.75,156.119 481.869,155 483.25,155 L497.25,155 C498.631,155 499.75,156.119 499.75,157.5" id="Fill-4" fill="#EFA439" sketch:type="MSShapeGroup"></path>
                    <path d="M510.25,169.5 C510.25,170.881 509.131,172 507.75,172 L472.75,172 C471.369,172 470.25,170.881 470.25,169.5 C470.25,168.119 471.369,167 472.75,167 L507.75,167 C509.131,167 510.25,168.119 510.25,169.5" id="Fill-5" fill="#EFA439" sketch:type="MSShapeGroup"></path>
                    <path d="M470.25,56 L464,56 C462.619,56 461.5,57.119 461.5,58.5 C461.5,59.881 462.619,61 464,61 L470.25,61 C471.631,61 472.75,59.881 472.75,58.5 C472.75,57.119 471.631,56 470.25,56" id="Fill-6" fill="#FFFFFF" sketch:type="MSShapeGroup"></path>
                    <path d="M480.25,65 L471.5,65 C470.119,65 469,66.119 469,67.5 C469,68.881 470.119,70 471.5,70 L480.25,70 C481.631,70 482.75,68.881 482.75,67.5 C482.75,66.119 481.631,65 480.25,65" id="Fill-7" fill="#FFFFFF" sketch:type="MSShapeGroup"></path>
                    <path d="M466.5,78 L464,78 C462.619,78 461.5,79.119 461.5,80.5 C461.5,81.881 462.619,83 464,83 L466.5,83 C467.881,83 469,81.881 469,80.5 C469,79.119 467.881,78 466.5,78" id="Fill-8" fill="#FFFFFF" sketch:type="MSShapeGroup"></path>
                    <path d="M451,50 L419,50 C416.791,50 415,51.791 415,54 L415,56 L455,56 L455,54 C455,51.791 453.209,50 451,50" id="Fill-9" fill="#333E47" sketch:type="MSShapeGroup"></path>
                    <path d="M419,52 C418.448,52 418,52.448 418,53 L419,54 C419.552,54 420,53.552 420,53 C420,52.448 419.552,52 419,52" id="Fill-10" fill="#82848A" sketch:type="MSShapeGroup"></path>
                    <path d="M422,52 C421.448,52 421,52.448 421,53 C421,53.552 421.448,54 422,54 C422.552,54 423,53.552 423,53 C423,52.448 422.552,52 422,52" id="Fill-11" fill="#82848A" sketch:type="MSShapeGroup"></path>
                    <path d="M425,52 C424.448,52 424,52.448 424,53 C424,53.552 424.448,54 425,54 C425.552,54 426,53.552 426,53 C426,52.448 425.552,52 425,52" id="Fill-12" fill="#82848A" sketch:type="MSShapeGroup"></path>
                    <path d="M249,166 C249,168.209 250.791,170 253,170 L285,170 C287.209,170 289,168.209 289,166 L289,135 L249,135 L249,166" id="Fill-13" fill="#63B65A" sketch:type="MSShapeGroup"></path>
                    <path d="M285,130 L253,130 C250.791,130 249,131.791 249,134 L249,136 L289,136 L289,134 C289,131.791 287.209,130 285,130" id="Fill-14" fill="#333E47" sketch:type="MSShapeGroup"></path>
                    <path d="M253,132 C252.448,132 252,132.448 252,133 L253,134 C253.552,134 254,133.552 254,133 C254,132.448 253.552,132 253,132" id="Fill-15" fill="#82848A" sketch:type="MSShapeGroup"></path>
                    <path d="M256,132 C255.448,132 255,132.448 255,133 C255,133.552 255.448,134 256,134 C256.552,134 257,133.552 257,133 C257,132.448 256.552,132 256,132" id="Fill-16" fill="#82848A" sketch:type="MSShapeGroup"></path>
                    <path d="M259,132 C258.448,132 258,132.448 258,133 C258,133.552 258.448,134 259,134 C259.552,134 260,133.552 260,133 C260,132.448 259.552,132 259,132" id="Fill-17" fill="#82848A" sketch:type="MSShapeGroup"></path>
                    <path d="M255,136 L249,136 L249,158 L277,158 L276.16,157.16 L258.247,157.16 L258.247,144.84 L263.84,144.84 L255,136 Z M263.84,144.84 L258.247,144.84 L258.247,157.16 L276.16,157.16 L263.84,144.84 Z" id="Fill-18" fill="#5EA857" sketch:type="MSShapeGroup"></path>
                    <path d="M250.172,131.172 C249.448,131.895 249,132.895 249,134 L249,136 L255,136 L253,134 C252.448,134 252,133.552 252,133 L250.172,131.172" id="Fill-22" fill="#303A43" sketch:type="MSShapeGroup"></path>
                    <path d="M252,133 L252,133 C252,133.552 252.448,134 253,134 L252,133" id="Fill-23" fill="#787A81" sketch:type="MSShapeGroup"></path>
                    <path d="M10.25,253 L170.25,253 L170.25,283 L10.25,283 L10.25,253 Z" id="Fill-24" fill="#333E47" sketch:type="MSShapeGroup"></path>
                    <path d="M66.5,268 C66.5,270.071 64.821,271.75 62.75,271.75 C60.679,271.75 59,270.071 59,268 C59,265.929 60.679,264.25 62.75,264.25 C64.821,264.25 66.5,265.929 66.5,268" id="Fill-25" fill="#2A3238" sketch:type="MSShapeGroup"></path>
                    <path d="M84,268 C84,270.071 82.321,271.75 80.25,271.75 C78.179,271.75 76.5,270.071 76.5,268 C76.5,265.929 78.179,264.25 80.25,264.25 C82.321,264.25 84,265.929 84,268" id="Fill-26" fill="#2A3238" sketch:type="MSShapeGroup"></path>
                    <path d="M101.5,268 C101.5,270.071 99.821,271.75 97.75,271.75 C95.679,271.75 94,270.071 94,268 C94,265.929 95.679,264.25 97.75,264.25 C99.821,264.25 101.5,265.929 101.5,268" id="Fill-27" fill="#2A3238" sketch:type="MSShapeGroup"></path>
                    <path d="M374,291 C374,293.209 372.209,295 370,295 C367.791,295 366,293.209 366,291 L366,286 C366,283.791 367.791,282 370,282 C372.209,282 374,283.791 374,286 L374,291" id="Fill-28" fill="#2D353B" sketch:type="MSShapeGroup"></path>
                    <path d="M119,268 C119,270.071 117.321,271.75 115.25,271.75 C113.179,271.75 111.5,270.071 111.5,268 C111.5,265.929 113.179,264.25 115.25,264.25 C117.321,264.25 119,265.929 119,268" id="Fill-29" fill="#2A3238" sketch:type="MSShapeGroup"></path>
                    <path d="M136.5,268 C136.5,270.071 134.821,271.75 132.75,271.75 C130.679,271.75 129,270.071 129,268 C129,265.929 130.679,264.25 132.75,264.25 C134.821,264.25 136.5,265.929 136.5,268" id="Fill-30" fill="#2A3238" sketch:type="MSShapeGroup"></path>
                    <path d="M370,282 L370,295 C372.209,295 374,293.209 374,291 L374,286 C374,283.791 372.209,282 370,282" id="Fill-31" fill="#272F35" sketch:type="MSShapeGroup"></path>
                    <path d="M145.25,268 L136.5,268 C136.5,270.071 134.821,271.75 132.75,271.75 C130.679,271.75 129,270.071 129,268 L119,268 C119,270.071 117.321,271.75 115.25,271.75 C113.179,271.75 111.5,270.071 111.5,268 L101.5,268 C101.5,270.071 99.821,271.75 97.75,271.75 C95.679,271.75 94,270.071 94,268 L84,268 C84,270.071 82.321,271.75 80.25,271.75 C78.179,271.75 76.5,270.071 76.5,268 L66.5,268 C66.5,270.071 64.821,271.75 62.75,271.75 C60.679,271.75 59,270.071 59,268 L50.25,268 C50.25,273.628 48.39,278.822 45.252,283 L150.248,283 C147.11,278.822 145.25,273.628 145.25,268" id="Fill-32" fill="#2D3740" sketch:type="MSShapeGroup"></path>
                    <path d="M66.5,268 L59,268 C59,270.071 60.679,271.75 62.75,271.75 C64.821,271.75 66.5,270.071 66.5,268" id="Fill-33" fill="#252D32" sketch:type="MSShapeGroup"></path>
                    <path d="M84,268 L76.5,268 C76.5,270.071 78.179,271.75 80.25,271.75 C82.321,271.75 84,270.071 84,268" id="Fill-34" fill="#252D32" sketch:type="MSShapeGroup"></path>
                    <path d="M101.5,268 L94,268 C94,270.071 95.679,271.75 97.75,271.75 C99.821,271.75 101.5,270.071 101.5,268" id="Fill-35" fill="#252D32" sketch:type="MSShapeGroup"></path>
                    <path d="M119,268 L111.5,268 C111.5,270.071 113.179,271.75 115.25,271.75 C117.321,271.75 119,270.071 119,268" id="Fill-36" fill="#252D32" sketch:type="MSShapeGroup"></path>
                    <path d="M136.5,268 L129,268 C129,270.071 130.679,271.75 132.75,271.75 C134.821,271.75 136.5,270.071 136.5,268" id="Fill-37" fill="#252D32" sketch:type="MSShapeGroup"></path>
                    <path d="M374,249 C374,251.209 372.209,253 370,253 C367.791,253 366,251.209 366,249 L366,244 C366,241.791 367.791,240 370,240 C372.209,240 374,241.791 374,244 L374,249" id="Fill-38" fill="#2D353B" sketch:type="MSShapeGroup"></path>
                    <path d="M252.021,189.892 L286,189.892 L286,220 L252.021,220 L252.021,189.892 Z" id="Fill-39" fill="#2D353B" sketch:type="MSShapeGroup"></path>
                    <path d="M191.5,268 C191.5,279.046 182.546,288 171.5,288 C160.454,288 151.5,279.046 151.5,268 C151.5,256.954 160.454,248 171.5,248 C182.546,248 191.5,256.954 191.5,268" id="Fill-40" fill="#2A3238" sketch:type="MSShapeGroup"></path>
                    <path d="M195.25,268 C195.25,281.807 184.057,293 170.25,293 C156.443,293 145.25,281.807 145.25,268 C145.25,254.193 156.443,243 170.25,243 C184.057,243 195.25,254.193 195.25,268" id="Fill-41" fill="#2A3238" sketch:type="MSShapeGroup"></path>
                    <path d="M289,189 C289,189.552 288.552,190 288,190 L250,190 C249.448,190 249,189.552 249,189 L249,187 C249,186.448 249.448,186 250,186 L288,186 C288.552,186 289,186.448 289,187 L289,189" id="Fill-42" fill="#63B65A" sketch:type="MSShapeGroup"></path>
                    <path d="M309.121,158.879 C308.535,158.293 307.768,158 307,158 L231,158 C230.232,158 229.465,158.293 228.879,158.879 C227.707,160.05 227.707,161.95 228.879,163.121 L228.883,163.125 L252,186 L286,186 L309.117,163.125 L309.121,163.121 C310.293,161.95 310.293,160.05 309.121,158.879" id="Fill-43" fill="#2D353B" sketch:type="MSShapeGroup"></path>
                    <path d="M280.846,190 L252.021,190 L252.021,203 L286,203 L286,195.154 L280.846,190" id="Fill-44" fill="#252D32" sketch:type="MSShapeGroup"></path>
                    <path d="M276.846,186 L250,186 C249.448,186 249,186.448 249,187 L249,189 C249,189.552 249.448,190 250,190 L280.846,190 L276.846,186" id="Fill-45" fill="#548F51" sketch:type="MSShapeGroup"></path>
                    <path d="M248.846,158 L231,158 C230.232,158 229.465,158.293 228.879,158.879 C228.293,159.465 228,160.232 228,161 C228,161.768 228.293,162.535 228.879,163.121 L228.883,163.125 L252,186 L276.846,186 L248.846,158" id="Fill-46" fill="#252D32" sketch:type="MSShapeGroup"></path>
                    <path d="M185.25,268 L183.375,268 C183.374,271.63 181.909,274.9 179.531,277.281 C177.15,279.659 173.88,281.124 170.25,281.125 C166.62,281.124 163.35,279.659 160.969,277.281 C158.591,274.9 157.126,271.63 157.125,268 C157.126,264.37 158.591,261.1 160.969,258.719 C163.35,256.341 166.62,254.876 170.25,254.875 C173.88,254.876 177.15,256.341 179.531,258.719 C181.909,261.1 183.374,264.37 183.375,268 L187.125,268 C187.124,258.679 179.57,251.126 170.25,251.125 C160.929,251.126 153.376,258.679 153.375,268 C153.376,277.32 160.929,284.874 170.25,284.875 C179.57,284.874 187.124,277.32 187.125,268 L185.25,268" id="Fill-47" fill="#63B65A" sketch:type="MSShapeGroup"></path>
                    <path d="M153.375,268 L145.25,268 C145.25,281.724 156.308,292.865 170,292.999 L170,284.873 C160.795,284.738 153.376,277.237 153.375,268 M170,268 L157.125,268 C157.126,271.63 158.591,274.9 160.969,277.281 C163.296,279.604 166.47,281.056 170,281.123 L170,268" id="Fill-48" fill="#222A30" sketch:type="MSShapeGroup"></path>
                    <path d="M157.125,268 L153.375,268 C153.376,277.237 160.795,284.738 170,284.873 L170,281.123 C166.47,281.056 163.296,279.604 160.969,277.281 C158.591,274.9 157.126,271.63 157.125,268" id="Fill-49" fill="#548F51" sketch:type="MSShapeGroup"></path>
                    <path d="M370,302 L370,236.333 C370,217.924 355.076,203 336.667,203 L203.333,203 C184.924,203 170,217.924 170,236.333 L170,302 L370,302" id="Fill-50" fill="#333E47" sketch:type="MSShapeGroup"></path>
                    <path d="M224.417,255.083 C224.417,263.137 217.887,269.667 209.833,269.667 C201.779,269.667 195.25,263.137 195.25,255.083 C195.25,247.029 201.779,240.5 209.833,240.5 C217.887,240.5 224.417,247.029 224.417,255.083" id="Fill-51" fill="#63B55A" sketch:type="MSShapeGroup"></path>
                    <path d="M224.417,255.083 L221.917,255.083 C221.915,258.428 220.568,261.433 218.378,263.628 C216.183,265.818 213.178,267.165 209.833,267.167 C206.489,267.165 203.484,265.818 201.289,263.628 C199.099,261.433 197.751,258.428 197.75,255.083 C197.751,251.739 199.099,248.734 201.289,246.539 C203.484,244.349 206.489,243.001 209.833,243 C213.178,243.001 216.183,244.349 218.378,246.539 C220.568,248.734 221.915,251.739 221.917,255.083 L226.917,255.083 C226.915,245.647 219.269,238.002 209.833,238 C200.397,238.002 192.752,245.647 192.75,255.083 C192.752,264.519 200.397,272.165 209.833,272.167 C219.269,272.165 226.915,264.519 226.917,255.083 L224.417,255.083" id="Fill-52" fill="#2B3339" sketch:type="MSShapeGroup"></path>
                    <path d="M10,61.75 L40,61.75 L40,283 L10,283 L10,61.75 Z" id="Fill-53" fill="#333E47" sketch:type="MSShapeGroup"></path>
                    <path d="M25.25,226.75 C27.321,226.75 29,228.429 29,230.5 C29,232.571 27.321,234.25 25.25,234.25 C23.179,234.25 21.5,232.571 21.5,230.5 C21.5,228.429 23.179,226.75 25.25,226.75" id="Fill-54" fill="#2A3238" sketch:type="MSShapeGroup"></path>
                    <path d="M25.25,209.25 C27.321,209.25 29,210.929 29,213 C29,215.071 27.321,216.75 25.25,216.75 C23.179,216.75 21.5,215.071 21.5,213 C21.5,210.929 23.179,209.25 25.25,209.25" id="Fill-55" fill="#2A3238" sketch:type="MSShapeGroup"></path>
                    <path d="M25.25,191.75 C27.321,191.75 29,193.429 29,195.5 C29,197.571 27.321,199.25 25.25,199.25 C23.179,199.25 21.5,197.571 21.5,195.5 C21.5,193.429 23.179,191.75 25.25,191.75" id="Fill-56" fill="#2A3238" sketch:type="MSShapeGroup"></path>
                    <path d="M25.25,174.25 C27.321,174.25 29,175.929 29,178 C29,180.071 27.321,181.75 25.25,181.75 C23.179,181.75 21.5,180.071 21.5,178 C21.5,175.929 23.179,174.25 25.25,174.25" id="Fill-57" fill="#2A3238" sketch:type="MSShapeGroup"></path>
                    <path d="M25.25,156.75 C27.321,156.75 29,158.429 29,160.5 C29,162.571 27.321,164.25 25.25,164.25 C23.179,164.25 21.5,162.571 21.5,160.5 C21.5,158.429 23.179,156.75 25.25,156.75" id="Fill-58" fill="#2A3238" sketch:type="MSShapeGroup"></path>
                    <path d="M25.25,139.25 C27.321,139.25 29,140.929 29,143 C29,145.071 27.321,146.75 25.25,146.75 C23.179,146.75 21.5,145.071 21.5,143 C21.5,140.929 23.179,139.25 25.25,139.25" id="Fill-59" fill="#2A3238" sketch:type="MSShapeGroup"></path>
                    <path d="M25.25,121.75 C27.321,121.75 29,123.429 29,125.5 C29,127.571 27.321,129.25 25.25,129.25 C23.179,129.25 21.5,127.571 21.5,125.5 C21.5,123.429 23.179,121.75 25.25,121.75" id="Fill-60" fill="#2A3238" sketch:type="MSShapeGroup"></path>
                    <path d="M25.25,104.25 C27.321,104.25 29,105.929 29,108 C29,110.071 27.321,111.75 25.25,111.75 C23.179,111.75 21.5,110.071 21.5,108 C21.5,105.929 23.179,104.25 25.25,104.25" id="Fill-61" fill="#2A3238" sketch:type="MSShapeGroup"></path>
                    <path d="M10,90.313 L10,248.188 C14.159,244.982 19.356,243.056 25,243.001 L25,234.242 C23.046,234.113 21.5,232.487 21.5,230.5 C21.5,228.513 23.046,226.887 25,226.758 L25,216.742 C23.046,216.613 21.5,214.987 21.5,213 C21.5,211.013 23.046,209.387 25,209.258 L25,199.242 C23.046,199.113 21.5,197.487 21.5,195.5 C21.5,193.513 23.046,191.887 25,191.758 L25,181.742 C23.046,181.613 21.5,179.987 21.5,178 C21.5,176.013 23.046,174.387 25,174.258 L25,164.242 C23.046,164.113 21.5,162.487 21.5,160.5 C21.5,158.513 23.046,156.887 25,156.758 L25,146.742 C23.046,146.613 21.5,144.987 21.5,143 C21.5,141.013 23.046,139.387 25,139.258 L25,129.242 C23.046,129.113 21.5,127.487 21.5,125.5 C21.5,123.513 23.046,121.887 25,121.758 L25,111.742 C23.046,111.613 21.5,109.987 21.5,108 C21.5,106.013 23.046,104.387 25,104.258 L25,95.499 C21.661,95.466 18.479,94.779 15.576,93.559 C13.615,92.738 11.74,91.657 10,90.313" id="Fill-62" fill="#2D3740" sketch:type="MSShapeGroup"></path>
                    <path d="M25,226.758 C23.046,226.887 21.5,228.513 21.5,230.5 C21.5,232.487 23.046,234.113 25,234.242 L25,226.758" id="Fill-63" fill="#252D32" sketch:type="MSShapeGroup"></path>
                    <path d="M25,209.258 C23.046,209.387 21.5,211.013 21.5,213 C21.5,214.987 23.046,216.613 25,216.742 L25,209.258" id="Fill-64" fill="#252D32" sketch:type="MSShapeGroup"></path>
                    <path d="M25,191.758 C23.046,191.887 21.5,193.513 21.5,195.5 C21.5,197.487 23.046,199.113 25,199.242 L25,191.758" id="Fill-65" fill="#252D32" sketch:type="MSShapeGroup"></path>
                    <path d="M25,174.258 C23.046,174.387 21.5,176.013 21.5,178 C21.5,179.987 23.046,181.613 25,181.742 L25,174.258" id="Fill-66" fill="#252D32" sketch:type="MSShapeGroup"></path>
                    <path d="M25,156.758 C23.046,156.887 21.5,158.513 21.5,160.5 C21.5,162.487 23.046,164.113 25,164.242 L25,156.758" id="Fill-67" fill="#252D32" sketch:type="MSShapeGroup"></path>
                    <path d="M25,139.258 C23.046,139.387 21.5,141.013 21.5,143 C21.5,144.987 23.046,146.613 25,146.742 L25,139.258" id="Fill-68" fill="#252D32" sketch:type="MSShapeGroup"></path>
                    <path d="M25,121.758 C23.046,121.887 21.5,123.513 21.5,125.5 C21.5,127.487 23.046,129.113 25,129.242 L25,121.758" id="Fill-69" fill="#252D32" sketch:type="MSShapeGroup"></path>
                    <path d="M25,104.258 C23.046,104.387 21.5,106.013 21.5,108 C21.5,109.987 23.046,111.613 25,111.742 L25,104.258" id="Fill-70" fill="#252D32" sketch:type="MSShapeGroup"></path>
                    <path d="M50.25,268 C50.25,281.807 39.057,293 25.25,293 C11.443,293 0.25,281.807 0.25,268 C0.25,254.193 11.443,243 25.25,243 C39.057,243 50.25,254.193 50.25,268" id="Fill-71" fill="#2A3238" sketch:type="MSShapeGroup"></path>
                    <path d="M40.25,268 L38.375,268 C38.374,271.63 36.909,274.9 34.531,277.281 C32.15,279.659 28.88,281.124 25.25,281.125 C21.62,281.124 18.35,279.659 15.969,277.281 C13.591,274.9 12.126,271.63 12.125,268 C12.126,264.37 13.591,261.1 15.969,258.719 C18.35,256.341 21.62,254.876 25.25,254.875 C28.88,254.876 32.15,256.341 34.531,258.719 C36.909,261.1 38.374,264.37 38.375,268 L42.125,268 C42.124,258.679 34.57,251.126 25.25,251.125 C15.929,251.126 8.376,258.679 8.375,268 C8.376,277.32 15.929,284.874 25.25,284.875 C34.57,284.874 42.124,277.32 42.125,268 L40.25,268" id="Fill-72" fill="#63B65A" sketch:type="MSShapeGroup"></path>
                    <path d="M50.25,70.5 C50.25,84.307 39.057,95.5 25.25,95.5 C11.443,95.5 0.25,84.307 0.25,70.5 C0.25,56.693 11.443,45.5 25.25,45.5 C39.057,45.5 50.25,56.693 50.25,70.5" id="Fill-73" fill="#2A3238" sketch:type="MSShapeGroup"></path>
                    <path d="M191.5,59 L205,59 L205,46 L191.5,46 C177.693,46 166.5,57.193 166.5,71 C166.5,84.807 177.693,96 191.5,96 L205,96 L205,83 L191.5,83 C184.872,83 179.5,77.627 179.5,71 C179.5,64.373 184.872,59 191.5,59" id="Fill-74" fill="#333E47" sketch:type="MSShapeGroup"></path>
                    <path d="M34.871,291.082 C34.869,291.082 34.87,291.082 34.868,291.083 C34.869,291.083 34.87,291.082 34.871,291.082 M15.629,291.082 C15.63,291.082 15.631,291.083 15.632,291.083 C15.63,291.082 15.631,291.082 15.629,291.082 M7.965,286.062 C10.253,288.253 12.855,289.926 15.622,291.079 C12.761,289.884 10.17,288.173 7.965,286.062 M42.535,286.062 C40.33,288.173 37.739,289.884 34.878,291.079 C37.645,289.926 40.247,288.253 42.535,286.062 M2.201,277.699 C3.351,280.434 5.009,283.007 7.176,285.272 C5.087,283.087 3.392,280.527 2.201,277.699 M7.211,250.691 C5.019,252.974 3.344,255.572 2.187,258.333 C3.386,255.478 5.099,252.891 7.211,250.691" id="Fill-75" fill="#BAB8B7" sketch:type="MSShapeGroup"></path>
                    <path d="M15.969,258.719 L15.969,258.719 C13.591,261.1 12.126,264.37 12.125,268 C12.126,271.63 13.591,274.9 15.969,277.281 C18.35,279.659 21.62,281.124 25.25,281.125 C28.88,281.124 32.15,279.659 34.531,277.281 L15.969,258.719 M7.572,250.322 C7.45,250.444 7.33,250.567 7.211,250.691 C5.099,252.891 3.386,255.478 2.187,258.333 C-0.401,264.514 -0.396,271.522 2.201,277.699 C3.392,280.527 5.087,283.087 7.176,285.272 C7.306,285.408 7.438,285.544 7.572,285.678 C7.702,285.808 7.833,285.935 7.965,286.062 C10.17,288.173 12.761,289.884 15.622,291.079 C15.624,291.08 15.627,291.081 15.629,291.082 C15.631,291.082 15.63,291.082 15.632,291.083 C18.703,292.361 21.976,293 25.25,293 C28.524,293 31.797,292.361 34.868,291.083 C34.87,291.082 34.869,291.082 34.871,291.082 C34.873,291.081 34.876,291.08 34.878,291.079 C37.739,289.884 40.33,288.173 42.535,286.062 C42.667,285.935 42.798,285.808 42.928,285.678 L37.182,279.932 C34.129,282.986 29.91,284.874 25.25,284.875 C15.929,284.874 8.376,277.32 8.375,268 C8.376,263.34 10.264,259.121 13.318,256.068 L7.572,250.322" id="Fill-76" fill="#222A30" sketch:type="MSShapeGroup"></path>
                    <path d="M13.318,256.068 C10.264,259.121 8.376,263.34 8.375,268 C8.376,277.32 15.929,284.874 25.25,284.875 C29.91,284.874 34.129,282.986 37.182,279.932 L34.531,277.281 C32.15,279.659 28.88,281.124 25.25,281.125 C21.62,281.124 18.35,279.659 15.969,277.281 C13.591,274.9 12.126,271.63 12.125,268 C12.126,264.37 13.591,261.1 15.969,258.719 L13.318,256.068" id="Fill-77" fill="#548F51" sketch:type="MSShapeGroup"></path>
                    <path d="M40.25,70.5 L38.375,70.5 C38.374,74.13 36.909,77.4 34.531,79.781 C32.15,82.159 28.88,83.624 25.25,83.625 C21.62,83.624 18.35,82.159 15.969,79.781 C13.591,77.4 12.126,74.13 12.125,70.5 C12.126,66.87 13.591,63.6 15.969,61.219 C18.35,58.841 21.62,57.376 25.25,57.375 C28.88,57.376 32.15,58.841 34.531,61.219 C36.909,63.6 38.374,66.87 38.375,70.5 L42.125,70.5 C42.124,61.179 34.57,53.626 25.25,53.625 C15.929,53.626 8.376,61.179 8.375,70.5 C8.376,79.82 15.929,87.374 25.25,87.375 C34.57,87.374 42.124,79.82 42.125,70.5 L40.25,70.5" id="Fill-78" fill="#63B65A" sketch:type="MSShapeGroup"></path>
                    <path d="M42.413,88.678 C41.652,89.396 40.846,90.068 40,90.687 L40,90.689 C40.836,90.077 41.642,89.407 42.413,88.678 M2.191,80.176 C3.323,82.876 4.95,85.417 7.072,87.662 C5.026,85.497 3.363,82.964 2.191,80.176 M7.33,53.068 C5.073,55.387 3.355,58.037 2.177,60.858 C3.398,57.939 5.157,55.301 7.33,53.068 M7.35,53.047 C7.347,53.051 7.344,53.053 7.341,53.057 C7.344,53.054 7.347,53.05 7.35,53.047 M7.374,53.023 L7.373,53.023 L7.374,53.023" id="Fill-79" fill="#BAB8B7" sketch:type="MSShapeGroup"></path>
                    <path d="M40,90.687 C38.436,91.832 36.735,92.799 34.925,93.559 C36.698,92.816 38.402,91.86 40,90.689 L40,90.687" id="Fill-80" fill="#2A343C" sketch:type="MSShapeGroup"></path>
                    <path d="M8.088,88.679 C8.704,89.261 9.342,89.806 10,90.313 L10,90.312 C9.335,89.799 8.697,89.254 8.088,88.679" id="Fill-81" fill="#BAB8B7" sketch:type="MSShapeGroup"></path>
                    <path d="M10,90.312 L10,90.313 C11.74,91.657 13.615,92.738 15.576,93.559 C13.571,92.717 11.699,91.621 10,90.312" id="Fill-82" fill="#252E35" sketch:type="MSShapeGroup"></path>
                    <path d="M15.969,61.219 L15.969,61.219 C13.591,63.6 12.126,66.87 12.125,70.5 C12.126,74.13 13.591,77.4 15.969,79.781 C18.35,82.159 21.62,83.624 25.25,83.625 C28.88,83.624 32.15,82.159 34.531,79.781 L30.75,76 L25.5,76 C22.462,76 20,73.538 20,70.5 C20,69.045 20.565,67.721 21.488,66.738 L15.969,61.219 M7.572,52.822 C7.506,52.889 7.44,52.956 7.374,53.023 L7.373,53.023 C7.366,53.031 7.358,53.039 7.35,53.047 C7.347,53.05 7.344,53.054 7.341,53.057 C7.337,53.061 7.333,53.065 7.33,53.068 C5.157,55.301 3.398,57.939 2.177,60.858 C-0.397,67.025 -0.393,74.012 2.191,80.176 C3.363,82.964 5.026,85.497 7.072,87.662 C7.235,87.836 7.403,88.008 7.572,88.178 C7.742,88.347 7.914,88.515 8.088,88.679 C8.697,89.254 9.335,89.799 10,90.312 C11.699,91.621 13.571,92.717 15.576,93.559 C18.662,94.853 21.956,95.5 25.25,95.5 C28.544,95.5 31.838,94.853 34.925,93.559 C36.735,92.799 38.436,91.832 40,90.687 C40.846,90.068 41.652,89.396 42.413,88.678 C42.586,88.514 42.758,88.347 42.928,88.178 L37.182,82.432 C34.129,85.486 29.91,87.374 25.25,87.375 C15.929,87.374 8.376,79.82 8.375,70.5 C8.376,65.84 10.264,61.621 13.318,58.568 L7.572,52.822" id="Fill-83" fill="#222A30" sketch:type="MSShapeGroup"></path>
                    <path d="M13.318,58.568 C10.264,61.621 8.376,65.84 8.375,70.5 C8.376,79.82 15.929,87.374 25.25,87.375 C29.91,87.374 34.129,85.486 37.182,82.432 L34.531,79.781 C32.15,82.159 28.88,83.624 25.25,83.625 C21.62,83.624 18.35,82.159 15.969,79.781 C13.591,77.4 12.126,74.13 12.125,70.5 C12.126,66.87 13.591,63.6 15.969,61.219 L13.318,58.568" id="Fill-84" fill="#548F51" sketch:type="MSShapeGroup"></path>
                    <path d="M168,70.5 C168,73.538 165.538,76 162.5,76 L25.5,76 C22.462,76 20,73.538 20,70.5 C20,67.462 22.462,65 25.5,65 L162.5,65 C165.538,65 168,67.462 168,70.5" id="Fill-85" fill="#333E47" sketch:type="MSShapeGroup"></path>
                    <path d="M156.512,70 L20.025,70 C20.01,70.165 20,70.331 20,70.5 C20,73.538 22.463,76 25.5,76 L158.146,76 C157.796,75.469 157.501,74.912 157.262,74.336 C157.262,74.336 157.262,74.336 157.262,74.335 C157.259,74.329 157.257,74.323 157.254,74.317 C156.779,73.167 156.512,71.91 156.501,70.591 C156.5,70.589 156.5,70.586 156.5,70.584 L156.5,70.561 L156.5,70.548 L156.5,70.531 L156.5,70.5 L156.5,70.469 L156.5,70.452 L156.5,70.439 L156.5,70.416 C156.5,70.414 156.5,70.411 156.501,70.409 C156.502,70.272 156.506,70.135 156.512,70" id="Fill-86" fill="#2D3740" sketch:type="MSShapeGroup"></path>
                    <path d="M179.5,70.959 L179.5,71 L179.5,70.959 M179.5,70.918 L179.5,70.947 L179.5,70.918 M179.501,70.877 C179.501,70.886 179.501,70.895 179.5,70.904 C179.501,70.895 179.501,70.886 179.501,70.877 M179.501,70.835 L179.501,70.862 L179.501,70.835 M179.502,70.792 C179.502,70.802 179.501,70.812 179.501,70.822 C179.501,70.812 179.502,70.802 179.502,70.792 M179.503,70.748 C179.502,70.759 179.502,70.771 179.502,70.782 C179.502,70.771 179.502,70.759 179.503,70.748 M179.504,70.702 C179.503,70.715 179.503,70.729 179.503,70.742 C179.503,70.729 179.503,70.715 179.504,70.702 M183.696,61.884 C181.198,64.025 179.59,67.175 179.504,70.702 C179.59,67.175 181.204,64.031 183.702,61.89 L183.696,61.884" id="Fill-87" fill="#CFCDCC" sketch:type="MSShapeGroup"></path>
                    <path d="M174.494,52.682 C172.062,54.941 170.08,57.677 168.697,60.742 C173.163,61.743 176.5,65.732 176.5,70.5 C176.5,73.33 175.324,75.886 173.435,77.705 C173.433,77.706 173.431,77.708 173.43,77.71 C173.425,77.714 173.42,77.719 173.415,77.724 C173.411,77.728 173.407,77.732 173.403,77.736 C173.401,77.738 173.399,77.739 173.397,77.741 C172.499,78.597 171.481,79.254 170.398,79.712 C169.733,79.993 169.032,80.205 168.302,80.338 C172.002,89.52 180.994,96 191.5,96 L204.75,96 L204.75,83 L191.5,83 C184.872,83 179.5,77.627 179.5,71 L179.5,70.959 L179.5,70.947 L179.5,70.918 L179.5,70.904 C179.501,70.895 179.501,70.886 179.501,70.877 L179.501,70.862 L179.501,70.835 L179.501,70.822 C179.501,70.812 179.502,70.802 179.502,70.792 L179.502,70.782 C179.502,70.771 179.502,70.759 179.503,70.748 L179.503,70.742 C179.503,70.729 179.503,70.715 179.504,70.702 L179.504,70.702 C179.59,67.175 181.198,64.025 183.696,61.884 L174.494,52.682" id="Fill-88" fill="#2D3740" sketch:type="MSShapeGroup"></path>
                    <path d="M205.062,83 L205,83 L205,96 L218,96 L218,83 L205.062,83" id="Fill-89" fill="#FFFFFF" sketch:type="MSShapeGroup"></path>
                    <path d="M176.5,70.5 C176.5,76.023 172.023,80.5 166.5,80.5 C160.977,80.5 156.5,76.023 156.5,70.5 C156.5,64.977 160.977,60.5 166.5,60.5 C172.023,60.5 176.5,64.977 176.5,70.5" id="Fill-90" fill="#2A3238" sketch:type="MSShapeGroup"></path>
                    <path d="M171.5,70.5 C171.5,73.262 169.261,75.5 166.5,75.5 C163.739,75.5 161.5,73.262 161.5,70.5 C161.5,67.738 163.739,65.5 166.5,65.5 C169.261,65.5 171.5,67.738 171.5,70.5" id="Fill-91" fill="#2A3238" sketch:type="MSShapeGroup"></path>
                    <path d="M171.5,70.5 L171,70.5 C171,71.744 170.497,72.866 169.682,73.682 C168.866,74.497 167.744,75 166.5,75 C165.256,75 164.134,74.497 163.318,73.682 C162.503,72.866 162,71.744 162,70.5 C162,69.256 162.503,68.134 163.318,67.318 C164.134,66.503 165.256,66 166.5,66 C167.744,66 168.866,66.503 169.682,67.318 C170.497,68.134 171,69.256 171,70.5 L172,70.5 C172,67.462 169.538,65 166.5,65 C163.462,65 161,67.462 161,70.5 C161,73.538 163.462,76 166.5,76 C169.538,76 172,73.538 172,70.5 L171.5,70.5" id="Fill-92" fill="#63B65A" sketch:type="MSShapeGroup"></path>
                    <path d="M205,46 L218,46 L218,59 L205,59 L205,46 Z" id="Fill-93" fill="#FFFFFF" sketch:type="MSShapeGroup"></path>
                    <path d="M159.56,77.7 C160.477,78.584 161.521,79.259 162.632,79.724 C161.483,79.242 160.443,78.551 159.56,77.7 M159.54,77.68 C159.544,77.684 159.548,77.688 159.553,77.693 C159.548,77.688 159.544,77.684 159.54,77.68 M159.519,77.66 C159.521,77.662 159.523,77.664 159.526,77.666 C159.523,77.664 159.521,77.662 159.519,77.66 M159.359,77.5 C159.36,77.501 159.36,77.502 159.361,77.503 C159.36,77.502 159.359,77.501 159.359,77.5 M159.331,77.471 C159.334,77.475 159.337,77.478 159.341,77.482 C159.337,77.478 159.334,77.475 159.331,77.471 M159.304,77.444 C159.31,77.45 159.315,77.456 159.321,77.461 C159.315,77.456 159.31,77.45 159.304,77.444 M158.147,76 L158.146,76 C158.48,76.507 158.866,76.99 159.302,77.442 C158.875,76.999 158.487,76.516 158.147,76 M159.302,63.558 C158.866,64.01 158.48,64.493 158.146,65 L158.147,65 C158.487,64.484 158.875,64.001 159.302,63.558 M159.321,63.539 L159.304,63.556 C159.31,63.55 159.315,63.544 159.321,63.539 M159.341,63.518 L159.331,63.528 L159.341,63.518 M159.361,63.497 C159.36,63.498 159.36,63.499 159.359,63.5 C159.36,63.499 159.36,63.498 159.361,63.497" id="Fill-94" fill="#BAB8B7" sketch:type="MSShapeGroup"></path>
                    <path d="M157.262,66.664 C157.26,66.671 157.257,66.677 157.254,66.683 C157.257,66.677 157.26,66.671 157.262,66.664 M158.147,65 L158.146,65 C157.796,65.531 157.501,66.089 157.262,66.664 C157.505,66.079 157.802,65.523 158.147,65" id="Fill-95" fill="#2A343C" sketch:type="MSShapeGroup"></path>
                    <path d="M157.262,74.336 C157.501,74.912 157.796,75.469 158.146,76 L158.147,76 C157.802,75.477 157.505,74.921 157.262,74.336 M157.254,74.317 C157.257,74.323 157.259,74.329 157.262,74.335 C157.259,74.329 157.257,74.323 157.254,74.317 M156.5,70.584 C156.5,70.586 156.5,70.589 156.501,70.591 C156.5,70.589 156.5,70.587 156.5,70.584 M156.5,70.548 L156.5,70.561 L156.5,70.548 M156.5,70.5 L156.5,70.531 L156.5,70.5 M156.5,70.469 L156.5,70.5 L156.5,70.469 M156.5,70.439 L156.5,70.452 L156.5,70.439 M156.501,70.409 C156.5,70.411 156.5,70.414 156.5,70.416 C156.5,70.413 156.5,70.411 156.501,70.409" id="Fill-96" fill="#252E35" sketch:type="MSShapeGroup"></path>
                    <path d="M173.397,77.741 C172.53,78.567 171.516,79.238 170.398,79.712 C171.481,79.254 172.499,78.597 173.397,77.741 M173.415,77.724 C173.411,77.728 173.407,77.732 173.403,77.736 C173.407,77.732 173.411,77.728 173.415,77.724 M173.435,77.705 C173.433,77.706 173.431,77.708 173.43,77.71 C173.431,77.708 173.433,77.706 173.435,77.705" id="Fill-97" fill="#252E35" sketch:type="MSShapeGroup"></path>
                    <path d="M159.429,63.429 C159.406,63.452 159.384,63.475 159.361,63.497 C159.36,63.498 159.36,63.499 159.359,63.5 C159.353,63.506 159.347,63.512 159.341,63.518 C159.337,63.522 159.334,63.525 159.331,63.528 C159.328,63.532 159.324,63.535 159.321,63.539 C159.315,63.544 159.31,63.55 159.304,63.556 L159.302,63.558 C158.875,64.001 158.487,64.484 158.147,65 C157.802,65.523 157.505,66.079 157.262,66.664 C157.26,66.671 157.257,66.677 157.254,66.683 C156.763,67.874 156.512,69.141 156.501,70.409 C156.5,70.411 156.5,70.413 156.5,70.416 L156.5,70.439 L156.5,70.452 L156.5,70.469 L156.5,70.5 L156.5,70.531 L156.5,70.548 L156.5,70.561 L156.5,70.584 C156.5,70.587 156.5,70.589 156.501,70.591 C156.512,71.859 156.763,73.126 157.254,74.317 C157.257,74.323 157.259,74.329 157.262,74.335 L157.262,74.336 C157.505,74.921 157.802,75.477 158.147,76 C158.487,76.516 158.875,76.999 159.302,77.442 C159.303,77.443 159.303,77.443 159.304,77.444 C159.31,77.45 159.315,77.456 159.321,77.461 C159.324,77.465 159.327,77.468 159.331,77.471 C159.334,77.475 159.337,77.478 159.341,77.482 C159.347,77.488 159.353,77.494 159.359,77.5 C159.359,77.501 159.36,77.502 159.361,77.503 C159.384,77.525 159.406,77.548 159.429,77.571 C159.459,77.601 159.489,77.631 159.519,77.66 C159.521,77.662 159.523,77.664 159.526,77.666 C159.53,77.671 159.535,77.676 159.54,77.68 C159.544,77.684 159.548,77.688 159.553,77.693 C159.555,77.695 159.557,77.697 159.56,77.7 C160.443,78.551 161.483,79.242 162.632,79.724 C163.866,80.241 165.183,80.5 166.5,80.5 C167.827,80.5 169.155,80.237 170.398,79.712 C171.516,79.238 172.53,78.567 173.397,77.741 C173.399,77.739 173.401,77.738 173.403,77.736 C173.407,77.732 173.411,77.728 173.415,77.724 C173.42,77.719 173.425,77.714 173.43,77.71 C173.431,77.708 173.433,77.706 173.435,77.705 C173.48,77.661 173.526,77.616 173.571,77.571 L170.389,74.389 C169.394,75.384 168.019,76 166.5,76 C163.462,76 161,73.538 161,70.5 C161,68.981 161.616,67.606 162.611,66.611 L159.429,63.429" id="Fill-98" fill="#222A30" sketch:type="MSShapeGroup"></path>
                    <path d="M163.318,67.318 C162.503,68.134 162,69.256 162,70.5 C162,71.744 162.503,72.866 163.318,73.682 C164.134,74.497 165.256,75 166.5,75 C167.744,75 168.866,74.497 169.682,73.682 L163.318,67.318" id="Fill-99" fill="#222A30" sketch:type="MSShapeGroup"></path>
                    <path d="M162.611,66.611 C161.616,67.606 161,68.981 161,70.5 C161,73.538 163.462,76 166.5,76 C168.019,76 169.394,75.384 170.389,74.389 L169.682,73.682 C168.866,74.497 167.744,75 166.5,75 C165.256,75 164.134,74.497 163.318,73.682 C162.503,72.866 162,71.744 162,70.5 C162,69.256 162.503,68.134 163.318,67.318 L162.611,66.611" id="Fill-100" fill="#548F51" sketch:type="MSShapeGroup"></path>
                    <path d="M205.062,83 L205,83 L205,96 L218,96 L218,95.939 L205.062,83" id="Fill-101" fill="#E7E6E5" sketch:type="MSShapeGroup"></path>
                    <path d="M384,244 L374,244 L374,249 L384,249 L384,286 L374,286 L374,291 L384,291 C386.761,291 389,288.761 389,286 L389,249 C389,246.239 386.761,244 384,244" id="Fill-102" fill="#EFA439" sketch:type="MSShapeGroup"></path>
                    <path d="M384,267.257 L384,286 L374,286 L374,291 L384,291 C386.761,291 389,288.761 389,286 L389,272.257 L384,267.257" id="Fill-103" fill="#C78B3B" sketch:type="MSShapeGroup"></path>
                    <path d="M453.828,88.828 C453.133,89.524 452.182,89.965 451.129,89.998 C452.182,89.965 453.133,89.524 453.828,88.829" id="Fill-104" fill="#E8E6E5" sketch:type="MSShapeGroup"></path>
                    <path d="M421,56 L415,56 L415,86 C415,88.209 416.791,90 419,90 L451,90 C451.043,90 451.086,89.999 451.129,89.998 C452.182,89.965 453.133,89.524 453.828,88.828 L442.16,77.16 L424.247,77.16 L424.247,64.84 L429.84,64.84 L421,56 Z M429.84,64.84 L424.247,64.84 L424.247,77.16 L442.16,77.16 L429.84,64.84 Z" id="Fill-105" fill="#5EA857" sketch:type="MSShapeGroup"></path>
                    <g id="Group-108" transform="translate(424.000000, 64.000000)"></g>
                    <path d="M416.172,51.171 C415.448,51.895 415,52.895 415,54 L415,56 L421,56 L419,54 C418.448,54 418,53.552 418,53 L416.172,51.171" id="Fill-109" fill="#303A43" sketch:type="MSShapeGroup"></path>
                    <path d="M418,53 L418,53 C418,53.552 418.448,54 419,54 L418,53" id="Fill-110" fill="#787A81" sketch:type="MSShapeGroup"></path>
                    <path d="M304.492,281 C298.155,281 293,275.845 293,269.508 L293,240.492 C293,234.155 298.155,229 304.492,229 L333.508,229 C339.845,229 345,234.155 345,240.492 L345,269.508 C345,275.845 339.845,281 333.508,281 L304.492,281" id="Fill-111" fill="#B5CCDD" sketch:type="MSShapeGroup"></path>
                    <path d="M333.508,232 C338.198,232 342,235.802 342,240.492 L342,269.508 C342,274.198 338.198,278 333.508,278 L304.492,278 C299.802,278 296,274.198 296,269.508 L296,240.492 C296,235.802 299.802,232 304.492,232 L333.508,232 M333.508,226 L304.492,226 C296.501,226 290,232.501 290,240.492 L290,269.508 C290,277.499 296.501,284 304.492,284 L333.508,284 C341.499,284 348,277.499 348,269.508 L348,240.492 C348,232.501 341.499,226 333.508,226" id="Fill-112" fill="#2C343A" sketch:type="MSShapeGroup"></path>
                    <path d="M328.383,259.883 C327.743,259.883 327.103,260.127 326.615,260.615 C325.639,261.591 325.639,263.174 326.615,264.151 C327.103,264.639 327.743,264.883 328.383,264.883 C329.022,264.883 329.662,264.639 330.151,264.151 C331.127,263.174 331.127,261.591 330.151,260.615 C329.662,260.127 329.022,259.883 328.383,259.883" id="Fill-113" fill="#D8E5ED" sketch:type="MSShapeGroup"></path>
                    <path d="M308.545,257.545 C307.905,257.545 307.265,257.789 306.777,258.277 C305.801,259.254 305.801,260.836 306.777,261.813 L314.732,269.768 C315.22,270.256 315.86,270.5 316.5,270.5 C317.14,270.5 317.78,270.256 318.268,269.768 C319.244,268.792 319.244,267.208 318.268,266.232 L310.313,258.277 C309.825,257.789 309.185,257.545 308.545,257.545" id="Fill-114" fill="#D8E5ED" sketch:type="MSShapeGroup"></path>
                    <path d="M307.75,239.25 C307.11,239.25 306.47,239.494 305.982,239.982 C305.006,240.959 305.006,242.541 305.982,243.518 L320.124,257.66 C320.613,258.148 321.252,258.392 321.892,258.392 C322.532,258.392 323.172,258.148 323.66,257.66 C324.636,256.684 324.636,255.101 323.66,254.124 L309.518,239.982 C309.03,239.494 308.39,239.25 307.75,239.25" id="Fill-115" fill="#D8E5ED" sketch:type="MSShapeGroup"></path>
                    <path d="M209.833,272.167 C200.397,272.165 192.752,264.519 192.75,255.083 C192.752,245.647 200.397,238.002 209.833,238 C219.269,238.002 226.915,245.647 226.917,255.083 C226.915,264.519 219.269,272.165 209.833,272.167 M276.463,203 L203.333,203 C184.924,203 170,217.924 170,236.333 L170,302 L370,302 L370,296.537 L347.33,273.867 C345.476,279.735 339.98,284 333.508,284 L304.492,284 C296.501,284 290,277.499 290,269.508 L290,240.492 C290,234.02 294.265,228.524 300.133,226.67 L276.463,203" id="Fill-116" fill="#2D3740" sketch:type="MSShapeGroup"></path>
                    <path d="M209.833,243 C206.489,243.001 203.484,244.349 201.289,246.539 C199.099,248.734 197.751,251.739 197.75,255.083 C197.751,258.428 199.099,261.433 201.289,263.628 C203.484,265.818 206.489,267.165 209.833,267.167 C213.178,267.165 216.183,265.818 218.378,263.628 C220.568,261.433 221.915,258.428 221.917,255.083 L224.417,255.083 L221.917,255.083 C221.915,251.739 220.568,248.734 218.378,246.539 C216.183,244.349 213.178,243.001 209.833,243" id="Fill-117" fill="#589B54" sketch:type="MSShapeGroup"></path>
                    <path d="M209.833,238 C200.397,238.002 192.752,245.647 192.75,255.083 C192.752,264.519 200.397,272.165 209.833,272.167 C219.269,272.165 226.915,264.519 226.917,255.083 L221.917,255.083 C221.915,258.428 220.568,261.433 218.378,263.628 C216.183,265.818 213.178,267.165 209.833,267.167 C206.489,267.165 203.484,265.818 201.289,263.628 C199.099,261.433 197.751,258.428 197.75,255.083 C197.751,251.739 199.099,248.734 201.289,246.539 C203.484,244.349 206.489,243.001 209.833,243 C213.178,243.001 216.183,244.349 218.378,246.539 C220.568,248.734 221.915,251.739 221.917,255.083 L226.917,255.083 C226.915,245.647 219.269,238.002 209.833,238" id="Fill-118" fill="#262E33" sketch:type="MSShapeGroup"></path>
                    <path d="M300.133,226.67 C294.265,228.524 290,234.02 290,240.492 L290,269.508 C290,277.499 296.501,284 304.492,284 L333.508,284 C339.98,284 345.476,279.735 347.33,273.867 L342,268.537 L342,269.508 C342,274.198 338.198,278 333.508,278 L304.492,278 C299.802,278 296,274.198 296,269.508 L296,240.492 C296,235.802 299.802,232 304.492,232 L305.463,232 L300.133,226.67" id="Fill-119" fill="#262E34" sketch:type="MSShapeGroup"></path>
                    <path d="M495,86 C495,88.209 496.791,90 499,90 L531,90 C533.209,90 535,88.209 535,86 L535,55 L495,55 L495,86" id="Fill-120" fill="#FFFFFF" sketch:type="MSShapeGroup"></path>
                    <path d="M531,50 L499,50 C496.791,50 495,51.791 495,54 L495,56 L535,56 L535,54 C535,51.791 533.209,50 531,50" id="Fill-121" fill="#333E47" sketch:type="MSShapeGroup"></path>
                    <path d="M499,52 C498.448,52 498,52.448 498,53 L499,54 C499.552,54 500,53.552 500,53 C500,52.448 499.552,52 499,52" id="Fill-122" fill="#82848A" sketch:type="MSShapeGroup"></path>
                    <path d="M502,52 C501.448,52 501,52.448 501,53 C501,53.552 501.448,54 502,54 C502.552,54 503,53.552 503,53 C503,52.448 502.552,52 502,52" id="Fill-123" fill="#82848A" sketch:type="MSShapeGroup"></path>
                    <path d="M505,52 C504.448,52 504,52.448 504,53 C504,53.552 504.448,54 505,54 C505.552,54 506,53.552 506,53 C506,52.448 505.552,52 505,52" id="Fill-124" fill="#82848A" sketch:type="MSShapeGroup"></path>
                    <path d="M533.828,88.829 C533.104,89.552 532.105,90 531,90 C532.105,90 533.104,89.552 533.828,88.829" id="Fill-125" fill="#E8E6E5" sketch:type="MSShapeGroup"></path>
                    <path d="M501,56 L495,56 L495,86 C495,88.209 496.791,90 499,90 L531,90 C532.105,90 533.104,89.552 533.828,88.829 L522.16,77.16 L504.247,77.16 L504.247,64.84 L509.84,64.84 L501,56 Z M509.84,64.84 L504.247,64.84 L504.247,77.16 L522.16,77.16 L509.84,64.84 Z" id="Fill-126" fill="#E7E6E5" sketch:type="MSShapeGroup"></path>
                    <g id="Group-129" transform="translate(504.000000, 64.000000)"></g>
                    <path d="M496.172,51.171 C495.448,51.895 495,52.895 495,54 L495,56 L501,56 L499,54 C498.448,54 498,53.552 498,53 L496.172,51.171" id="Fill-130" fill="#303A43" sketch:type="MSShapeGroup"></path>
                    <path d="M498,53 L498,53 C498,53.552 498.448,54 499,54 L498,53" id="Fill-131" fill="#787A81" sketch:type="MSShapeGroup"></path>
                    <path d="M495,36 C495,38.209 496.791,40 499,40 L531,40 C533.209,40 535,38.209 535,36 L535,5 L495,5 L495,36" id="Fill-132" fill="#FFFFFF" sketch:type="MSShapeGroup"></path>
                    <path d="M531,0 L499,0 C496.791,0 495,1.791 495,4 L495,6 L535,6 L535,4 C535,1.791 533.209,0 531,0" id="Fill-133" fill="#333E47" sketch:type="MSShapeGroup"></path>
                    <path d="M499,2 C498.448,2 498,2.448 498,3 L499,4 C499.552,4 500,3.552 500,3 C500,2.448 499.552,2 499,2" id="Fill-134" fill="#82848A" sketch:type="MSShapeGroup"></path>
                    <path d="M502,2 C501.448,2 501,2.448 501,3 C501,3.552 501.448,4 502,4 C502.552,4 503,3.552 503,3 C503,2.448 502.552,2 502,2" id="Fill-135" fill="#82848A" sketch:type="MSShapeGroup"></path>
                    <path d="M505,2 C504.448,2 504,2.448 504,3 C504,3.552 504.448,4 505,4 C505.552,4 506,3.552 506,3 C506,2.448 505.552,2 505,2" id="Fill-136" fill="#82848A" sketch:type="MSShapeGroup"></path>
                    <path d="M533.828,38.828 C533.104,39.552 532.105,40 531,40 C532.105,40 533.104,39.552 533.828,38.828" id="Fill-137" fill="#E8E6E5" sketch:type="MSShapeGroup"></path>
                    <path d="M501,6 L495,6 L495,36 C495,38.209 496.791,40 499,40 L531,40 C532.105,40 533.104,39.552 533.828,38.828 L522.16,27.16 L504.247,27.16 L504.247,14.84 L509.84,14.84 L501,6 Z M509.84,14.84 L504.247,14.84 L504.247,27.16 L522.16,27.16 L509.84,14.84 Z" id="Fill-138" fill="#E7E6E5" sketch:type="MSShapeGroup"></path>
                    <g id="Group-141" transform="translate(504.000000, 14.000000)"></g>
                    <path d="M496.172,1.172 C495.448,1.895 495,2.896 495,4 L495,6 L501,6 L499,4 C498.448,4 498,3.552 498,3 L496.172,1.172" id="Fill-142" fill="#303A43" sketch:type="MSShapeGroup"></path>
                    <path d="M498,3 C498,3.552 498.448,4 499,4 L498,3" id="Fill-143" fill="#787A81" sketch:type="MSShapeGroup"></path>
                    <path d="M445,36 C445,38.209 446.791,40 449,40 L481,40 C483.209,40 485,38.209 485,36 L485,5 L445,5 L445,36" id="Fill-144" fill="#FFFFFF" sketch:type="MSShapeGroup"></path>
                    <path d="M481,0 L449,0 C446.791,0 445,1.791 445,4 L445,6 L485,6 L485,4 C485,1.791 483.209,0 481,0" id="Fill-145" fill="#333E47" sketch:type="MSShapeGroup"></path>
                    <path d="M449,2 C448.448,2 448,2.448 448,3 L449,4 C449.552,4 450,3.552 450,3 C450,2.448 449.552,2 449,2" id="Fill-146" fill="#82848A" sketch:type="MSShapeGroup"></path>
                    <path d="M452,2 C451.448,2 451,2.448 451,3 C451,3.552 451.448,4 452,4 C452.552,4 453,3.552 453,3 C453,2.448 452.552,2 452,2" id="Fill-147" fill="#82848A" sketch:type="MSShapeGroup"></path>
                    <path d="M455,2 C454.448,2 454,2.448 454,3 C454,3.552 454.448,4 455,4 C455.552,4 456,3.552 456,3 C456,2.448 455.552,2 455,2" id="Fill-148" fill="#82848A" sketch:type="MSShapeGroup"></path>
                    <path d="M483.828,38.828 C483.104,39.552 482.105,40 481,40 C482.105,40 483.105,39.552 483.828,38.828" id="Fill-149" fill="#E8E6E5" sketch:type="MSShapeGroup"></path>
                    <path d="M451,6 L445,6 L445,36 C445,38.209 446.791,40 449,40 L481,40 C482.105,40 483.104,39.552 483.828,38.828 L472.16,27.16 L454.247,27.16 L454.247,14.84 L459.84,14.84 L451,6 Z M459.84,14.84 L454.247,14.84 L454.247,27.16 L472.16,27.16 L459.84,14.84 Z" id="Fill-150" fill="#E7E6E5" sketch:type="MSShapeGroup"></path>
                    <g id="Group-153" transform="translate(454.000000, 14.000000)"></g>
                    <path d="M446.172,1.172 C445.448,1.895 445,2.896 445,4 L445,6 L451,6 L449,4 C448.448,4 448,3.552 448,3 L446.172,1.172" id="Fill-154" fill="#303A43" sketch:type="MSShapeGroup"></path>
                    <path d="M448,3 C448,3.552 448.448,4 449,4 L448,3" id="Fill-155" fill="#787A81" sketch:type="MSShapeGroup"></path>
                    <path d="M256.5,56.75 L259,48 L229,50.5 L251.5,54.25 L249,63 L279,60.5 L256.5,56.75" id="Fill-156" fill="#EFA439" sketch:type="MSShapeGroup"></path>
                    <path d="M278.375,50.396 L277.333,46.75 L289.833,47.792 L280.458,49.354 L281.5,53 L269,51.958 L278.375,50.396" id="Fill-157" fill="#EFA439" sketch:type="MSShapeGroup"></path>
                    <path d="M252.125,87.688 L254,94.25 L231.5,92.375 L248.375,89.563 L246.5,83 L269,84.875 L252.125,87.688" id="Fill-158" fill="#EFA439" sketch:type="MSShapeGroup"></path>
                    <path d="M432.676287,76.2109375 L431.848162,73.4921875 L427.6841,73.4921875 L426.855975,76.2109375 L424.2466,76.2109375 L428.27785,64.7421875 L431.238787,64.7421875 L435.285662,76.2109375 L432.676287,76.2109375 Z M431.270037,71.4609375 C430.504409,68.9973835 430.073423,67.6041683 429.977069,67.28125 C429.880714,66.9583317 429.811704,66.7031259 429.770037,66.515625 C429.598162,67.182295 429.105979,68.830716 428.293475,71.4609375 L431.270037,71.4609375 Z M439.301287,76.3671875 C438.275241,76.3671875 437.469259,75.968754 436.883319,75.171875 C436.297378,74.374996 436.004412,73.2708404 436.004412,71.859375 C436.004412,70.4270762 436.302587,69.3112019 436.898944,68.5117188 C437.495301,67.7122356 438.316907,67.3125 439.363787,67.3125 C440.462751,67.3125 441.301285,67.7395791 441.879412,68.59375 L441.957537,68.59375 C441.837745,67.9427051 441.77785,67.3619817 441.77785,66.8515625 L441.77785,64.0546875 L444.168475,64.0546875 L444.168475,76.2109375 L442.34035,76.2109375 L441.879412,75.078125 L441.77785,75.078125 C441.236181,75.9375043 440.410668,76.3671875 439.301287,76.3671875 L439.301287,76.3671875 Z M440.137225,74.46875 C440.746603,74.46875 441.193213,74.2916684 441.477069,73.9375 C441.760924,73.5833316 441.915871,72.9817751 441.941912,72.1328125 L441.941912,71.875 C441.941912,70.9374953 441.797383,70.265627 441.508319,69.859375 C441.219255,69.453123 440.749207,69.25 440.098162,69.25 C439.56691,69.25 439.154154,69.4752582 438.859881,69.9257812 C438.565609,70.3763043 438.418475,71.0312457 438.418475,71.890625 C438.418475,72.7500043 438.566911,73.3945291 438.863787,73.8242188 C439.160664,74.2539084 439.585139,74.46875 440.137225,74.46875 L440.137225,74.46875 Z" id="Ad" fill="#FFFFFF" sketch:type="MSShapeGroup"></path>
                    <path d="M512.676287,76.2109375 L511.848162,73.4921875 L507.6841,73.4921875 L506.855975,76.2109375 L504.2466,76.2109375 L508.27785,64.7421875 L511.238787,64.7421875 L515.285662,76.2109375 L512.676287,76.2109375 Z M511.270037,71.4609375 C510.504409,68.9973835 510.073423,67.6041683 509.977069,67.28125 C509.880714,66.9583317 509.811704,66.7031259 509.770037,66.515625 C509.598162,67.182295 509.105979,68.830716 508.293475,71.4609375 L511.270037,71.4609375 Z M519.301287,76.3671875 C518.275241,76.3671875 517.469259,75.968754 516.883319,75.171875 C516.297378,74.374996 516.004412,73.2708404 516.004412,71.859375 C516.004412,70.4270762 516.302587,69.3112019 516.898944,68.5117188 C517.495301,67.7122356 518.316907,67.3125 519.363787,67.3125 C520.462751,67.3125 521.301285,67.7395791 521.879412,68.59375 L521.957537,68.59375 C521.837745,67.9427051 521.77785,67.3619817 521.77785,66.8515625 L521.77785,64.0546875 L524.168475,64.0546875 L524.168475,76.2109375 L522.34035,76.2109375 L521.879412,75.078125 L521.77785,75.078125 C521.236181,75.9375043 520.410668,76.3671875 519.301287,76.3671875 L519.301287,76.3671875 Z M520.137225,74.46875 C520.746603,74.46875 521.193213,74.2916684 521.477069,73.9375 C521.760924,73.5833316 521.915871,72.9817751 521.941912,72.1328125 L521.941912,71.875 C521.941912,70.9374953 521.797383,70.265627 521.508319,69.859375 C521.219255,69.453123 520.749207,69.25 520.098162,69.25 C519.56691,69.25 519.154154,69.4752582 518.859881,69.9257812 C518.565609,70.3763043 518.418475,71.0312457 518.418475,71.890625 C518.418475,72.7500043 518.566911,73.3945291 518.863787,73.8242188 C519.160664,74.2539084 519.585139,74.46875 520.137225,74.46875 L520.137225,74.46875 Z" id="Ad" fill="#63B65A" sketch:type="MSShapeGroup"></path>
                    <path d="M512.676287,26.2109375 L511.848162,23.4921875 L507.6841,23.4921875 L506.855975,26.2109375 L504.2466,26.2109375 L508.27785,14.7421875 L511.238787,14.7421875 L515.285662,26.2109375 L512.676287,26.2109375 Z M511.270037,21.4609375 C510.504409,18.9973835 510.073423,17.6041683 509.977069,17.28125 C509.880714,16.9583317 509.811704,16.7031259 509.770037,16.515625 C509.598162,17.182295 509.105979,18.830716 508.293475,21.4609375 L511.270037,21.4609375 Z M519.301287,26.3671875 C518.275241,26.3671875 517.469259,25.968754 516.883319,25.171875 C516.297378,24.374996 516.004412,23.2708404 516.004412,21.859375 C516.004412,20.4270762 516.302587,19.3112019 516.898944,18.5117188 C517.495301,17.7122356 518.316907,17.3125 519.363787,17.3125 C520.462751,17.3125 521.301285,17.7395791 521.879412,18.59375 L521.957537,18.59375 C521.837745,17.9427051 521.77785,17.3619817 521.77785,16.8515625 L521.77785,14.0546875 L524.168475,14.0546875 L524.168475,26.2109375 L522.34035,26.2109375 L521.879412,25.078125 L521.77785,25.078125 C521.236181,25.9375043 520.410668,26.3671875 519.301287,26.3671875 L519.301287,26.3671875 Z M520.137225,24.46875 C520.746603,24.46875 521.193213,24.2916684 521.477069,23.9375 C521.760924,23.5833316 521.915871,22.9817751 521.941912,22.1328125 L521.941912,21.875 C521.941912,20.9374953 521.797383,20.265627 521.508319,19.859375 C521.219255,19.453123 520.749207,19.25 520.098162,19.25 C519.56691,19.25 519.154154,19.4752582 518.859881,19.9257812 C518.565609,20.3763043 518.418475,21.0312457 518.418475,21.890625 C518.418475,22.7500043 518.566911,23.3945291 518.863787,23.8242188 C519.160664,24.2539084 519.585139,24.46875 520.137225,24.46875 L520.137225,24.46875 Z" id="Ad" fill="#63B65A" sketch:type="MSShapeGroup"></path>
                    <path d="M462.676287,26.2109375 L461.848162,23.4921875 L457.6841,23.4921875 L456.855975,26.2109375 L454.2466,26.2109375 L458.27785,14.7421875 L461.238787,14.7421875 L465.285662,26.2109375 L462.676287,26.2109375 Z M461.270037,21.4609375 C460.504409,18.9973835 460.073423,17.6041683 459.977069,17.28125 C459.880714,16.9583317 459.811704,16.7031259 459.770037,16.515625 C459.598162,17.182295 459.105979,18.830716 458.293475,21.4609375 L461.270037,21.4609375 Z M469.301287,26.3671875 C468.275241,26.3671875 467.469259,25.968754 466.883319,25.171875 C466.297378,24.374996 466.004412,23.2708404 466.004412,21.859375 C466.004412,20.4270762 466.302587,19.3112019 466.898944,18.5117188 C467.495301,17.7122356 468.316907,17.3125 469.363787,17.3125 C470.462751,17.3125 471.301285,17.7395791 471.879412,18.59375 L471.957537,18.59375 C471.837745,17.9427051 471.77785,17.3619817 471.77785,16.8515625 L471.77785,14.0546875 L474.168475,14.0546875 L474.168475,26.2109375 L472.34035,26.2109375 L471.879412,25.078125 L471.77785,25.078125 C471.236181,25.9375043 470.410668,26.3671875 469.301287,26.3671875 L469.301287,26.3671875 Z M470.137225,24.46875 C470.746603,24.46875 471.193213,24.2916684 471.477069,23.9375 C471.760924,23.5833316 471.915871,22.9817751 471.941912,22.1328125 L471.941912,21.875 C471.941912,20.9374953 471.797383,20.265627 471.508319,19.859375 C471.219255,19.453123 470.749207,19.25 470.098162,19.25 C469.56691,19.25 469.154154,19.4752582 468.859881,19.9257812 C468.565609,20.3763043 468.418475,21.0312457 468.418475,21.890625 C468.418475,22.7500043 468.566911,23.3945291 468.863787,23.8242188 C469.160664,24.2539084 469.585139,24.46875 470.137225,24.46875 L470.137225,24.46875 Z" id="Ad" fill="#63B65A" sketch:type="MSShapeGroup"></path>
                    <path d="M266.676287,156.210938 L265.848162,153.492188 L261.6841,153.492188 L260.855975,156.210938 L258.2466,156.210938 L262.27785,144.742188 L265.238787,144.742188 L269.285662,156.210938 L266.676287,156.210938 Z M265.270037,151.460938 C264.504409,148.997384 264.073423,147.604168 263.977069,147.28125 C263.880714,146.958332 263.811704,146.703126 263.770037,146.515625 C263.598162,147.182295 263.105979,148.830716 262.293475,151.460938 L265.270037,151.460938 Z M273.301287,156.367188 C272.275241,156.367188 271.469259,155.968754 270.883319,155.171875 C270.297378,154.374996 270.004412,153.27084 270.004412,151.859375 C270.004412,150.427076 270.302587,149.311202 270.898944,148.511719 C271.495301,147.712236 272.316907,147.3125 273.363787,147.3125 C274.462751,147.3125 275.301285,147.739579 275.879412,148.59375 L275.957537,148.59375 C275.837745,147.942705 275.77785,147.361982 275.77785,146.851562 L275.77785,144.054688 L278.168475,144.054688 L278.168475,156.210938 L276.34035,156.210938 L275.879412,155.078125 L275.77785,155.078125 C275.236181,155.937504 274.410668,156.367188 273.301287,156.367188 L273.301287,156.367188 Z M274.137225,154.46875 C274.746603,154.46875 275.193213,154.291668 275.477069,153.9375 C275.760924,153.583332 275.915871,152.981775 275.941912,152.132812 L275.941912,151.875 C275.941912,150.937495 275.797383,150.265627 275.508319,149.859375 C275.219255,149.453123 274.749207,149.25 274.098162,149.25 C273.56691,149.25 273.154154,149.475258 272.859881,149.925781 C272.565609,150.376304 272.418475,151.031246 272.418475,151.890625 C272.418475,152.750004 272.566911,153.394529 272.863787,153.824219 C273.160664,154.253908 273.585139,154.46875 274.137225,154.46875 L274.137225,154.46875 Z" id="Ad" fill="#FFFFFF" sketch:type="MSShapeGroup"></path>
                </g>
            </g>
        </g>
    </g>
</svg>