<svg width="810" height="150" xmlns="http://www.w3.org/2000/svg">
	<path d="M206.267 77.556c0 13.132-3.283 23.339-9.849 30.623-6.566 7.283-15.863 10.925-27.891 10.925-12.176 0-21.528-3.614-28.057-10.842-6.529-7.228-9.794-17.5-9.794-30.816 0-13.316 3.283-23.542 9.849-30.678 6.566-7.136 15.937-10.704 28.112-10.704 11.992 0 21.261 3.623 27.809 10.87 6.548 7.246 9.821 17.454 9.821 30.623zm-61.576 0c0 9.932 2.005 17.463 6.014 22.594s9.95 7.697 17.822 7.697c7.835 0 13.748-2.538 17.739-7.614 3.991-5.076 5.987-12.635 5.987-22.677 0-9.895-1.977-17.399-5.931-22.512-3.954-5.113-9.849-7.669-17.684-7.669-7.909 0-13.877 2.556-17.905 7.669-4.028 5.113-6.042 12.617-6.042 22.512zm131.208 40.444h-13.021v-37.52c0-4.708-.947-8.221-2.842-10.539-1.894-2.317-4.901-3.476-9.021-3.476-5.481 0-9.49 1.618-12.028 4.855-2.538 3.237-3.807 8.663-3.807 16.277v30.402h-12.966v-61.024h10.152l1.821 8h.662c1.839-2.906 4.451-5.15 7.835-6.731 3.384-1.582 7.136-2.373 11.256-2.373 14.64 0 21.96 7.449 21.96 22.346v39.782zm31.009 0h-12.966v-85.854h12.966v85.854zm31.505 0h-12.966v-61.024h12.966v61.024zm-13.739-77.191c0-2.317.635-4.101 1.904-5.352 1.269-1.251 3.081-1.876 5.435-1.876 2.281 0 4.055.625 5.324 1.876 1.269 1.251 1.904 3.035 1.904 5.352 0 2.207-.635 3.945-1.904 5.214-1.269 1.269-3.044 1.904-5.324 1.904-2.354 0-4.166-.635-5.435-1.904-1.269-1.269-1.904-3.007-1.904-5.214zm85.964 77.191h-13.021v-37.52c0-4.708-.947-8.221-2.842-10.539-1.894-2.317-4.901-3.476-9.021-3.476-5.481 0-9.49 1.618-12.028 4.855-2.538 3.237-3.807 8.663-3.807 16.277v30.402h-12.966v-61.024h10.152l1.821 8h.662c1.839-2.906 4.451-5.15 7.835-6.731 3.384-1.582 7.136-2.373 11.256-2.373 14.64 0 21.96 7.449 21.96 22.346v39.782zm44.692 1.104c-9.49 0-16.911-2.768-22.263-8.304-5.352-5.536-8.028-13.159-8.028-22.87 0-9.968 2.483-17.803 7.449-23.505 4.966-5.702 11.789-8.552 20.47-8.552 8.056 0 14.419 2.446 19.091 7.338 4.672 4.892 7.007 11.624 7.007 20.194v7.007h-40.665c.184 5.922 1.784 10.474 4.8 13.656 3.016 3.182 7.265 4.773 12.746 4.773 3.605 0 6.961-.34 10.07-1.021 3.108-.681 6.446-1.812 10.014-3.393v10.539c-3.163 1.508-6.364 2.575-9.601 3.2-3.237.625-6.934.938-11.09.938zm-2.373-53.41c-4.12 0-7.421 1.306-9.904 3.917-2.483 2.612-3.963 6.419-4.442 11.421h27.698c-.074-5.039-1.287-8.856-3.642-11.449-2.354-2.593-5.591-3.89-9.711-3.89zm92.254 52.307l-8.056-22.401h-30.843l-7.89 22.401h-13.904l30.181-80.998h14.346l30.181 80.998h-14.015zm-11.532-33.768l-7.559-21.96c-.552-1.471-1.315-3.789-2.29-6.952-.975-3.163-1.646-5.481-2.014-6.952-.993 4.524-2.446 9.472-4.359 14.842l-7.283 21.022h23.505zm55.396 34.871c-7.614 0-13.555-2.759-17.822-8.276-4.267-5.518-6.4-13.261-6.4-23.229 0-10.005 2.161-17.794 6.483-23.367 4.322-5.573 10.309-8.359 17.96-8.359 8.019 0 14.125 2.961 18.318 8.883h.662c-.625-4.377-.938-7.835-.938-10.373v-22.236h13.021v85.854h-10.152l-2.262-8h-.607c-4.157 6.069-10.244 9.104-18.263 9.104zm3.476-10.483c5.334 0 9.214-1.499 11.642-4.497 2.428-2.998 3.678-7.863 3.752-14.594v-1.821c0-7.688-1.251-13.15-3.752-16.387s-6.419-4.855-11.752-4.855c-4.561 0-8.074 1.848-10.539 5.545s-3.697 8.966-3.697 15.808c0 6.768 1.195 11.927 3.586 15.477 2.391 3.55 5.977 5.324 10.759 5.324zm93.026-11.421c0 6.731-2.474 12.065-7.421 16.001-4.947 3.936-11.523 5.904-19.725 5.904-9.858 0-17.417-1.085-22.677-3.255v-5.628c5.812 2.465 13.224 3.697 22.236 3.697 6.621 0 11.872-1.517 15.753-4.552 3.881-3.035 5.821-7.016 5.821-11.946 0-3.053-.644-5.582-1.931-7.587s-3.384-3.835-6.29-5.49c-2.906-1.655-7.173-3.439-12.801-5.352-8.24-2.832-13.932-5.895-17.077-9.187-3.145-3.292-4.718-7.679-4.718-13.159 0-6.033 2.363-10.952 7.09-14.76 4.727-3.807 10.805-5.711 18.236-5.711 7.578 0 14.695 1.435 21.353 4.304l-2.042 4.855c-6.695-2.796-13.095-4.193-19.201-4.193-5.959 0-10.704 1.379-14.235 4.138-3.531 2.759-5.297 6.511-5.297 11.256 0 2.98.543 5.426 1.628 7.338 1.085 1.913 2.86 3.632 5.324 5.159 2.465 1.527 6.695 3.357 12.69 5.49 6.29 2.17 11.017 4.276 14.18 6.318 3.163 2.042 5.472 4.359 6.925 6.952 1.453 2.593 2.179 5.729 2.179 9.407zm41.327 21.905c-9.233 0-15.964-3.458-20.194-10.373h-.386l.166 4.635c.147 2.722.221 5.701.221 8.938v22.843h-5.462v-87.123h4.635l1.048 8.552h.331c4.12-6.474 10.704-9.711 19.753-9.711 8.092 0 14.263 2.658 18.511 7.973 4.249 5.315 6.373 13.049 6.373 23.201 0 9.858-2.235 17.5-6.704 22.926-4.469 5.426-10.566 8.138-18.291 8.138zm-.11-4.855c6.143 0 10.897-2.281 14.263-6.842 3.366-4.561 5.049-10.943 5.049-19.146 0-17.62-6.364-26.429-19.091-26.429-6.989 0-12.12 1.922-15.394 5.766-3.274 3.844-4.911 10.106-4.911 18.787v1.766c0 9.38 1.572 16.075 4.718 20.084 3.145 4.009 8.267 6.014 15.366 6.014zm31.671-56.224h5.628l12.69 33.657c3.862 10.336 6.308 17.307 7.338 20.912h.331c1.545-4.745 4.065-11.826 7.559-21.243l12.69-33.326h5.628l-26.871 69.687c-2.17 5.665-3.991 9.49-5.462 11.477-1.471 1.986-3.191 3.476-5.159 4.469-1.968.993-4.35 1.49-7.145 1.49-2.097 0-4.432-.386-7.007-1.159v-4.745c2.133.589 4.432.883 6.897.883 1.876 0 3.531-.441 4.966-1.324s2.731-2.253 3.89-4.111c1.159-1.858 2.501-4.8 4.028-8.828 1.527-4.028 2.51-6.649 2.952-7.863l-22.953-59.976z" fill="#222"/>
	<g>
		<ellipse opacity=".2" fill="#292929" cx="55.742" cy="146.875" rx="43.355" ry="3.125"/><path d="M5.575 73.126c-.565-.76-1.465-1.251-2.478-1.251-1.71 0-3.097 1.399-3.097 3.125 0 1.023.487 1.931 1.24 2.501l30.347 30.623c.565.76 1.465 1.251 2.478 1.251 1.71 0 3.097-1.399 3.097-3.125 0-1.023-.487-1.931-1.24-2.501l-30.347-30.623z" fill="#F5C022"/>
		<path d="M58.839 131.25h-6.194c0 8.629-6.932 15.625-15.484 15.625s-15.484-6.996-15.484-15.625v-15.625c-6.841 0-12.387-5.596-12.387-12.5s5.546-12.5 12.387-12.5h68.129c6.841 0 12.387 5.596 12.387 12.5s-5.546 12.5-12.387 12.5v15.625c0 8.629-6.932 15.625-15.484 15.625s-15.484-6.996-15.484-15.625z" fill="#292929"/><rect fill="#F5C022" x="21.677" y="118.75" width="68.129" height="6.25"/>
		<ellipse fill="#FFE6CC" cx="55.742" cy="50" rx="46.452" ry="46.875"/>
		<path d="M21.987 90.625c9.29 7.813 21.058 12.5 33.755 12.5 12.697 0 24.774-4.688 33.755-12.5h-67.51z" fill="#414242"/>
		<path d="M104.361 12.5c.929-.313 1.239-1.25.929-2.188-.31-.625-.619-.938-1.239-.938h-1.858c-3.406 0-5.884-2.5-6.194-5.625v-1.875c0-1.25-.619-1.875-1.548-1.875-.619 0-.929.313-1.239.625l-7.742 9.688c-8.052-6.563-18.581-10.313-29.729-10.313-27.252 0-49.548 22.5-49.548 50s22.297 50 49.548 50c27.252 0 49.548-22.5 49.548-50 0-12.188-4.335-23.438-11.768-32.188l10.839-5.313zm-8.671 33.75l.31 3.438c0 6.563-1.548 12.813-4.335 18.438-11.148 2.188-23.226-2.813-35.923-2.813-12.697 0-24.774 5-35.923 2.813-2.787-5.625-4.335-11.875-4.335-18.438 0-1.25 0-2.188.31-3.438 11.458-3.75 25.394-5.938 39.948-5.938 14.555 0 28.49 2.188 39.948 5.938z" fill="#292929"/>
		<ellipse fill="#292929" cx="34.065" cy="56.25" rx="6.194" ry="6.25"/>
		<ellipse fill="#292929" cx="77.419" cy="56.25" rx="6.194" ry="6.25"/>
	</g>
</svg>