<svg width="610" height="200" xmlns="http://www.w3.org/2000/svg" xmlns:sketch="http://www.bohemiancoding.com/sketch/ns"><title>Artboard 1</title><desc>Created with Sketch.</desc><g sketch:type="MSArtboardGroup" fill="none"><path d="M19.688 37l-3.199-8.174h-10.301l-3.164 8.174h-3.023l10.16-25.805h2.514l10.107 25.805h-3.094zm-4.131-10.863l-2.988-7.963c-.387-1.008-.785-2.244-1.195-3.709-.258 1.125-.627 2.361-1.107 3.709l-3.023 7.963h8.314zm10.758-14.836h7.26c3.41 0 5.877.51 7.4 1.529 1.523 1.02 2.285 2.631 2.285 4.834 0 1.523-.425 2.78-1.274 3.771-.85.99-2.089 1.632-3.718 1.925v.176c3.902.668 5.854 2.719 5.854 6.152 0 2.297-.776 4.09-2.329 5.379-1.553 1.289-3.724 1.934-6.513 1.934h-8.965v-25.699zm2.988 11.004h4.922c2.109 0 3.627-.331 4.553-.993.926-.662 1.389-1.778 1.389-3.349 0-1.441-.516-2.481-1.547-3.12-1.031-.639-2.672-.958-4.922-.958h-4.395v8.42zm0 2.531v9.615h5.361c2.074 0 3.636-.401 4.685-1.204 1.049-.803 1.573-2.06 1.573-3.771 0-1.594-.536-2.766-1.608-3.516s-2.704-1.125-4.896-1.125h-5.115zm31.342-11.232c-2.824 0-5.054.94-6.688 2.821-1.635 1.881-2.452 4.456-2.452 7.726 0 3.363.788 5.962 2.364 7.796 1.576 1.834 3.823 2.751 6.741 2.751 1.793 0 3.838-.322 6.135-.967v2.619c-1.781.668-3.979 1.002-6.592 1.002-3.785 0-6.706-1.148-8.763-3.445-2.057-2.297-3.085-5.561-3.085-9.791 0-2.648.495-4.969 1.485-6.961.99-1.992 2.42-3.527 4.289-4.605 1.869-1.078 4.069-1.617 6.601-1.617 2.695 0 5.051.492 7.066 1.477l-1.266 2.566c-1.945-.914-3.891-1.371-5.836-1.371zm32.221 10.301c0 4.242-1.151 7.485-3.454 9.729-2.303 2.244-5.616 3.366-9.94 3.366h-7.119v-25.699h7.875c3.996 0 7.102 1.107 9.316 3.322 2.215 2.215 3.322 5.309 3.322 9.281zm-3.164.105c0-3.352-.841-5.877-2.522-7.576-1.682-1.699-4.181-2.549-7.497-2.549h-4.342v20.531h3.639c3.563 0 6.24-.876 8.033-2.628 1.793-1.752 2.689-4.345 2.689-7.778zm23.221 12.99h-14.326v-25.699h14.326v2.654h-11.338v8.279h10.652v2.637h-10.652v9.457h11.338v2.672zm8.684 0h-2.988v-25.699h14.326v2.654h-11.338v9.404h10.652v2.654h-10.652v10.986zm26.895-13.465h8.736v12.498c-1.359.434-2.742.762-4.148.984-1.406.223-3.035.334-4.887.334-3.891 0-6.92-1.157-9.088-3.472-2.168-2.314-3.252-5.558-3.252-9.729 0-2.672.536-5.013 1.608-7.022 1.072-2.01 2.616-3.545 4.632-4.605 2.016-1.061 4.377-1.591 7.084-1.591 2.742 0 5.297.504 7.664 1.512l-1.16 2.637c-2.32-.984-4.553-1.477-6.697-1.477-3.129 0-5.572.932-7.33 2.795s-2.637 4.447-2.637 7.752c0 3.469.847 6.1 2.54 7.893 1.693 1.793 4.181 2.689 7.462 2.689 1.781 0 3.521-.205 5.221-.615v-7.91h-5.748v-2.672zm34.418 13.465h-2.988v-12.094h-13.535v12.094h-2.988v-25.699h2.988v10.934h13.535v-10.934h2.988v25.699zm7.049 0v-25.699h2.988v25.699h-2.988zm6.293 6.768c-1.102 0-1.969-.158-2.602-.475v-2.549c.832.234 1.699.352 2.602.352 1.16 0 2.042-.352 2.646-1.055.604-.703.905-1.717.905-3.041v-25.699h2.988v25.453c0 2.227-.562 3.952-1.688 5.177-1.125 1.225-2.742 1.837-4.852 1.837zm31.922-6.768h-3.516l-9.369-12.463-2.689 2.391v10.072h-2.988v-25.699h2.988v12.744l11.654-12.744h3.533l-10.336 11.162 10.723 14.537zm3.533 0v-25.699h2.988v22.992h11.338v2.707h-14.326zm30.059 0l-8.719-22.781h-.141c.164 1.805.246 3.949.246 6.434v16.348h-2.76v-25.699h4.5l8.139 21.199h.141l8.209-21.199h4.465v25.699h-2.988v-16.559c0-1.898.082-3.961.246-6.188h-.141l-8.789 22.746h-2.408zm41.203 0h-3.41l-14.045-21.568h-.141c.188 2.531.281 4.852.281 6.961v14.607h-2.76v-25.699h3.375l14.01 21.48h.141c-.023-.316-.076-1.333-.158-3.05-.082-1.717-.111-2.944-.088-3.683v-14.748h2.795v25.699zm29.373-12.885c0 4.113-1.04 7.348-3.12 9.703-2.08 2.355-4.972 3.533-8.675 3.533-3.785 0-6.706-1.157-8.763-3.472-2.057-2.314-3.085-5.581-3.085-9.8 0-4.184 1.031-7.427 3.094-9.729 2.063-2.303 4.992-3.454 8.789-3.454 3.691 0 6.574 1.172 8.648 3.516 2.074 2.344 3.111 5.578 3.111 9.703zm-20.479 0c0 3.48.741 6.12 2.224 7.919 1.482 1.799 3.636 2.698 6.46 2.698 2.848 0 4.998-.896 6.451-2.689 1.453-1.793 2.18-4.436 2.18-7.928 0-3.457-.724-6.079-2.171-7.866-1.447-1.787-3.589-2.681-6.425-2.681-2.848 0-5.013.899-6.495 2.698-1.482 1.799-2.224 4.415-2.224 7.849zm42.504-5.326c0 2.602-.888 4.603-2.663 6.003-1.775 1.4-4.315 2.101-7.62 2.101h-3.023v10.107h-2.988v-25.699h6.662c6.422 0 9.633 2.496 9.633 7.488zm-13.307 5.537h2.689c2.648 0 4.564-.428 5.748-1.283 1.184-.855 1.775-2.227 1.775-4.113 0-1.699-.557-2.965-1.67-3.797-1.113-.832-2.848-1.248-5.203-1.248h-3.34v10.441zm40.992-.211c0 3.293-.662 6.029-1.986 8.209-1.324 2.18-3.193 3.656-5.607 4.43l6.117 6.363h-4.342l-5.01-5.801-.967.035c-3.785 0-6.706-1.157-8.763-3.472-2.057-2.314-3.085-5.581-3.085-9.8 0-4.184 1.031-7.427 3.094-9.729 2.063-2.303 4.992-3.454 8.789-3.454 3.691 0 6.574 1.172 8.648 3.516 2.074 2.344 3.111 5.578 3.111 9.703zm-20.479 0c0 3.48.741 6.12 2.224 7.919 1.482 1.799 3.636 2.698 6.46 2.698 2.848 0 4.998-.896 6.451-2.689 1.453-1.793 2.18-4.436 2.18-7.928 0-3.457-.724-6.079-2.171-7.866-1.447-1.787-3.589-2.681-6.425-2.681-2.848 0-5.013.899-6.495 2.698-1.482 1.799-2.224 4.415-2.224 7.849zm29.197 2.197v10.688h-2.988v-25.699h7.049c3.152 0 5.481.604 6.987 1.811 1.506 1.207 2.259 3.023 2.259 5.449 0 3.398-1.723 5.695-5.168 6.891l6.979 11.549h-3.533l-6.223-10.688h-5.361zm0-2.566h4.096c2.109 0 3.656-.419 4.641-1.257.984-.838 1.477-2.095 1.477-3.771 0-1.699-.501-2.924-1.503-3.674-1.002-.75-2.61-1.125-4.825-1.125h-3.885v9.826zm33.768 6.416c0 2.262-.82 4.025-2.461 5.291s-3.867 1.898-6.68 1.898c-3.047 0-5.391-.393-7.031-1.178v-2.883c1.055.445 2.203.797 3.445 1.055 1.242.258 2.473.387 3.691.387 1.992 0 3.492-.378 4.5-1.134 1.008-.756 1.512-1.808 1.512-3.155 0-.891-.179-1.62-.536-2.188-.357-.568-.955-1.093-1.793-1.573s-2.112-1.025-3.823-1.635c-2.391-.855-4.099-1.869-5.124-3.041-1.025-1.172-1.538-2.701-1.538-4.588 0-1.98.744-3.557 2.232-4.729 1.488-1.172 3.457-1.758 5.906-1.758 2.555 0 4.904.469 7.049 1.406l-.932 2.602c-2.121-.891-4.184-1.336-6.188-1.336-1.582 0-2.818.34-3.709 1.02-.891.68-1.336 1.623-1.336 2.83 0 .891.164 1.62.492 2.188.328.568.882 1.09 1.661 1.564.779.475 1.972.999 3.577 1.573 2.695.961 4.55 1.992 5.563 3.094 1.014 1.102 1.521 2.531 1.521 4.289zm13.166 6.838h-2.988v-23.045h-8.139v-2.654h19.266v2.654h-8.139v23.045zm31.412-25.699v16.629c0 2.93-.885 5.232-2.654 6.908-1.77 1.676-4.201 2.514-7.295 2.514-3.094 0-5.487-.844-7.181-2.531-1.693-1.688-2.54-4.008-2.54-6.961v-16.559h2.988v16.77c0 2.145.586 3.791 1.758 4.939 1.172 1.148 2.895 1.723 5.168 1.723 2.168 0 3.838-.577 5.01-1.731 1.172-1.154 1.758-2.81 1.758-4.966v-16.734h2.988zm21.48 0h3.217l-9.264 25.699h-2.953l-9.211-25.699h3.164l5.906 16.629c.68 1.91 1.219 3.768 1.617 5.572.422-1.898.973-3.791 1.652-5.678l5.871-16.523zm29.18 25.699h-2.953l-5.186-17.209c-.246-.762-.521-1.723-.826-2.883-.305-1.16-.463-1.857-.475-2.092-.258 1.547-.668 3.24-1.23 5.08l-5.027 17.104h-2.953l-6.838-25.699h3.164l4.061 15.873c.563 2.227.973 4.242 1.23 6.047.316-2.145.785-4.242 1.406-6.293l4.605-15.627h3.164l4.834 15.768c.563 1.816 1.037 3.867 1.424 6.152.223-1.664.645-3.691 1.266-6.082l4.043-15.838h3.164l-6.873 25.699zm28.002 0h-3.393l-6.908-11.303-7.031 11.303h-3.164l8.543-13.43-7.963-12.27h3.305l6.381 10.178 6.434-10.178h3.182l-7.963 12.164 8.578 13.535zm10.213-12.85l6.855-12.85h3.234l-8.578 15.732v9.967h-3.023v-9.826l-8.561-15.873h3.27l6.803 12.85zm29.197 12.85h-17.666v-2.338l13.641-20.672h-13.219v-2.689h16.857v2.338l-13.641 20.654h14.027v2.707z" opacity=".9" fill="#292929" sketch:type="MSShapeGroup"/><path d="M18.791 144.115c0 4.441-.7 7.758-2.101 9.949-1.4 2.191-3.542 3.287-6.425 3.287-2.766 0-4.869-1.122-6.311-3.366-1.441-2.244-2.162-5.534-2.162-9.87 0-4.477.697-7.799 2.092-9.967s3.521-3.252 6.381-3.252c2.789 0 4.907 1.131 6.354 3.393 1.447 2.262 2.171 5.537 2.171 9.826zm-14.045 0c0 3.738.439 6.46 1.318 8.165.879 1.705 2.279 2.558 4.201 2.558 1.945 0 3.354-.864 4.228-2.593.873-1.729 1.31-4.438 1.31-8.13 0-3.691-.437-6.395-1.31-8.112-.873-1.717-2.282-2.575-4.228-2.575-1.922 0-3.322.847-4.201 2.54-.879 1.693-1.318 4.409-1.318 8.147zm28.406 12.885h-2.848v-18.316c0-1.523.047-2.965.141-4.324-.246.246-.521.504-.826.773-.305.27-1.699 1.412-4.184 3.428l-1.547-2.004 6.803-5.256h2.461v25.699zm26.666 0h-16.893v-2.514l6.768-6.803c2.063-2.086 3.422-3.574 4.078-4.465.656-.891 1.148-1.758 1.477-2.602.328-.844.492-1.752.492-2.725 0-1.371-.416-2.458-1.248-3.261-.832-.803-1.986-1.204-3.463-1.204-1.066 0-2.077.176-3.032.527-.955.352-2.019.99-3.19 1.916l-1.547-1.986c2.367-1.969 4.945-2.953 7.734-2.953 2.414 0 4.307.618 5.678 1.854 1.371 1.236 2.057 2.897 2.057 4.983 0 1.629-.457 3.24-1.371 4.834-.914 1.594-2.625 3.609-5.133 6.047l-5.625 5.502v.141h13.219v2.707zm19.617-19.652c0 1.641-.46 2.982-1.38 4.025-.92 1.043-2.224 1.74-3.911 2.092v.141c2.063.258 3.592.914 4.588 1.969.996 1.055 1.494 2.437 1.494 4.148 0 2.449-.85 4.333-2.549 5.651-1.699 1.318-4.113 1.978-7.242 1.978-1.359 0-2.604-.103-3.735-.308-1.131-.205-2.229-.565-3.296-1.081v-2.777c1.113.551 2.3.97 3.56 1.257 1.26.287 2.452.431 3.577.431 4.441 0 6.662-1.74 6.662-5.221 0-3.117-2.449-4.676-7.348-4.676h-2.531v-2.514h2.566c2.004 0 3.592-.442 4.764-1.327 1.172-.885 1.758-2.112 1.758-3.683 0-1.254-.431-2.238-1.292-2.953-.861-.715-2.03-1.072-3.507-1.072-1.125 0-2.186.152-3.182.457-.996.305-2.133.867-3.41 1.688l-1.477-1.969c1.055-.832 2.271-1.485 3.647-1.96 1.377-.475 2.827-.712 4.351-.712 2.496 0 4.436.571 5.818 1.714 1.383 1.143 2.074 2.71 2.074 4.702zm22.764 13.746h-3.814v5.906h-2.795v-5.906h-12.498v-2.549l12.199-17.385h3.094v17.279h3.814v2.654zm-6.609-2.654v-8.543c0-1.676.059-3.568.176-5.678h-.141c-.563 1.125-1.09 2.057-1.582 2.795l-8.033 11.426h9.58zm17.121-7.137c2.707 0 4.837.671 6.39 2.013 1.553 1.342 2.329 3.179 2.329 5.511 0 2.66-.847 4.746-2.54 6.258-1.693 1.512-4.028 2.268-7.005 2.268-2.895 0-5.104-.463-6.627-1.389v-2.813c.82.527 1.84.94 3.059 1.239 1.219.299 2.42.448 3.604.448 2.063 0 3.665-.486 4.808-1.459 1.143-.973 1.714-2.379 1.714-4.219 0-3.586-2.197-5.379-6.592-5.379-1.113 0-2.602.17-4.465.51l-1.512-.967.967-12.023h12.779v2.689h-10.283l-.65 7.717c1.348-.27 2.689-.404 4.025-.404zm12.85 4.711c0-5.051.981-8.827 2.944-11.329 1.963-2.502 4.866-3.753 8.71-3.753 1.324 0 2.367.111 3.129.334v2.514c-.902-.293-1.934-.439-3.094-.439-2.754 0-4.857.858-6.311 2.575-1.453 1.717-2.25 4.415-2.391 8.095h.211c1.289-2.016 3.328-3.023 6.117-3.023 2.309 0 4.128.697 5.458 2.092s1.995 3.287 1.995 5.678c0 2.672-.729 4.772-2.188 6.302-1.459 1.529-3.431 2.294-5.915 2.294-2.66 0-4.77-.999-6.328-2.997-1.559-1.998-2.338-4.778-2.338-8.341zm8.631 8.859c1.664 0 2.956-.524 3.876-1.573.92-1.049 1.38-2.563 1.38-4.544 0-1.699-.428-3.035-1.283-4.008-.855-.973-2.133-1.459-3.832-1.459-1.055 0-2.021.217-2.9.65-.879.434-1.579 1.031-2.101 1.793-.521.762-.782 1.553-.782 2.373 0 1.207.234 2.332.703 3.375.469 1.043 1.134 1.869 1.995 2.479.861.609 1.843.914 2.944.914zm14.906 2.127l10.652-23.01h-14.01v-2.689h17.104v2.338l-10.512 23.361h-3.234zm25.84-26.068c2.344 0 4.201.545 5.572 1.635 1.371 1.09 2.057 2.596 2.057 4.518 0 1.266-.393 2.42-1.178 3.463-.785 1.043-2.039 1.992-3.762 2.848 2.086.996 3.568 2.042 4.447 3.138s1.318 2.364 1.318 3.806c0 2.133-.744 3.835-2.232 5.106-1.488 1.271-3.527 1.907-6.117 1.907-2.742 0-4.852-.601-6.328-1.802-1.477-1.201-2.215-2.903-2.215-5.106 0-2.941 1.793-5.232 5.379-6.873-1.617-.914-2.777-1.901-3.48-2.962-.703-1.061-1.055-2.247-1.055-3.56 0-1.863.688-3.349 2.065-4.456 1.377-1.107 3.22-1.661 5.528-1.661zm-5.555 19.582c0 1.406.489 2.502 1.468 3.287.979.785 2.353 1.178 4.122 1.178 1.746 0 3.105-.41 4.078-1.23.973-.82 1.459-1.945 1.459-3.375 0-1.137-.457-2.147-1.371-3.032-.914-.885-2.508-1.743-4.781-2.575-1.746.75-3.012 1.579-3.797 2.487-.785.908-1.178 1.995-1.178 3.261zm5.52-17.209c-1.465 0-2.613.352-3.445 1.055-.832.703-1.248 1.641-1.248 2.813 0 1.078.346 2.004 1.037 2.777.691.773 1.969 1.547 3.832 2.32 1.676-.703 2.862-1.459 3.56-2.268.697-.809 1.046-1.752 1.046-2.83 0-1.184-.425-2.124-1.274-2.821-.85-.697-2.019-1.046-3.507-1.046zm29.004 8.965c0 10.055-3.891 15.082-11.672 15.082-1.359 0-2.437-.117-3.234-.352v-2.514c.938.305 2.004.457 3.199.457 2.813 0 4.937-.87 6.372-2.61 1.436-1.74 2.218-4.409 2.347-8.007h-.211c-.645.973-1.5 1.714-2.566 2.224-1.066.51-2.268.765-3.604.765-2.273 0-4.078-.68-5.414-2.039-1.336-1.359-2.004-3.258-2.004-5.695 0-2.672.747-4.781 2.241-6.328 1.494-1.547 3.46-2.32 5.897-2.32 1.746 0 3.272.448 4.579 1.345 1.307.896 2.312 2.203 3.015 3.92.703 1.717 1.055 3.741 1.055 6.073zm-8.648-8.842c-1.676 0-2.971.539-3.885 1.617-.914 1.078-1.371 2.578-1.371 4.5 0 1.688.422 3.015 1.266 3.981.844.967 2.127 1.45 3.85 1.45 1.066 0 2.048-.217 2.944-.65.896-.434 1.603-1.025 2.118-1.775.516-.75.773-1.535.773-2.355 0-1.23-.24-2.367-.721-3.41-.48-1.043-1.151-1.863-2.013-2.461-.861-.598-1.849-.896-2.962-.896zm13.254 21.709c0-.785.179-1.38.536-1.784.357-.404.87-.606 1.538-.606.68 0 1.21.202 1.591.606.381.404.571.999.571 1.784 0 .762-.193 1.348-.58 1.758-.387.41-.914.615-1.582.615-.598 0-1.093-.185-1.485-.554-.393-.369-.589-.976-.589-1.819zm13.061-2.32l.264.404c-.305 1.172-.744 2.534-1.318 4.087-.574 1.553-1.172 2.997-1.793 4.333h-2.197c.316-1.219.665-2.725 1.046-4.518.381-1.793.647-3.229.8-4.307h3.199zm8.824 0l.264.404c-.305 1.172-.744 2.534-1.318 4.087-.574 1.553-1.172 2.997-1.793 4.333h-2.197c.316-1.219.665-2.725 1.046-4.518.381-1.793.647-3.229.8-4.307h3.199zm-3.568-13.201c0-1.582.697-2.373 2.092-2.373 1.441 0 2.162.791 2.162 2.373 0 .762-.193 1.348-.58 1.758-.387.41-.914.615-1.582.615-.68 0-1.198-.205-1.556-.615-.357-.41-.536-.996-.536-1.758zm12.076 10.301v-.949c0-1.371.211-2.499.633-3.384.422-.885 1.207-1.819 2.355-2.804 1.594-1.348 2.599-2.361 3.015-3.041.416-.68.624-1.5.624-2.461 0-1.195-.384-2.118-1.151-2.769-.768-.65-1.872-.976-3.313-.976-.926 0-1.828.108-2.707.325-.879.217-1.887.612-3.023 1.187l-1.037-2.373c2.215-1.16 4.529-1.74 6.943-1.74 2.238 0 3.979.551 5.221 1.652 1.242 1.102 1.863 2.654 1.863 4.658 0 .855-.114 1.608-.343 2.259-.229.65-.565 1.266-1.011 1.846-.445.58-1.406 1.515-2.883 2.804-1.184 1.008-1.966 1.846-2.347 2.514-.381.668-.571 1.559-.571 2.672v.58h-2.268zm-.861 5.221c0-1.594.703-2.391 2.109-2.391.68 0 1.204.205 1.573.615.369.41.554 1.002.554 1.775 0 .75-.187 1.333-.563 1.749-.375.416-.896.624-1.564.624-.609 0-1.113-.185-1.512-.554-.398-.369-.598-.976-.598-1.819zm16.963-5.221h-1.846l-.896-18.615h3.639l-.896 18.615zm-3.059 5.221c0-1.594.703-2.391 2.109-2.391.68 0 1.204.205 1.573.615.369.41.554 1.002.554 1.775 0 .75-.187 1.333-.563 1.749-.375.416-.896.624-1.564.624-.609 0-1.113-.185-1.512-.554-.398-.369-.598-.976-.598-1.819zm14.221-18.721c0 .809.211 1.579.633 2.312.422.732 1.143 1.614 2.162 2.646 1.512-.879 2.563-1.69 3.155-2.435.592-.744.888-1.603.888-2.575 0-.902-.302-1.638-.905-2.206-.604-.568-1.409-.853-2.417-.853-1.043 0-1.89.281-2.54.844-.65.563-.976 1.318-.976 2.268zm2.725 18.316c2.824 0 5.168-.902 7.031-2.707l-7.682-7.453c-1.301.797-2.221 1.456-2.76 1.978-.539.521-.937 1.081-1.195 1.679-.258.598-.387 1.277-.387 2.039 0 1.371.454 2.458 1.362 3.261.908.803 2.118 1.204 3.63 1.204zm-8.016-4.395c0-1.523.407-2.871 1.222-4.043.814-1.172 2.276-2.355 4.386-3.551-.996-1.113-1.673-1.957-2.03-2.531-.357-.574-.642-1.172-.853-1.793-.211-.621-.316-1.266-.316-1.934 0-1.758.574-3.129 1.723-4.113 1.148-.984 2.748-1.477 4.799-1.477 1.898 0 3.393.489 4.482 1.468 1.09.979 1.635 2.341 1.635 4.087 0 1.254-.398 2.411-1.195 3.472s-2.115 2.136-3.955 3.226l7.154 6.873c.656-.727 1.181-1.579 1.573-2.558.393-.979.724-2.048.993-3.208h2.953c-.797 3.352-1.998 5.895-3.604 7.629l5.256 5.115h-4.025l-3.252-3.129c-1.383 1.242-2.789 2.133-4.219 2.672-1.43.539-3.023.809-4.781.809-2.52 0-4.474-.621-5.862-1.863-1.389-1.242-2.083-2.959-2.083-5.15zm54.527-6.152c0 1.664-.258 3.187-.773 4.57-.516 1.383-1.242 2.455-2.18 3.217-.938.762-2.016 1.143-3.234 1.143-1.008 0-1.857-.305-2.549-.914-.691-.609-1.102-1.389-1.23-2.338h-.141c-.469 1.02-1.14 1.816-2.013 2.391-.873.574-1.907.861-3.103.861-1.758 0-3.132-.601-4.122-1.802-.99-1.201-1.485-2.833-1.485-4.896 0-2.391.691-4.333 2.074-5.827 1.383-1.494 3.199-2.241 5.449-2.241.797 0 1.699.073 2.707.22 1.008.146 1.916.349 2.725.606l-.439 8.262v.387c0 2.086.779 3.129 2.338 3.129 1.066 0 1.934-.63 2.602-1.89.668-1.26 1.002-2.897 1.002-4.913 0-2.121-.434-3.979-1.301-5.572-.867-1.594-2.101-2.821-3.7-3.683-1.6-.861-3.437-1.292-5.511-1.292-2.613 0-4.887.542-6.82 1.626-1.934 1.084-3.41 2.631-4.43 4.641-1.02 2.01-1.529 4.333-1.529 6.97 0 3.574.943 6.322 2.83 8.244 1.887 1.922 4.605 2.883 8.156 2.883 2.461 0 5.016-.504 7.664-1.512v2.338c-2.25.984-4.805 1.477-7.664 1.477-4.254 0-7.556-1.169-9.905-3.507-2.35-2.338-3.524-5.604-3.524-9.8 0-3.047.627-5.76 1.881-8.139 1.254-2.379 3.041-4.222 5.361-5.528 2.32-1.307 4.98-1.96 7.98-1.96 2.52 0 4.761.53 6.724 1.591s3.48 2.566 4.553 4.518c1.072 1.951 1.608 4.198 1.608 6.741zm-18.176 2.303c0 2.977 1.143 4.465 3.428 4.465 2.426 0 3.744-1.834 3.955-5.502l.246-4.588c-.844-.234-1.764-.352-2.76-.352-1.523 0-2.716.527-3.577 1.582-.861 1.055-1.292 2.52-1.292 4.395z" opacity=".9" fill="#292929" sketch:type="MSShapeGroup"/><path d="M14.941 87l-.58-2.742h-.141c-.961 1.207-1.919 2.024-2.874 2.452-.955.428-2.147.642-3.577.642-1.91 0-3.407-.492-4.491-1.477-1.084-.984-1.626-2.385-1.626-4.201 0-3.891 3.111-5.93 9.334-6.117l3.27-.105v-1.195c0-1.512-.325-2.628-.976-3.349-.65-.721-1.69-1.081-3.12-1.081-1.605 0-3.422.492-5.449 1.477l-.896-2.232c.949-.516 1.989-.92 3.12-1.213 1.131-.293 2.265-.439 3.401-.439 2.297 0 3.999.51 5.106 1.529 1.107 1.02 1.661 2.654 1.661 4.904v13.148h-2.162zm-6.592-2.057c1.816 0 3.243-.498 4.28-1.494 1.037-.996 1.556-2.391 1.556-4.184v-1.74l-2.918.123c-2.32.082-3.993.442-5.019 1.081-1.025.639-1.538 1.632-1.538 2.979 0 1.055.319 1.857.958 2.408.639.551 1.532.826 2.681.826zm23.73-17.525c2.531 0 4.497.864 5.897 2.593 1.4 1.729 2.101 4.175 2.101 7.339 0 3.164-.706 5.622-2.118 7.374-1.412 1.752-3.372 2.628-5.88 2.628-1.254 0-2.399-.231-3.437-.694-1.037-.463-1.907-1.175-2.61-2.136h-.211l-.615 2.479h-2.092v-27.352h2.918v6.645c0 1.488-.047 2.824-.141 4.008h.141c1.359-1.922 3.375-2.883 6.047-2.883zm-.422 2.443c-1.992 0-3.428.571-4.307 1.714-.879 1.143-1.318 3.067-1.318 5.774s.451 4.644 1.354 5.81c.902 1.166 2.35 1.749 4.342 1.749 1.793 0 3.129-.653 4.008-1.96s1.318-3.185 1.318-5.634c0-2.508-.439-4.377-1.318-5.607-.879-1.23-2.238-1.846-4.078-1.846zm21.217 17.49c-2.789 0-4.948-.858-6.478-2.575-1.529-1.717-2.294-4.145-2.294-7.286 0-3.223.776-5.713 2.329-7.471 1.553-1.758 3.765-2.637 6.636-2.637.926 0 1.852.1 2.777.299.926.199 1.652.434 2.18.703l-.896 2.479c-.645-.258-1.348-.472-2.109-.642-.762-.17-1.436-.255-2.021-.255-3.914 0-5.871 2.496-5.871 7.488 0 2.367.478 4.184 1.433 5.449.955 1.266 2.37 1.898 4.245 1.898 1.605 0 3.252-.346 4.939-1.037v2.584c-1.289.668-2.912 1.002-4.869 1.002zm22.553-2.936h-.158c-1.348 1.957-3.363 2.936-6.047 2.936-2.52 0-4.479-.861-5.88-2.584-1.4-1.723-2.101-4.172-2.101-7.348s.703-5.643 2.109-7.4c1.406-1.758 3.363-2.637 5.871-2.637 2.613 0 4.617.949 6.012 2.848h.229l-.123-1.389-.07-1.354v-7.84h2.918v27.352h-2.373l-.387-2.584zm-5.836.492c1.992 0 3.437-.542 4.333-1.626.896-1.084 1.345-2.833 1.345-5.247v-.615c0-2.73-.454-4.679-1.362-5.845-.908-1.166-2.358-1.749-4.351-1.749-1.711 0-3.021.665-3.929 1.995-.908 1.33-1.362 3.208-1.362 5.634 0 2.461.451 4.318 1.354 5.572.902 1.254 2.227 1.881 3.973 1.881zm22.922 2.443c-2.848 0-5.095-.867-6.741-2.602-1.646-1.734-2.47-4.143-2.47-7.225 0-3.105.765-5.572 2.294-7.4 1.529-1.828 3.583-2.742 6.161-2.742 2.414 0 4.324.794 5.73 2.382 1.406 1.588 2.109 3.683 2.109 6.284v1.846h-13.271c.059 2.262.63 3.979 1.714 5.15 1.084 1.172 2.61 1.758 4.579 1.758 2.074 0 4.125-.434 6.152-1.301v2.602c-1.031.445-2.007.765-2.927.958-.92.193-2.03.29-3.331.29zm-.791-17.525c-1.547 0-2.78.504-3.7 1.512-.92 1.008-1.462 2.402-1.626 4.184h10.072c0-1.84-.41-3.249-1.23-4.228-.82-.979-1.992-1.468-3.516-1.468zm21.533.176h-4.904v16.998h-2.918v-16.998h-3.445v-1.318l3.445-1.055v-1.072c0-4.734 2.068-7.102 6.205-7.102 1.02 0 2.215.205 3.586.615l-.756 2.338c-1.125-.363-2.086-.545-2.883-.545-1.102 0-1.916.366-2.443 1.099-.527.732-.791 1.907-.791 3.524v1.248h4.904v2.268zm19.283-2.268v1.846l-3.568.422c.328.41.621.946.879 1.608.258.662.387 1.409.387 2.241 0 1.887-.645 3.393-1.934 4.518s-3.059 1.688-5.309 1.688c-.574 0-1.113-.047-1.617-.141-1.242.656-1.863 1.482-1.863 2.479 0 .527.217.917.65 1.169.434.252 1.178.378 2.232.378h3.41c2.086 0 3.688.439 4.808 1.318 1.119.879 1.679 2.156 1.679 3.832 0 2.133-.855 3.759-2.566 4.878-1.711 1.119-4.207 1.679-7.488 1.679-2.52 0-4.462-.469-5.827-1.406-1.365-.938-2.048-2.262-2.048-3.973 0-1.172.375-2.186 1.125-3.041s1.805-1.436 3.164-1.74c-.492-.223-.905-.568-1.239-1.037-.334-.469-.501-1.014-.501-1.635 0-.703.187-1.318.563-1.846.375-.527.967-1.037 1.775-1.529-.996-.41-1.808-1.107-2.435-2.092-.627-.984-.94-2.109-.94-3.375 0-2.109.633-3.735 1.898-4.878 1.266-1.143 3.059-1.714 5.379-1.714 1.008 0 1.916.117 2.725.352h6.662zm-15.363 22.5c0 1.043.439 1.834 1.318 2.373.879.539 2.139.809 3.779.809 2.449 0 4.263-.366 5.44-1.099 1.178-.732 1.767-1.726 1.767-2.979 0-1.043-.322-1.767-.967-2.171-.645-.404-1.857-.606-3.639-.606h-3.498c-1.324 0-2.355.316-3.094.949-.738.633-1.107 1.541-1.107 2.725zm1.582-16.33c0 1.348.381 2.367 1.143 3.059.762.691 1.822 1.037 3.182 1.037 2.848 0 4.271-1.383 4.271-4.148 0-2.895-1.441-4.342-4.324-4.342-1.371 0-2.426.369-3.164 1.107s-1.107 1.834-1.107 3.287zm30.92 13.096v-12.463c0-1.57-.357-2.742-1.072-3.516-.715-.773-1.834-1.16-3.357-1.16-2.027 0-3.507.551-4.438 1.652-.932 1.102-1.397 2.906-1.397 5.414v10.072h-2.918v-27.352h2.918v8.279c0 .996-.047 1.822-.141 2.479h.176c.574-.926 1.392-1.655 2.452-2.188 1.061-.533 2.271-.8 3.63-.8 2.355 0 4.122.56 5.3 1.679s1.767 2.897 1.767 5.335v12.568h-2.918zm11.83 0h-2.918v-19.266h2.918v19.266zm-3.164-24.486c0-.668.164-1.157.492-1.468.328-.311.738-.466 1.23-.466.469 0 .873.158 1.213.475.34.316.51.803.51 1.459s-.17 1.146-.51 1.468c-.34.322-.744.483-1.213.483-.492 0-.902-.161-1.23-.483-.328-.322-.492-.812-.492-1.468zm7.014 33.135c-1.113 0-2.016-.146-2.707-.439v-2.373c.809.234 1.605.352 2.391.352.914 0 1.585-.249 2.013-.747.428-.498.642-1.257.642-2.276v-22.43h2.918v22.219c0 3.797-1.752 5.695-5.256 5.695zm2.092-33.135c0-.668.164-1.157.492-1.468.328-.311.738-.466 1.23-.466.469 0 .873.158 1.213.475.34.316.51.803.51 1.459s-.17 1.146-.51 1.468c-.34.322-.744.483-1.213.483-.492 0-.902-.161-1.23-.483-.328-.322-.492-.812-.492-1.468zm12.234 14.625c.504-.715 1.271-1.652 2.303-2.813l6.223-6.592h3.463l-7.805 8.209 8.35 11.057h-3.533l-6.803-9.105-2.197 1.898v7.207h-2.883v-27.352h2.883v14.502c0 .645-.047 1.641-.141 2.988h.141zm18.932 9.861h-2.918v-27.352h2.918v27.352zm30.744 0v-12.533c0-1.535-.328-2.687-.984-3.454-.656-.768-1.676-1.151-3.059-1.151-1.816 0-3.158.521-4.025 1.564-.867 1.043-1.301 2.648-1.301 4.816v10.758h-2.918v-12.533c0-1.535-.328-2.687-.984-3.454-.656-.768-1.682-1.151-3.076-1.151-1.828 0-3.167.548-4.017 1.644-.85 1.096-1.274 2.892-1.274 5.388v10.107h-2.918v-19.266h2.373l.475 2.637h.141c.551-.938 1.327-1.67 2.329-2.197 1.002-.527 2.124-.791 3.366-.791 3.012 0 4.98 1.09 5.906 3.27h.141c.574-1.008 1.406-1.805 2.496-2.391 1.09-.586 2.332-.879 3.727-.879 2.18 0 3.812.56 4.896 1.679s1.626 2.909 1.626 5.37v12.568h-2.918zm22.113 0v-12.463c0-1.57-.357-2.742-1.072-3.516-.715-.773-1.834-1.16-3.357-1.16-2.016 0-3.492.545-4.43 1.635-.938 1.09-1.406 2.889-1.406 5.396v10.107h-2.918v-19.266h2.373l.475 2.637h.141c.598-.949 1.436-1.685 2.514-2.206 1.078-.521 2.279-.782 3.604-.782 2.32 0 4.066.56 5.238 1.679 1.172 1.119 1.758 2.909 1.758 5.37v12.568h-2.918zm25.541-9.65c0 3.141-.791 5.593-2.373 7.356-1.582 1.764-3.768 2.646-6.557 2.646-1.723 0-3.252-.404-4.588-1.213-1.336-.809-2.367-1.969-3.094-3.48-.727-1.512-1.09-3.281-1.09-5.309 0-3.141.785-5.587 2.355-7.339 1.57-1.752 3.75-2.628 6.539-2.628 2.695 0 4.837.896 6.425 2.689 1.588 1.793 2.382 4.219 2.382 7.277zm-14.678 0c0 2.461.492 4.336 1.477 5.625.984 1.289 2.432 1.934 4.342 1.934 1.91 0 3.36-.642 4.351-1.925.99-1.283 1.485-3.161 1.485-5.634 0-2.449-.495-4.31-1.485-5.581-.99-1.271-2.452-1.907-4.386-1.907-1.91 0-3.352.627-4.324 1.881-.973 1.254-1.459 3.123-1.459 5.607zm28.758 10.002c-1.254 0-2.399-.231-3.437-.694-1.037-.463-1.907-1.175-2.61-2.136h-.211c.141 1.125.211 2.191.211 3.199v7.928h-2.918v-27.914h2.373l.404 2.637h.141c.75-1.055 1.623-1.816 2.619-2.285.996-.469 2.139-.703 3.428-.703 2.555 0 4.526.873 5.915 2.619 1.389 1.746 2.083 4.195 2.083 7.348 0 3.164-.706 5.622-2.118 7.374-1.412 1.752-3.372 2.628-5.88 2.628zm-.422-17.49c-1.969 0-3.393.545-4.271 1.635-.879 1.09-1.33 2.824-1.354 5.203v.65c0 2.707.451 4.644 1.354 5.81.902 1.166 2.35 1.749 4.342 1.749 1.664 0 2.968-.674 3.911-2.021.943-1.348 1.415-3.205 1.415-5.572 0-2.402-.472-4.245-1.415-5.528-.943-1.283-2.27-1.925-3.981-1.925zm20.795 15.047c1.945 0 3.363-.521 4.254-1.564.891-1.043 1.365-2.801 1.424-5.273v-.65c0-2.695-.457-4.635-1.371-5.818-.914-1.184-2.361-1.775-4.342-1.775-1.711 0-3.021.665-3.929 1.995-.908 1.33-1.362 3.208-1.362 5.634s.448 4.274 1.345 5.546c.896 1.271 2.224 1.907 3.981 1.907zm-.439 2.443c-2.484 0-4.424-.873-5.818-2.619-1.395-1.746-2.092-4.184-2.092-7.313 0-3.152.703-5.613 2.109-7.383 1.406-1.77 3.363-2.654 5.871-2.654 2.637 0 4.664.996 6.082 2.988h.158l.422-2.637h2.303v27.914h-2.918v-8.244c0-1.172.064-2.168.193-2.988h-.229c-1.348 1.957-3.375 2.936-6.082 2.936zm17.965-19.617v12.498c0 1.57.357 2.742 1.072 3.516.715.773 1.834 1.16 3.357 1.16 2.016 0 3.489-.551 4.421-1.652.932-1.102 1.397-2.9 1.397-5.396v-10.125h2.918v19.266h-2.408l-.422-2.584h-.158c-.598.949-1.427 1.676-2.487 2.18-1.061.504-2.271.756-3.63.756-2.344 0-4.099-.557-5.265-1.67-1.166-1.113-1.749-2.895-1.749-5.344v-12.604h2.953zm28.143-.352c.855 0 1.623.07 2.303.211l-.404 2.707c-.797-.176-1.5-.264-2.109-.264-1.559 0-2.892.633-3.999 1.898-1.107 1.266-1.661 2.842-1.661 4.729v10.336h-2.918v-19.266h2.408l.334 3.568h.141c.715-1.254 1.576-2.221 2.584-2.9 1.008-.68 2.115-1.02 3.322-1.02zm18.334 14.361c0 1.793-.668 3.176-2.004 4.148-1.336.973-3.211 1.459-5.625 1.459-2.555 0-4.547-.404-5.977-1.213v-2.707c.926.469 1.919.838 2.979 1.107 1.061.27 2.083.404 3.067.404 1.523 0 2.695-.243 3.516-.729.82-.486 1.23-1.228 1.23-2.224 0-.75-.325-1.392-.976-1.925-.65-.533-1.919-1.163-3.806-1.89-1.793-.668-3.067-1.251-3.823-1.749-.756-.498-1.318-1.063-1.688-1.696-.369-.633-.554-1.389-.554-2.268 0-1.57.639-2.81 1.916-3.718 1.277-.908 3.029-1.362 5.256-1.362 2.074 0 4.102.422 6.082 1.266l-1.037 2.373c-1.934-.797-3.686-1.195-5.256-1.195-1.383 0-2.426.217-3.129.65-.703.434-1.055 1.031-1.055 1.793 0 .516.132.955.396 1.318.264.363.688.709 1.274 1.037.586.328 1.711.803 3.375 1.424 2.285.832 3.829 1.67 4.632 2.514.803.844 1.204 1.904 1.204 3.182zm10.969 3.199c.516 0 1.014-.038 1.494-.114.48-.076.861-.155 1.143-.237v2.232c-.316.152-.782.278-1.397.378-.615.1-1.169.149-1.661.149-3.727 0-5.59-1.963-5.59-5.889v-11.461h-2.76v-1.406l2.76-1.213 1.23-4.113h1.688v4.465h5.59v2.268h-5.59v11.338c0 1.16.275 2.051.826 2.672.551.621 1.307.932 2.268.932zm9.229-17.209v12.498c0 1.57.357 2.742 1.072 3.516.715.773 1.834 1.16 3.357 1.16 2.016 0 3.489-.551 4.421-1.652.932-1.102 1.397-2.9 1.397-5.396v-10.125h2.918v19.266h-2.408l-.422-2.584h-.158c-.598.949-1.427 1.676-2.487 2.18-1.061.504-2.271.756-3.63.756-2.344 0-4.099-.557-5.265-1.67-1.166-1.113-1.749-2.895-1.749-5.344v-12.604h2.953zm23.572 19.266l-7.313-19.266h3.129l4.148 11.426c.938 2.672 1.488 4.406 1.652 5.203h.141c.129-.621.536-1.907 1.222-3.858.686-1.951 2.224-6.208 4.614-12.771h3.129l-7.313 19.266h-3.41zm29.549 0l-3.533-11.303c-.223-.691-.639-2.262-1.248-4.711h-.141c-.469 2.051-.879 3.633-1.23 4.746l-3.639 11.268h-3.375l-5.256-19.266h3.059c1.242 4.84 2.188 8.525 2.839 11.057.65 2.531 1.022 4.236 1.116 5.115h.141c.129-.668.337-1.532.624-2.593s.536-1.901.747-2.522l3.533-11.057h3.164l3.445 11.057c.656 2.016 1.102 3.709 1.336 5.08h.141c.047-.422.173-1.072.378-1.951.205-.879 1.427-5.607 3.665-14.186h3.023l-5.326 19.266h-3.463zm16.91-9.861l-6.697-9.404h3.322l5.08 7.383 5.063-7.383h3.287l-6.697 9.404 7.049 9.861h-3.305l-5.396-7.805-5.449 7.805h-3.305l7.049-9.861zm11.162-9.404h3.129l4.219 10.986c.926 2.508 1.5 4.318 1.723 5.432h.141c.152-.598.472-1.62.958-3.067s2.077-5.897 4.772-13.351h3.129l-8.279 21.938c-.82 2.168-1.778 3.706-2.874 4.614-1.096.908-2.44 1.362-4.034 1.362-.891 0-1.77-.1-2.637-.299v-2.338c.645.141 1.365.211 2.162.211 2.004 0 3.434-1.125 4.289-3.375l1.072-2.742-7.77-19.371zm33.521 19.266h-13.975v-1.986l10.512-15.012h-9.861v-2.268h13.061v2.268l-10.371 14.73h10.635v2.268z" opacity=".9" fill="#292929" sketch:type="MSShapeGroup"/><path d="M14.756 186.842c0 2.363-.586 4.18-1.758 5.449-1.172 1.27-2.852 1.904-5.039 1.904-2.188 0-3.867-.635-5.039-1.904-1.172-1.27-1.758-3.092-1.758-5.469 0-2.376.588-4.191 1.763-5.444 1.175-1.253 2.86-1.88 5.054-1.88 2.194 0 3.872.632 5.034 1.895s1.743 3.079 1.743 5.449zm-10.42 0c0 1.595.303 2.796.908 3.604.605.807 1.51 1.211 2.715 1.211 2.415 0 3.623-1.605 3.623-4.814 0-3.216-1.201-4.824-3.604-4.824-1.204 0-2.113.405-2.725 1.216-.612.811-.918 2.013-.918 3.608zm19.141 7.354c-1.283 0-2.288-.465-3.018-1.396h-.156c.104.911.156 1.439.156 1.582v4.424h-2.979v-15.723h2.422l.42 1.416h.137c.697-1.081 1.729-1.621 3.096-1.621 1.289 0 2.298.498 3.027 1.494.729.996 1.094 2.38 1.094 4.15 0 1.165-.171 2.178-.513 3.037-.342.859-.828 1.514-1.46 1.963-.632.449-1.374.674-2.227.674zm-.879-8.936c-.736 0-1.273.226-1.611.679-.339.452-.514 1.2-.527 2.241v.322c0 1.172.174 2.012.522 2.52.348.508.9.762 1.655.762 1.335 0 2.002-1.1 2.002-3.301 0-1.074-.164-1.88-.493-2.417-.329-.537-.845-.806-1.548-.806zm12.061-.264c-.632 0-1.126.2-1.484.601-.358.4-.563.968-.615 1.704h4.18c-.013-.736-.205-1.304-.576-1.704-.371-.4-.872-.601-1.504-.601zm.42 9.199c-1.758 0-3.132-.485-4.121-1.455-.99-.97-1.484-2.344-1.484-4.121 0-1.829.457-3.244 1.372-4.243.915-.999 2.179-1.499 3.794-1.499 1.543 0 2.744.439 3.604 1.318.859.879 1.289 2.093 1.289 3.643v1.445h-7.041c.033.846.283 1.507.752 1.982.469.475 1.126.713 1.973.713.658 0 1.279-.068 1.865-.205.586-.137 1.198-.355 1.836-.654v2.305c-.521.26-1.077.454-1.67.581-.592.127-1.315.19-2.168.19zm16.953-.195h-2.979v-6.377c0-.788-.14-1.379-.42-1.772-.28-.394-.726-.591-1.338-.591-.833 0-1.436.278-1.807.835-.371.557-.557 1.479-.557 2.769v5.137h-2.979v-10.918h2.275l.4 1.396h.166c.332-.527.789-.926 1.372-1.196.583-.27 1.245-.405 1.987-.405 1.27 0 2.233.343 2.891 1.03.658.687.986 1.678.986 2.974v7.119zm11.729-3.965c0 1.289-.464 2.305-1.392 3.047-.928.742-2.218 1.113-3.872 1.113-1.523 0-2.871-.286-4.043-.859v-2.813c.964.43 1.779.732 2.446.908.667.176 1.278.264 1.831.264.664 0 1.174-.127 1.528-.381.355-.254.532-.632.532-1.133 0-.28-.078-.529-.234-.747-.156-.218-.386-.428-.688-.63-.303-.202-.92-.524-1.851-.967-.872-.41-1.527-.804-1.963-1.182-.436-.378-.785-.817-1.045-1.318-.26-.501-.391-1.087-.391-1.758 0-1.263.428-2.256 1.284-2.979.856-.723 2.039-1.084 3.55-1.084.742 0 1.45.088 2.124.264.674.176 1.379.423 2.114.742l-.977 2.354c-.762-.313-1.392-.531-1.89-.654-.498-.124-.988-.186-1.47-.186-.573 0-1.012.133-1.318.4-.306.267-.459.615-.459 1.045 0 .267.062.5.186.698.124.199.321.391.591.576.27.186.91.519 1.919 1.001 1.335.638 2.249 1.278 2.744 1.919.495.641.742 1.427.742 2.358zm9.287 3.965l-.576-1.484h-.078c-.501.632-1.017 1.069-1.548 1.313-.531.244-1.222.366-2.075.366-1.048 0-1.873-.299-2.476-.898-.602-.599-.903-1.452-.903-2.559 0-1.159.405-2.013 1.216-2.563.811-.55 2.033-.854 3.667-.913l1.895-.059v-.479c0-1.107-.566-1.66-1.699-1.66-.872 0-1.898.264-3.076.791l-.986-2.012c1.257-.658 2.65-.986 4.18-.986 1.465 0 2.588.319 3.369.957.781.638 1.172 1.608 1.172 2.91v7.275h-2.08zm-.879-5.059l-1.152.039c-.866.026-1.51.182-1.934.469-.423.286-.635.723-.635 1.309 0 .84.482 1.26 1.445 1.26.69 0 1.242-.199 1.655-.596.413-.397.62-.924.62-1.582v-.898zm16.104 5.059h-2.979v-6.377c0-.788-.14-1.379-.42-1.772-.28-.394-.726-.591-1.338-.591-.833 0-1.436.278-1.807.835-.371.557-.557 1.479-.557 2.769v5.137h-2.979v-10.918h2.275l.4 1.396h.166c.332-.527.789-.926 1.372-1.196.583-.27 1.245-.405 1.987-.405 1.27 0 2.233.343 2.891 1.03.658.687.986 1.678.986 2.974v7.119zm10.684-3.242c0 1.12-.389 1.973-1.167 2.559-.778.586-1.942.879-3.491.879-.794 0-1.471-.054-2.031-.161-.56-.107-1.084-.265-1.572-.474v-2.461c.553.26 1.177.479 1.87.654.693.176 1.304.264 1.831.264 1.081 0 1.621-.312 1.621-.938 0-.234-.072-.425-.215-.571-.143-.146-.391-.312-.742-.498-.352-.186-.82-.402-1.406-.649-.84-.352-1.457-.677-1.851-.977-.394-.299-.68-.643-.859-1.03-.179-.387-.269-.864-.269-1.431 0-.97.376-1.72 1.128-2.251.752-.531 1.818-.796 3.198-.796 1.315 0 2.594.286 3.838.859l-.898 2.148c-.547-.234-1.058-.426-1.533-.576-.475-.15-.96-.225-1.455-.225-.879 0-1.318.238-1.318.713 0 .267.142.498.425.693.283.195.903.485 1.86.869.853.345 1.478.667 1.875.967.397.299.69.645.879 1.035.189.391.283.856.283 1.396z" fill="#229EE0" sketch:type="MSShapeGroup"/></g></svg>