<svg width="610" height="200" xmlns="http://www.w3.org/2000/svg" xmlns:sketch="http://www.bohemiancoding.com/sketch/ns"><title>Artboard 1</title><desc>Created with Sketch.</desc><g sketch:type="MSArtboardGroup" fill="none"><path d="M16.014 27.93h-10.441l-3.586 9.07h-1.986l10.336-25.805h1.143l10.125 25.805h-2.021l-3.568-9.07zm-9.791-1.617h9.193l-3.498-9.264c-.293-.727-.645-1.734-1.055-3.023-.316 1.125-.662 2.145-1.037 3.059l-3.604 9.229zm19.02-15.012h7.049c3.176 0 5.508.539 6.996 1.617 1.488 1.078 2.232 2.707 2.232 4.887 0 1.488-.454 2.728-1.362 3.718-.908.99-2.235 1.626-3.981 1.907v.105c2.051.305 3.56.952 4.526 1.942.967.99 1.45 2.37 1.45 4.14 0 2.367-.785 4.189-2.355 5.467-1.57 1.277-3.797 1.916-6.68 1.916h-7.875v-25.699zm1.793 11.443h5.66c2.414 0 4.169-.401 5.265-1.204 1.096-.803 1.644-2.06 1.644-3.771 0-1.711-.618-2.953-1.854-3.727-1.236-.773-3.079-1.16-5.528-1.16h-5.186v9.861zm0 1.582v11.092h6.047c4.758 0 7.137-1.934 7.137-5.801 0-3.527-2.508-5.291-7.523-5.291h-5.66zm31.746-11.777c-3.223 0-5.76 1.031-7.611 3.094-1.852 2.063-2.777 4.887-2.777 8.473 0 3.668.873 6.516 2.619 8.543 1.746 2.027 4.242 3.041 7.488 3.041 2.156 0 4.137-.275 5.941-.826v1.582c-1.699.598-3.82.896-6.363.896-3.609 0-6.451-1.166-8.525-3.498-2.074-2.332-3.111-5.59-3.111-9.773 0-2.613.495-4.916 1.485-6.908.99-1.992 2.414-3.53 4.271-4.614 1.857-1.084 4.017-1.626 6.478-1.626 2.508 0 4.752.469 6.732 1.406l-.721 1.617c-1.875-.938-3.844-1.406-5.906-1.406zm30.902 11.355c0 4.313-1.131 7.573-3.393 9.782-2.262 2.209-5.584 3.313-9.967 3.313h-6.152v-25.699h6.943c4.102 0 7.222 1.072 9.36 3.217 2.139 2.145 3.208 5.273 3.208 9.387zm-1.951.07c0-3.68-.935-6.448-2.804-8.306-1.869-1.857-4.614-2.786-8.235-2.786h-4.729v22.535h4.254c7.676 0 11.514-3.814 11.514-11.443zm21.902 13.025h-14.045v-25.699h14.045v1.652h-12.252v9.721h11.566v1.652h-11.566v11.021h12.252v1.652zm7.611 0h-1.793v-25.699h14.08v1.652h-12.287v10.898h11.602v1.67h-11.602v11.479zm26.385-12.955h9.475v11.725c-2.484 1.055-5.279 1.582-8.385 1.582-4.055 0-7.163-1.145-9.325-3.437-2.162-2.291-3.243-5.534-3.243-9.729 0-2.613.536-4.931 1.608-6.952s2.607-3.583 4.605-4.685c1.998-1.102 4.292-1.652 6.882-1.652 2.801 0 5.314.516 7.541 1.547l-.721 1.617c-2.227-1.031-4.535-1.547-6.926-1.547-3.387 0-6.073 1.046-8.06 3.138-1.986 2.092-2.979 4.913-2.979 8.464 0 3.867.943 6.776 2.83 8.728 1.887 1.951 4.658 2.927 8.314 2.927 2.367 0 4.377-.334 6.029-1.002v-9.035h-7.646v-1.688zm34.541 12.955h-1.811v-12.639h-15.012v12.639h-1.793v-25.699h1.793v11.408h15.012v-11.408h1.811v25.699zm7.277 0v-25.699h1.793v25.699h-1.793zm4.852 6.486c-1.078 0-1.963-.158-2.654-.475v-1.547c.914.234 1.787.352 2.619.352 2.836 0 4.254-1.547 4.254-4.641v-25.875h1.793v25.699c0 4.324-2.004 6.486-6.012 6.486zm30.393-6.486h-2.197l-9.861-13.57-3.428 3.023v10.547h-1.793v-25.699h1.793v13.359l2.848-2.848 10.072-10.512h2.285l-10.529 10.863 10.811 14.836zm3.639 0v-25.699h1.793v24.012h12.252v1.688h-14.045zm29.777 0l-9.58-23.73h-.141c.094 1.453.141 2.941.141 4.465v19.266h-1.723v-25.699h2.777l9.105 22.605h.105l9.105-22.605h2.707v25.699h-1.811v-19.477c0-1.359.07-2.766.211-4.219h-.141l-9.615 23.695h-1.143zm38.443 0h-1.811l-15.223-22.816h-.141c.141 2.719.211 4.77.211 6.152v16.664h-1.723v-25.699h1.793l15.205 22.781h.105c-.105-2.109-.158-4.113-.158-6.012v-16.77h1.74v25.699zm28.881-12.885c0 4.078-1.02 7.304-3.059 9.677-2.039 2.373-4.852 3.56-8.438 3.56-3.574 0-6.381-1.187-8.42-3.56-2.039-2.373-3.059-5.61-3.059-9.712 0-4.09 1.028-7.31 3.085-9.659 2.057-2.35 4.866-3.524 8.429-3.524 3.586 0 6.393 1.181 8.42 3.542 2.027 2.361 3.041 5.587 3.041 9.677zm-21.023 0c0 3.68.82 6.524 2.461 8.534 1.641 2.01 3.996 3.015 7.066 3.015 3.094 0 5.458-.996 7.093-2.988 1.635-1.992 2.452-4.846 2.452-8.561 0-3.703-.817-6.542-2.452-8.517-1.635-1.975-3.987-2.962-7.058-2.962-3.059 0-5.417.996-7.075 2.988-1.658 1.992-2.487 4.822-2.487 8.49zm42.398-5.432c0 2.484-.844 4.389-2.531 5.713-1.688 1.324-4.078 1.986-7.172 1.986h-3.973v10.617h-1.793v-25.699h6.293c6.117 0 9.176 2.461 9.176 7.383zm-13.676 6.152h3.533c2.895 0 4.986-.478 6.275-1.433 1.289-.955 1.934-2.505 1.934-4.649 0-1.98-.609-3.448-1.828-4.403-1.219-.955-3.105-1.433-5.66-1.433h-4.254v11.918zm40.869-.721c0 3.445-.738 6.296-2.215 8.552-1.477 2.256-3.521 3.7-6.135 4.333l5.854 6.117h-2.918l-4.957-5.801-.58.035h-.545c-3.574 0-6.381-1.187-8.42-3.56-2.039-2.373-3.059-5.61-3.059-9.712 0-4.09 1.028-7.31 3.085-9.659 2.057-2.35 4.866-3.524 8.429-3.524 3.586 0 6.393 1.181 8.42 3.542 2.027 2.361 3.041 5.587 3.041 9.677zm-21.023 0c0 3.68.82 6.524 2.461 8.534 1.641 2.01 3.996 3.015 7.066 3.015 3.094 0 5.458-.996 7.093-2.988 1.635-1.992 2.452-4.846 2.452-8.561 0-3.703-.817-6.542-2.452-8.517-1.635-1.975-3.987-2.962-7.058-2.962-3.059 0-5.417.996-7.075 2.988-1.658 1.992-2.487 4.822-2.487 8.49zm28.723 1.688v11.197h-1.793v-25.699h6.117c3.188 0 5.543.589 7.066 1.767 1.523 1.178 2.285 2.95 2.285 5.317 0 1.723-.454 3.176-1.362 4.359-.908 1.184-2.288 2.033-4.14 2.549l6.979 11.707h-2.145l-6.627-11.197h-6.381zm0-1.547h4.904c2.168 0 3.85-.483 5.045-1.45 1.195-.967 1.793-2.394 1.793-4.28 0-1.957-.586-3.381-1.758-4.271-1.172-.891-3.082-1.336-5.73-1.336h-4.254v11.338zm33.785 6.117c0 2.145-.788 3.844-2.364 5.098-1.576 1.254-3.671 1.881-6.284 1.881-3.141 0-5.549-.346-7.225-1.037v-1.793c1.852.785 4.213 1.178 7.084 1.178 2.109 0 3.782-.483 5.019-1.45 1.236-.967 1.854-2.235 1.854-3.806 0-.973-.205-1.778-.615-2.417-.41-.639-1.078-1.222-2.004-1.749-.926-.527-2.285-1.096-4.078-1.705-2.625-.902-4.438-1.878-5.44-2.927-1.002-1.049-1.503-2.446-1.503-4.192 0-1.922.753-3.489 2.259-4.702 1.506-1.213 3.442-1.819 5.81-1.819 2.414 0 4.682.457 6.803 1.371l-.65 1.547c-2.133-.891-4.172-1.336-6.117-1.336-1.898 0-3.41.439-4.535 1.318s-1.688 2.074-1.688 3.586c0 .949.173 1.729.519 2.338.346.609.911 1.157 1.696 1.644.785.486 2.133 1.069 4.043 1.749 2.004.691 3.51 1.362 4.518 2.013 1.008.65 1.743 1.389 2.206 2.215.463.826.694 1.825.694 2.997zm12.129 6.627h-1.811v-24.012h-8.35v-1.688h18.51v1.688h-8.35v24.012zm31.061-25.699v16.629c0 2.953-.855 5.262-2.566 6.926-1.711 1.664-4.096 2.496-7.154 2.496-2.977 0-5.3-.835-6.97-2.505s-2.505-3.999-2.505-6.987v-16.559h1.811v16.629c0 2.473.686 4.397 2.057 5.774 1.371 1.377 3.311 2.065 5.818 2.065 2.449 0 4.348-.677 5.695-2.03 1.348-1.354 2.021-3.231 2.021-5.634v-16.805h1.793zm22.184 0h1.951l-9.615 25.699h-1.582l-9.58-25.699h1.916l6.469 17.49c.984 2.637 1.646 4.617 1.986 5.941.234-.879.697-2.244 1.389-4.096l7.066-19.336zm26.068 25.699h-1.477l-5.643-19.828c-.469-1.629-.82-2.965-1.055-4.008-.188 1.02-.454 2.191-.8 3.516-.346 1.324-2.235 8.098-5.669 20.32h-1.512l-7.066-25.699h1.881l4.5 16.559.492 1.854c.152.568.29 1.102.413 1.6s.234.979.334 1.441c.1.463.19.929.272 1.397.281-1.594.879-4.014 1.793-7.26l4.395-15.592h1.986l5.15 17.895c.598 2.063 1.025 3.727 1.283 4.992.152-.844.349-1.74.589-2.689.24-.949 2.048-7.682 5.423-20.197h1.811l-7.102 25.699zm27.369 0h-2.057l-7.594-11.988-7.734 11.988h-1.986l8.648-13.395-7.857-12.305h2.021l6.943 11.004 7.049-11.004h1.916l-7.963 12.27 8.613 13.43zm9.545-11.637l7.523-14.063h1.934l-8.561 15.768v9.932h-1.846v-9.791l-8.596-15.908h2.057l7.488 14.063zm28.758 11.637h-17.859v-1.336l15.047-22.676h-14.361v-1.688h16.77v1.336l-15.082 22.676h15.486v1.688z" opacity=".9" fill="#292929" sketch:type="MSShapeGroup"/><path d="M18.545 144.08c0 4.512-.688 7.852-2.065 10.02-1.377 2.168-3.46 3.252-6.249 3.252-2.684 0-4.723-1.116-6.117-3.349-1.395-2.232-2.092-5.54-2.092-9.923 0-4.477.677-7.793 2.03-9.949 1.354-2.156 3.413-3.234 6.179-3.234 2.707 0 4.77 1.116 6.188 3.349 1.418 2.232 2.127 5.511 2.127 9.835zm-14.625 0c0 3.984.521 6.929 1.564 8.833 1.043 1.904 2.625 2.856 4.746 2.856 2.215 0 3.829-.984 4.843-2.953 1.014-1.969 1.521-4.881 1.521-8.736 0-3.797-.507-6.68-1.521-8.648-1.014-1.969-2.628-2.953-4.843-2.953s-3.82.984-4.816 2.953c-.996 1.969-1.494 4.852-1.494 8.648zm28.617 12.92h-1.723v-18.721c0-1.699.07-3.463.211-5.291-.176.176-.357.346-.545.51-.188.164-1.998 1.588-5.432 4.271l-1.002-1.248 6.979-5.221h1.512v25.699zm26.631 0h-16.084v-1.547l6.838-7.137c1.922-1.992 3.27-3.516 4.043-4.57.773-1.055 1.342-2.062 1.705-3.023.363-.961.545-1.969.545-3.023 0-1.535-.504-2.783-1.512-3.744-1.008-.961-2.314-1.441-3.92-1.441-2.145 0-4.195.779-6.152 2.338l-.949-1.213c2.145-1.805 4.523-2.707 7.137-2.707 2.238 0 3.999.598 5.282 1.793 1.283 1.195 1.925 2.842 1.925 4.939 0 1.699-.431 3.343-1.292 4.931s-2.435 3.548-4.72 5.88l-6.592 6.768v.07h13.746v1.688zm19.688-19.652c0 1.594-.501 2.936-1.503 4.025-1.002 1.09-2.347 1.787-4.034 2.092v.105c2.063.258 3.633.914 4.711 1.969 1.078 1.055 1.617 2.473 1.617 4.254 0 2.402-.817 4.263-2.452 5.581-1.635 1.318-3.987 1.978-7.058 1.978-2.613 0-4.893-.486-6.838-1.459v-1.74c.984.516 2.089.92 3.313 1.213 1.225.293 2.376.439 3.454.439 2.59 0 4.535-.524 5.836-1.573 1.301-1.049 1.951-2.528 1.951-4.438 0-1.699-.665-3.006-1.995-3.92-1.33-.914-3.284-1.371-5.862-1.371h-2.777v-1.688h2.813c2.133 0 3.823-.507 5.071-1.521 1.248-1.014 1.872-2.388 1.872-4.122 0-1.43-.507-2.575-1.521-3.437-1.014-.861-2.341-1.292-3.981-1.292-1.277 0-2.443.179-3.498.536-1.055.357-2.238.97-3.551 1.837l-.861-1.178c.996-.832 2.197-1.491 3.604-1.978 1.406-.486 2.83-.729 4.271-.729 2.367 0 4.195.56 5.484 1.679 1.289 1.119 1.934 2.698 1.934 4.737zm23.396 13.096h-4.43v6.557h-1.652v-6.557h-13.219v-1.178l12.744-18.105h2.127v17.771h4.43v1.512zm-6.082-1.512v-7.348c0-3.539.082-6.51.246-8.912h-.141c-.234.434-.955 1.535-2.162 3.305l-9.07 12.955h11.127zm16.014-7.383c2.742 0 4.901.662 6.478 1.986 1.576 1.324 2.364 3.146 2.364 5.467 0 2.637-.82 4.687-2.461 6.152-1.641 1.465-3.902 2.197-6.785 2.197-1.277 0-2.49-.126-3.639-.378-1.148-.252-2.109-.612-2.883-1.081v-1.811c1.266.645 2.391 1.093 3.375 1.345s2.033.378 3.146.378c2.25 0 4.055-.595 5.414-1.784s2.039-2.798 2.039-4.825c0-1.91-.662-3.41-1.986-4.5-1.324-1.09-3.123-1.635-5.396-1.635-1.523 0-3.117.229-4.781.686l-1.055-.686 1.02-11.76h12.375v1.688h-10.723l-.791 9.07c1.828-.34 3.258-.51 4.289-.51zm13.412 4.5c0-3.34.454-6.149 1.362-8.429.908-2.279 2.197-3.97 3.867-5.071 1.67-1.102 3.683-1.652 6.038-1.652 1.102 0 2.109.135 3.023.404v1.547c-.855-.316-1.887-.475-3.094-.475-2.895 0-5.147 1.043-6.759 3.129-1.611 2.086-2.517 5.121-2.716 9.105h.229c.891-1.148 1.91-2.016 3.059-2.602 1.148-.586 2.361-.879 3.639-.879 2.402 0 4.28.686 5.634 2.057s2.03 3.264 2.03 5.678c0 2.625-.712 4.696-2.136 6.214-1.424 1.518-3.343 2.276-5.757 2.276-2.602 0-4.655-.993-6.161-2.979-1.506-1.986-2.259-4.761-2.259-8.323zm8.42 9.756c1.922 0 3.416-.604 4.482-1.811 1.066-1.207 1.6-2.93 1.6-5.168 0-1.969-.527-3.504-1.582-4.605-1.055-1.102-2.49-1.652-4.307-1.652-1.195 0-2.306.264-3.331.791s-1.843 1.228-2.452 2.101-.914 1.767-.914 2.681c0 1.301.29 2.552.87 3.753.58 1.201 1.365 2.153 2.355 2.856.99.703 2.083 1.055 3.278 1.055zm15.697 1.195l10.582-24.012h-14.537v-1.688h16.629v1.283l-10.617 24.416h-2.057zm24.908-26.139c2.18 0 3.935.557 5.265 1.67 1.33 1.113 1.995 2.619 1.995 4.518 0 1.313-.413 2.473-1.239 3.48-.826 1.008-2.165 1.939-4.017 2.795 2.25.926 3.832 1.939 4.746 3.041.914 1.102 1.371 2.437 1.371 4.008 0 2.121-.741 3.814-2.224 5.08-1.482 1.266-3.472 1.898-5.968 1.898-2.59 0-4.576-.592-5.959-1.775-1.383-1.184-2.074-2.906-2.074-5.168 0-1.535.486-2.883 1.459-4.043.973-1.16 2.479-2.15 4.518-2.971-1.887-.891-3.217-1.831-3.99-2.821-.773-.99-1.16-2.177-1.16-3.56 0-1.23.311-2.312.932-3.243.621-.932 1.491-1.649 2.61-2.153 1.119-.504 2.364-.756 3.735-.756zm-6.311 19.811c0 1.617.548 2.871 1.644 3.762 1.096.891 2.628 1.336 4.597 1.336 1.922 0 3.469-.472 4.641-1.415 1.172-.943 1.758-2.224 1.758-3.841 0-1.453-.46-2.634-1.38-3.542-.92-.908-2.692-1.86-5.317-2.856-2.156.832-3.686 1.752-4.588 2.76-.902 1.008-1.354 2.273-1.354 3.797zm6.275-18.229c-1.652 0-2.979.407-3.981 1.222-1.002.814-1.503 1.931-1.503 3.349 0 .82.185 1.544.554 2.171.369.627.902 1.195 1.6 1.705.697.51 1.866 1.104 3.507 1.784 1.91-.738 3.281-1.553 4.113-2.443.832-.891 1.248-1.963 1.248-3.217 0-1.406-.495-2.52-1.485-3.34-.99-.82-2.341-1.23-4.052-1.23zm28.564 9.756c0 3.375-.442 6.199-1.327 8.473-.885 2.273-2.174 3.955-3.867 5.045-1.693 1.09-3.741 1.635-6.144 1.635-1.219 0-2.344-.152-3.375-.457v-1.512c.504.164 1.11.29 1.819.378.709.088 1.251.132 1.626.132 2.895 0 5.162-1.046 6.803-3.138 1.641-2.092 2.555-5.142 2.742-9.149h-.211c-.855 1.125-1.875 1.989-3.059 2.593-1.184.604-2.42.905-3.709.905-2.379 0-4.233-.656-5.563-1.969-1.33-1.313-1.995-3.176-1.995-5.59 0-2.578.729-4.664 2.188-6.258 1.459-1.594 3.354-2.391 5.687-2.391 1.688 0 3.164.442 4.43 1.327 1.266.885 2.241 2.183 2.927 3.894.686 1.711 1.028 3.738 1.028 6.082zm-8.385-9.756c-1.852 0-3.328.624-4.43 1.872-1.102 1.248-1.652 2.956-1.652 5.124 0 2.039.51 3.586 1.529 4.641 1.02 1.055 2.479 1.582 4.377 1.582 1.184 0 2.288-.264 3.313-.791 1.025-.527 1.84-1.228 2.443-2.101.604-.873.905-1.761.905-2.663 0-1.371-.272-2.654-.817-3.85-.545-1.195-1.307-2.13-2.285-2.804-.979-.674-2.106-1.011-3.384-1.011zm13.57 23.186c0-1.148.469-1.723 1.406-1.723.961 0 1.441.574 1.441 1.723 0 1.148-.48 1.723-1.441 1.723-.938 0-1.406-.574-1.406-1.723zm10.898-2.813l.211.369c-.879 3.105-1.898 5.924-3.059 8.455h-1.143c.902-3.223 1.547-6.164 1.934-8.824h2.057zm7.875 0l.211.369c-.879 3.105-1.898 5.924-3.059 8.455h-1.143c.34-1.137.703-2.575 1.09-4.315.387-1.74.668-3.243.844-4.509h2.057zm-2.479-12.885c0-1.148.469-1.723 1.406-1.723.961 0 1.441.574 1.441 1.723 0 .621-.138 1.066-.413 1.336-.275.27-.618.404-1.028.404-.398 0-.732-.135-1.002-.404-.27-.27-.404-.715-.404-1.336zm10.863 10.441v-.65c0-1.441.22-2.619.659-3.533.439-.914 1.251-1.893 2.435-2.936l1.6-1.389c.844-.715 1.447-1.424 1.811-2.127.363-.703.545-1.512.545-2.426 0-1.488-.489-2.672-1.468-3.551s-2.265-1.318-3.858-1.318c-.926 0-1.793.103-2.602.308-.809.205-1.682.536-2.619.993l-.65-1.406c1.289-.563 2.37-.937 3.243-1.125.873-.188 1.772-.281 2.698-.281 2.145 0 3.832.577 5.063 1.731 1.23 1.154 1.846 2.739 1.846 4.755 0 .797-.105 1.494-.316 2.092-.211.598-.507 1.151-.888 1.661s-.841 1.002-1.38 1.477c-.539.475-1.137.987-1.793 1.538-.75.633-1.327 1.21-1.731 1.731-.404.521-.697 1.069-.879 1.644-.182.574-.272 1.43-.272 2.566v.246h-1.441zm-.58 5.256c0-1.148.469-1.723 1.406-1.723.961 0 1.441.574 1.441 1.723 0 1.148-.48 1.723-1.441 1.723-.938 0-1.406-.574-1.406-1.723zm15.434-5.256h-1.072l-.51-19.072h2.092l-.51 19.072zm-1.969 5.256c0-1.148.469-1.723 1.406-1.723.961 0 1.441.574 1.441 1.723 0 1.148-.48 1.723-1.441 1.723-.938 0-1.406-.574-1.406-1.723zm7.928-5.15c0-1.617.431-2.994 1.292-4.131s2.47-2.338 4.825-3.604l-1.318-1.441c-.773-.832-1.348-1.646-1.723-2.443-.375-.797-.563-1.629-.563-2.496 0-1.676.56-3.006 1.679-3.99 1.119-.984 2.622-1.477 4.509-1.477 1.816 0 3.255.475 4.315 1.424 1.061.949 1.591 2.262 1.591 3.938 0 1.23-.41 2.358-1.23 3.384-.82 1.025-2.303 2.165-4.447 3.419l7.945 8.033c.715-.844 1.324-1.764 1.828-2.76.504-.996.943-2.174 1.318-3.533h1.688c-.738 2.883-1.963 5.379-3.674 7.488l4.676 4.711h-2.373l-3.393-3.463c-1.078 1.055-2.039 1.825-2.883 2.312-.844.486-1.767.858-2.769 1.116-1.002.258-2.142.387-3.419.387-2.449 0-4.374-.604-5.774-1.811-1.4-1.207-2.101-2.895-2.101-5.063zm7.998 5.291c1.5 0 2.874-.255 4.122-.765 1.248-.51 2.476-1.368 3.683-2.575l-8.49-8.525c-1.594.844-2.745 1.562-3.454 2.153-.709.592-1.225 1.233-1.547 1.925-.322.691-.483 1.5-.483 2.426 0 1.676.545 2.988 1.635 3.938 1.09.949 2.602 1.424 4.535 1.424zm-3.604-19.441c0 .926.234 1.781.703 2.566.469.785 1.359 1.805 2.672 3.059 1.863-.996 3.158-1.928 3.885-2.795.727-.867 1.09-1.857 1.09-2.971 0-1.102-.363-1.995-1.09-2.681-.727-.686-1.711-1.028-2.953-1.028-1.336 0-2.388.34-3.155 1.02-.768.68-1.151 1.623-1.151 2.83zm49.025 7.928c0 2.672-.53 4.816-1.591 6.434-1.061 1.617-2.499 2.426-4.315 2.426-1.043 0-1.89-.316-2.54-.949-.65-.633-1.028-1.494-1.134-2.584h-.07c-.504 1.172-1.23 2.054-2.18 2.646-.949.592-2.057.888-3.322.888-1.734 0-3.076-.565-4.025-1.696-.949-1.131-1.424-2.716-1.424-4.755 0-2.367.706-4.304 2.118-5.81 1.412-1.506 3.255-2.259 5.528-2.259 1.617 0 3.293.24 5.027.721l-.387 8.156v.527c0 1.219.205 2.136.615 2.751.41.615 1.09.923 2.039.923 1.207 0 2.194-.683 2.962-2.048.768-1.365 1.151-3.144 1.151-5.335 0-2.273-.463-4.266-1.389-5.977-.926-1.711-2.247-3.026-3.964-3.946-1.717-.92-3.677-1.38-5.88-1.38-2.695 0-5.071.583-7.128 1.749-2.057 1.166-3.639 2.815-4.746 4.948-1.107 2.133-1.661 4.582-1.661 7.348 0 3.773.979 6.688 2.936 8.745 1.957 2.057 4.734 3.085 8.332 3.085 1.09 0 2.194-.105 3.313-.316 1.119-.211 2.476-.621 4.069-1.23v1.74c-2.379.938-4.805 1.406-7.277 1.406-4.09 0-7.277-1.175-9.563-3.524-2.285-2.35-3.428-5.616-3.428-9.8 0-3 .636-5.698 1.907-8.095 1.271-2.396 3.07-4.257 5.396-5.581 2.326-1.324 4.954-1.986 7.884-1.986 2.52 0 4.749.521 6.688 1.564 1.939 1.043 3.434 2.534 4.482 4.474 1.049 1.939 1.573 4.187 1.573 6.741zm-18.791 2.373c0 1.676.322 2.936.967 3.779.645.844 1.664 1.266 3.059 1.266 2.988 0 4.588-2.027 4.799-6.082l.281-5.115c-.926-.316-2.057-.475-3.393-.475-1.746 0-3.135.601-4.166 1.802-1.031 1.201-1.547 2.81-1.547 4.825z" opacity=".9" fill="#292929" sketch:type="MSShapeGroup"/><path d="M14.801 87l-.439-3.023h-.141c-.961 1.23-1.948 2.101-2.962 2.61-1.014.51-2.212.765-3.595.765-1.875 0-3.334-.48-4.377-1.441-1.043-.961-1.564-2.291-1.564-3.99 0-1.863.776-3.311 2.329-4.342 1.553-1.031 3.8-1.576 6.741-1.635l3.639-.105v-1.266c0-1.816-.369-3.187-1.107-4.113-.738-.926-1.928-1.389-3.568-1.389-1.77 0-3.604.492-5.502 1.477l-.65-1.512c2.098-.984 4.172-1.477 6.223-1.477 2.098 0 3.665.545 4.702 1.635 1.037 1.09 1.556 2.789 1.556 5.098v12.709h-1.283zm-7.031-1.23c2.039 0 3.647-.583 4.825-1.749 1.178-1.166 1.767-2.786 1.767-4.86v-1.881l-3.34.141c-2.684.129-4.597.548-5.739 1.257-1.143.709-1.714 1.813-1.714 3.313 0 1.195.366 2.124 1.099 2.786.732.662 1.767.993 3.103.993zm22.57-18.246c2.672 0 4.685.841 6.038 2.522 1.354 1.682 2.03 4.14 2.03 7.374 0 3.176-.712 5.625-2.136 7.348-1.424 1.723-3.425 2.584-6.003 2.584-1.359 0-2.584-.281-3.674-.844-1.09-.563-1.951-1.359-2.584-2.391h-.158l-.492 2.883h-1.09v-27.352h1.74v6.873c0 1.031-.023 1.98-.07 2.848l-.053 1.494h.123c.727-1.148 1.603-1.992 2.628-2.531 1.025-.539 2.259-.809 3.7-.809zm-.035 1.582c-2.25 0-3.861.645-4.834 1.934-.973 1.289-1.459 3.416-1.459 6.381v.299c0 2.883.507 4.951 1.521 6.205 1.014 1.254 2.593 1.881 4.737 1.881 2.086 0 3.656-.729 4.711-2.188 1.055-1.459 1.582-3.536 1.582-6.231 0-5.52-2.086-8.279-6.258-8.279zm21.023 18.246c-2.73 0-4.869-.861-6.416-2.584-1.547-1.723-2.32-4.125-2.32-7.207 0-3.164.803-5.628 2.408-7.392 1.605-1.764 3.803-2.646 6.592-2.646 1.652 0 3.234.287 4.746.861l-.475 1.547c-1.652-.551-3.088-.826-4.307-.826-2.344 0-4.119.724-5.326 2.171-1.207 1.447-1.811 3.53-1.811 6.249 0 2.578.604 4.597 1.811 6.056 1.207 1.459 2.895 2.188 5.063 2.188 1.734 0 3.346-.311 4.834-.932v1.617c-1.219.598-2.818.896-4.799.896zm16.471-19.828c1.383 0 2.578.252 3.586.756s1.91 1.365 2.707 2.584h.105c-.07-1.477-.105-2.924-.105-4.342v-6.873h1.723v27.352h-1.143l-.439-2.918h-.141c-1.453 2.18-3.539 3.27-6.258 3.27-2.637 0-4.652-.82-6.047-2.461-1.395-1.641-2.092-4.031-2.092-7.172 0-3.305.691-5.83 2.074-7.576 1.383-1.746 3.393-2.619 6.029-2.619zm0 1.582c-2.086 0-3.653.732-4.702 2.197s-1.573 3.592-1.573 6.381c0 5.414 2.103 8.121 6.311 8.121 2.156 0 3.738-.627 4.746-1.881 1.008-1.254 1.512-3.322 1.512-6.205v-.299c0-2.953-.495-5.077-1.485-6.372-.99-1.295-2.593-1.942-4.808-1.942zm22.148 18.246c-2.777 0-4.942-.855-6.495-2.566-1.553-1.711-2.329-4.107-2.329-7.189 0-3.047.75-5.487 2.25-7.321 1.5-1.834 3.521-2.751 6.064-2.751 2.25 0 4.025.785 5.326 2.355 1.301 1.57 1.951 3.703 1.951 6.398v1.406h-13.764c.023 2.625.636 4.629 1.837 6.012s2.921 2.074 5.159 2.074c1.09 0 2.048-.076 2.874-.229.826-.152 1.872-.48 3.138-.984v1.582c-1.078.469-2.074.788-2.988.958-.914.17-1.922.255-3.023.255zm-.51-18.281c-1.84 0-3.316.606-4.43 1.819-1.113 1.213-1.764 2.962-1.951 5.247h11.813c0-2.215-.48-3.946-1.441-5.194-.961-1.248-2.291-1.872-3.99-1.872zm19.652.334h-4.5v17.596h-1.74v-17.596h-3.551v-1.02l3.551-.65v-1.477c0-2.344.431-4.063 1.292-5.159s2.27-1.644 4.228-1.644c1.055 0 2.109.158 3.164.475l-.404 1.512c-.938-.293-1.869-.439-2.795-.439-1.359 0-2.323.401-2.892 1.204-.568.803-.853 2.106-.853 3.911v1.775h4.5v1.512zm18.598-1.512v1.213l-3.955.246c1.055 1.313 1.582 2.754 1.582 4.324 0 1.84-.612 3.331-1.837 4.474-1.225 1.143-2.868 1.714-4.931 1.714-.867 0-1.477-.035-1.828-.105-.691.363-1.219.791-1.582 1.283-.363.492-.545 1.014-.545 1.564 0 .609.231 1.055.694 1.336.463.281 1.239.422 2.329.422h3.34c2.074 0 3.662.419 4.764 1.257 1.102.838 1.652 2.077 1.652 3.718 0 2.016-.817 3.571-2.452 4.667-1.635 1.096-3.964 1.644-6.987 1.644-2.402 0-4.263-.463-5.581-1.389-1.318-.926-1.978-2.215-1.978-3.867 0-1.313.407-2.402 1.222-3.27.814-.867 1.919-1.459 3.313-1.775-.574-.246-1.034-.595-1.38-1.046-.346-.451-.519-.97-.519-1.556 0-1.277.814-2.402 2.443-3.375-1.113-.457-1.98-1.175-2.602-2.153-.621-.979-.932-2.101-.932-3.366 0-1.91.606-3.442 1.819-4.597 1.213-1.154 2.851-1.731 4.913-1.731 1.254 0 2.227.123 2.918.369h6.117zm-15.469 22.342c0 2.625 1.951 3.938 5.854 3.938 5.016 0 7.523-1.6 7.523-4.799 0-1.148-.393-1.98-1.178-2.496-.785-.516-2.057-.773-3.814-.773h-3.129c-3.504 0-5.256 1.377-5.256 4.131zm1.459-16.383c0 1.477.448 2.622 1.345 3.437.896.814 2.095 1.222 3.595 1.222 1.594 0 2.815-.404 3.665-1.213.85-.809 1.274-1.98 1.274-3.516 0-1.629-.437-2.851-1.31-3.665-.873-.814-2.095-1.222-3.665-1.222-1.523 0-2.722.437-3.595 1.31-.873.873-1.31 2.089-1.31 3.647zm31.254 13.148v-12.393c0-1.922-.404-3.319-1.213-4.192-.809-.873-2.062-1.31-3.762-1.31-2.285 0-3.958.577-5.019 1.731-1.061 1.154-1.591 3.026-1.591 5.616v10.547h-1.74v-27.352h1.74v8.701l-.088 2.443h.123c.715-1.148 1.617-1.98 2.707-2.496 1.09-.516 2.443-.773 4.061-.773 4.336 0 6.504 2.326 6.504 6.979v12.498h-1.723zm9.65 0h-1.74v-19.107h1.74v19.107zm-1.986-24.416c0-1.125.369-1.688 1.107-1.688.363 0 .647.146.853.439.205.293.308.709.308 1.248 0 .527-.103.943-.308 1.248-.205.305-.489.457-.853.457-.738 0-1.107-.568-1.107-1.705zm5.836 33.064c-.938 0-1.729-.146-2.373-.439v-1.512c.809.234 1.564.352 2.268.352 1.77 0 2.654-1.031 2.654-3.094v-23.063h1.74v22.816c0 1.582-.372 2.801-1.116 3.656-.744.855-1.802 1.283-3.173 1.283zm2.303-33.064c0-1.125.369-1.688 1.107-1.688.363 0 .647.146.853.439.205.293.308.709.308 1.248 0 .527-.103.943-.308 1.248-.205.305-.489.457-.853.457-.738 0-1.107-.568-1.107-1.705zm10.09 16.031l9.756-10.723h2.109l-7.523 8.156 8.174 10.951h-2.092l-7.26-9.65-3.129 2.848v6.803h-1.74v-27.352h1.74v13.711l-.123 5.256h.088zm17.455 8.385h-1.74v-27.352h1.74v27.352zm30.27 0v-12.533c0-1.863-.363-3.223-1.09-4.078-.727-.855-1.84-1.283-3.34-1.283-1.957 0-3.404.539-4.342 1.617-.938 1.078-1.406 2.771-1.406 5.08v11.197h-1.775v-13.061c0-3.223-1.477-4.834-4.43-4.834-2.004 0-3.463.583-4.377 1.749-.914 1.166-1.371 3.032-1.371 5.599v10.547h-1.74v-19.107h1.441l.369 2.619h.105c.527-.949 1.277-1.685 2.25-2.206.973-.521 2.045-.782 3.217-.782 3.012 0 4.945 1.131 5.801 3.393h.07c.621-1.09 1.456-1.928 2.505-2.514 1.049-.586 2.241-.879 3.577-.879 2.086 0 3.65.557 4.693 1.67 1.043 1.113 1.564 2.883 1.564 5.309v12.498h-1.723zm21.234 0v-12.393c0-1.922-.404-3.319-1.213-4.192-.809-.873-2.062-1.31-3.762-1.31-2.285 0-3.958.577-5.019 1.731-1.061 1.154-1.591 3.026-1.591 5.616v10.547h-1.74v-19.107h1.477l.334 2.619h.105c1.242-1.992 3.451-2.988 6.627-2.988 4.336 0 6.504 2.326 6.504 6.979v12.498h-1.723zm23.713-9.58c0 3.117-.756 5.552-2.268 7.304-1.512 1.752-3.598 2.628-6.258 2.628-1.676 0-3.152-.404-4.43-1.213-1.277-.809-2.256-1.969-2.936-3.48-.68-1.512-1.02-3.258-1.02-5.238 0-3.117.756-5.546 2.268-7.286 1.512-1.74 3.586-2.61 6.223-2.61 2.625 0 4.685.882 6.179 2.646 1.494 1.764 2.241 4.181 2.241 7.251zm-15.082 0c0 2.625.577 4.673 1.731 6.144 1.154 1.471 2.786 2.206 4.896 2.206 2.109 0 3.741-.735 4.896-2.206 1.154-1.471 1.731-3.519 1.731-6.144 0-2.637-.583-4.682-1.749-6.135-1.166-1.453-2.804-2.18-4.913-2.18-2.109 0-3.735.724-4.878 2.171-1.143 1.447-1.714 3.495-1.714 6.144zm28.547 9.932c-2.941 0-5.086-1.102-6.434-3.305h-.123l.053 1.477c.047.867.07 1.816.07 2.848v7.277h-1.74v-27.756h1.477l.334 2.725h.105c1.313-2.063 3.41-3.094 6.293-3.094 2.578 0 4.544.847 5.897 2.54 1.354 1.693 2.03 4.157 2.03 7.392 0 3.141-.712 5.575-2.136 7.304-1.424 1.729-3.366 2.593-5.827 2.593zm-.035-1.547c1.957 0 3.472-.727 4.544-2.18 1.072-1.453 1.608-3.486 1.608-6.1 0-5.613-2.027-8.42-6.082-8.42-2.227 0-3.861.612-4.904 1.837-1.043 1.225-1.564 3.22-1.564 5.985v.563c0 2.988.501 5.121 1.503 6.398 1.002 1.277 2.634 1.916 4.896 1.916zm20.092 1.547c-2.508 0-4.453-.832-5.836-2.496-1.383-1.664-2.074-4.066-2.074-7.207 0-3.223.691-5.716 2.074-7.479 1.383-1.764 3.363-2.646 5.941-2.646 2.766 0 4.834 1.02 6.205 3.059h.105l.316-2.689h1.477v27.756h-1.723v-7.277c0-1.43.035-2.883.105-4.359h-.105c-1.383 2.227-3.545 3.34-6.486 3.34zm.035-1.547c2.32 0 3.976-.639 4.966-1.916.99-1.277 1.485-3.422 1.485-6.434v-.211c0-2.871-.498-4.945-1.494-6.223-.996-1.277-2.584-1.916-4.764-1.916-2.063 0-3.63.727-4.702 2.18-1.072 1.453-1.608 3.586-1.608 6.398 0 2.684.524 4.708 1.573 6.073 1.049 1.365 2.563 2.048 4.544 2.048zm16.102-17.912v12.375c0 1.922.404 3.319 1.213 4.192.809.873 2.062 1.31 3.762 1.31 2.273 0 3.946-.574 5.019-1.723 1.072-1.148 1.608-3.018 1.608-5.607v-10.547h1.723v19.107h-1.477l-.316-2.637h-.105c-1.242 1.992-3.451 2.988-6.627 2.988-4.348 0-6.521-2.326-6.521-6.979v-12.48h1.723zm27.246-.369c.809 0 1.676.082 2.602.246l-.334 1.67c-.797-.199-1.623-.299-2.479-.299-1.629 0-2.965.691-4.008 2.074-1.043 1.383-1.564 3.129-1.564 5.238v10.547h-1.74v-19.107h1.477l.176 3.445h.123c.785-1.406 1.623-2.394 2.514-2.962.891-.568 1.969-.853 3.234-.853zm18.334 14.502c0 1.711-.65 3.026-1.951 3.946-1.301.92-3.146 1.38-5.537 1.38-2.555 0-4.582-.393-6.082-1.178v-1.881c1.922.961 3.949 1.441 6.082 1.441 1.887 0 3.319-.313 4.298-.94.979-.627 1.468-1.462 1.468-2.505 0-.961-.39-1.77-1.169-2.426-.779-.656-2.06-1.301-3.841-1.934-1.91-.691-3.252-1.286-4.025-1.784-.773-.498-1.356-1.061-1.749-1.688s-.589-1.392-.589-2.294c0-1.43.601-2.561 1.802-3.393 1.201-.832 2.88-1.248 5.036-1.248 2.063 0 4.02.387 5.871 1.16l-.65 1.582c-1.875-.773-3.615-1.16-5.221-1.16-1.559 0-2.795.258-3.709.773-.914.516-1.371 1.23-1.371 2.145 0 .996.354 1.793 1.063 2.391.709.598 2.095 1.266 4.157 2.004 1.723.621 2.977 1.181 3.762 1.679.785.498 1.374 1.063 1.767 1.696.393.633.589 1.377.589 2.232zm9.967 3.779c1.102 0 2.062-.094 2.883-.281v1.406c-.844.281-1.816.422-2.918.422-1.688 0-2.933-.451-3.735-1.354-.803-.902-1.204-2.32-1.204-4.254v-12.34h-2.83v-1.02l2.83-.791.879-4.324h.896v4.623h5.607v1.512h-5.607v12.094c0 1.465.258 2.549.773 3.252.516.703 1.324 1.055 2.426 1.055zm8.525-17.912v12.375c0 1.922.404 3.319 1.213 4.192.809.873 2.062 1.31 3.762 1.31 2.273 0 3.946-.574 5.019-1.723 1.072-1.148 1.608-3.018 1.608-5.607v-10.547h1.723v19.107h-1.477l-.316-2.637h-.105c-1.242 1.992-3.451 2.988-6.627 2.988-4.348 0-6.521-2.326-6.521-6.979v-12.48h1.723zm23.906 19.107l-7.383-19.107h1.793l4.939 12.99c.656 1.664 1.148 3.117 1.477 4.359h.105c.48-1.594.973-3.059 1.477-4.395l4.939-12.955h1.793l-7.383 19.107h-1.758zm27.615 0l-4.184-12.779c-.27-.867-.615-2.139-1.037-3.814h-.105l-.369 1.301-.791 2.549-4.254 12.744h-1.723l-5.467-19.107h1.863l3.059 11.074c.715 2.742 1.184 4.758 1.406 6.047h.105c.691-2.742 1.195-4.564 1.512-5.467l3.938-11.654h1.582l3.744 11.619c.844 2.754 1.359 4.576 1.547 5.467h.105c.094-.762.562-2.801 1.406-6.117l2.918-10.969h1.758l-5.186 19.107h-1.828zm15.451-9.826l-6.662-9.281h2.004l5.695 8.051 5.643-8.051h1.916l-6.557 9.281 7.031 9.826h-2.021l-6.012-8.525-6.047 8.525h-1.916l6.926-9.826zm10.037-9.281h1.793l4.043 10.723c1.23 3.293 2.01 5.514 2.338 6.662h.105c.492-1.512 1.295-3.768 2.408-6.768l4.043-10.617h1.793l-8.561 22.201c-.691 1.805-1.271 3.023-1.74 3.656-.469.633-1.017 1.107-1.644 1.424-.627.316-1.386.475-2.276.475-.668 0-1.412-.123-2.232-.369v-1.512c.68.188 1.412.281 2.197.281.598 0 1.125-.141 1.582-.422.457-.281.87-.718 1.239-1.31.369-.592.797-1.529 1.283-2.813.486-1.283.8-2.118.94-2.505l-7.313-19.107zm31.605 19.107h-13.641v-1.107l11.338-16.453h-10.512v-1.547h12.779v1.107l-11.408 16.453h11.443v1.547z" opacity=".9" fill="#292929" sketch:type="MSShapeGroup"/><path d="M14.756 186.842c0 2.363-.586 4.18-1.758 5.449-1.172 1.27-2.852 1.904-5.039 1.904-2.188 0-3.867-.635-5.039-1.904-1.172-1.27-1.758-3.092-1.758-5.469 0-2.376.588-4.191 1.763-5.444 1.175-1.253 2.86-1.88 5.054-1.88 2.194 0 3.872.632 5.034 1.895s1.743 3.079 1.743 5.449zm-10.42 0c0 1.595.303 2.796.908 3.604.605.807 1.51 1.211 2.715 1.211 2.415 0 3.623-1.605 3.623-4.814 0-3.216-1.201-4.824-3.604-4.824-1.204 0-2.113.405-2.725 1.216-.612.811-.918 2.013-.918 3.608zm19.141 7.354c-1.283 0-2.288-.465-3.018-1.396h-.156c.104.911.156 1.439.156 1.582v4.424h-2.979v-15.723h2.422l.42 1.416h.137c.697-1.081 1.729-1.621 3.096-1.621 1.289 0 2.298.498 3.027 1.494.729.996 1.094 2.38 1.094 4.15 0 1.165-.171 2.178-.513 3.037-.342.859-.828 1.514-1.46 1.963-.632.449-1.374.674-2.227.674zm-.879-8.936c-.736 0-1.273.226-1.611.679-.339.452-.514 1.2-.527 2.241v.322c0 1.172.174 2.012.522 2.52.348.508.9.762 1.655.762 1.335 0 2.002-1.1 2.002-3.301 0-1.074-.164-1.88-.493-2.417-.329-.537-.845-.806-1.548-.806zm12.061-.264c-.632 0-1.126.2-1.484.601-.358.4-.563.968-.615 1.704h4.18c-.013-.736-.205-1.304-.576-1.704-.371-.4-.872-.601-1.504-.601zm.42 9.199c-1.758 0-3.132-.485-4.121-1.455-.99-.97-1.484-2.344-1.484-4.121 0-1.829.457-3.244 1.372-4.243.915-.999 2.179-1.499 3.794-1.499 1.543 0 2.744.439 3.604 1.318.859.879 1.289 2.093 1.289 3.643v1.445h-7.041c.033.846.283 1.507.752 1.982.469.475 1.126.713 1.973.713.658 0 1.279-.068 1.865-.205.586-.137 1.198-.355 1.836-.654v2.305c-.521.26-1.077.454-1.67.581-.592.127-1.315.19-2.168.19zm16.953-.195h-2.979v-6.377c0-.788-.14-1.379-.42-1.772-.28-.394-.726-.591-1.338-.591-.833 0-1.436.278-1.807.835-.371.557-.557 1.479-.557 2.769v5.137h-2.979v-10.918h2.275l.4 1.396h.166c.332-.527.789-.926 1.372-1.196.583-.27 1.245-.405 1.987-.405 1.27 0 2.233.343 2.891 1.03.658.687.986 1.678.986 2.974v7.119zm11.729-3.965c0 1.289-.464 2.305-1.392 3.047-.928.742-2.218 1.113-3.872 1.113-1.523 0-2.871-.286-4.043-.859v-2.813c.964.43 1.779.732 2.446.908.667.176 1.278.264 1.831.264.664 0 1.174-.127 1.528-.381.355-.254.532-.632.532-1.133 0-.28-.078-.529-.234-.747-.156-.218-.386-.428-.688-.63-.303-.202-.92-.524-1.851-.967-.872-.41-1.527-.804-1.963-1.182-.436-.378-.785-.817-1.045-1.318-.26-.501-.391-1.087-.391-1.758 0-1.263.428-2.256 1.284-2.979.856-.723 2.039-1.084 3.55-1.084.742 0 1.45.088 2.124.264.674.176 1.379.423 2.114.742l-.977 2.354c-.762-.313-1.392-.531-1.89-.654-.498-.124-.988-.186-1.47-.186-.573 0-1.012.133-1.318.4-.306.267-.459.615-.459 1.045 0 .267.062.5.186.698.124.199.321.391.591.576.27.186.91.519 1.919 1.001 1.335.638 2.249 1.278 2.744 1.919.495.641.742 1.427.742 2.358zm9.287 3.965l-.576-1.484h-.078c-.501.632-1.017 1.069-1.548 1.313-.531.244-1.222.366-2.075.366-1.048 0-1.873-.299-2.476-.898-.602-.599-.903-1.452-.903-2.559 0-1.159.405-2.013 1.216-2.563.811-.55 2.033-.854 3.667-.913l1.895-.059v-.479c0-1.107-.566-1.66-1.699-1.66-.872 0-1.898.264-3.076.791l-.986-2.012c1.257-.658 2.65-.986 4.18-.986 1.465 0 2.588.319 3.369.957.781.638 1.172 1.608 1.172 2.91v7.275h-2.08zm-.879-5.059l-1.152.039c-.866.026-1.51.182-1.934.469-.423.286-.635.723-.635 1.309 0 .84.482 1.26 1.445 1.26.69 0 1.242-.199 1.655-.596.413-.397.62-.924.62-1.582v-.898zm16.104 5.059h-2.979v-6.377c0-.788-.14-1.379-.42-1.772-.28-.394-.726-.591-1.338-.591-.833 0-1.436.278-1.807.835-.371.557-.557 1.479-.557 2.769v5.137h-2.979v-10.918h2.275l.4 1.396h.166c.332-.527.789-.926 1.372-1.196.583-.27 1.245-.405 1.987-.405 1.27 0 2.233.343 2.891 1.03.658.687.986 1.678.986 2.974v7.119zm10.684-3.242c0 1.12-.389 1.973-1.167 2.559-.778.586-1.942.879-3.491.879-.794 0-1.471-.054-2.031-.161-.56-.107-1.084-.265-1.572-.474v-2.461c.553.26 1.177.479 1.87.654.693.176 1.304.264 1.831.264 1.081 0 1.621-.312 1.621-.938 0-.234-.072-.425-.215-.571-.143-.146-.391-.312-.742-.498-.352-.186-.82-.402-1.406-.649-.84-.352-1.457-.677-1.851-.977-.394-.299-.68-.643-.859-1.03-.179-.387-.269-.864-.269-1.431 0-.97.376-1.72 1.128-2.251.752-.531 1.818-.796 3.198-.796 1.315 0 2.594.286 3.838.859l-.898 2.148c-.547-.234-1.058-.426-1.533-.576-.475-.15-.96-.225-1.455-.225-.879 0-1.318.238-1.318.713 0 .267.142.498.425.693.283.195.903.485 1.86.869.853.345 1.478.667 1.875.967.397.299.69.645.879 1.035.189.391.283.856.283 1.396z" fill="#229EE0" sketch:type="MSShapeGroup"/></g></svg>