<svg width="610" height="200" xmlns="http://www.w3.org/2000/svg" xmlns:sketch="http://www.bohemiancoding.com/sketch/ns"><title>Artboard 1</title><desc>Created with Sketch.</desc><g sketch:type="MSArtboardGroup" fill="none"><path d="M19.002 144.15c0 4.465-.718 7.781-2.153 9.949-1.436 2.168-3.63 3.252-6.583 3.252-2.859 0-5.027-1.119-6.504-3.357-1.477-2.238-2.215-5.52-2.215-9.844 0-4.535.718-7.878 2.153-10.028 1.436-2.15 3.624-3.226 6.565-3.226 2.871 0 5.045 1.125 6.521 3.375 1.477 2.25 2.215 5.543 2.215 9.879zm-13.271 0c0 3.504.36 6.006 1.081 7.506s1.872 2.25 3.454 2.25 2.739-.762 3.472-2.285c.732-1.523 1.099-4.014 1.099-7.471 0-3.445-.366-5.938-1.099-7.479-.732-1.541-1.89-2.312-3.472-2.312s-2.733.756-3.454 2.268c-.721 1.512-1.081 4.02-1.081 7.523zm28.529 12.85h-4.131v-16.594c0-1.98.047-3.551.141-4.711-.27.281-.601.592-.993.932-.393.34-1.708 1.418-3.946 3.234l-2.074-2.619 7.559-5.941h3.445v25.699zm25.84 0h-17.42v-3.129l6.627-6.662c1.957-2.004 3.255-3.425 3.894-4.263.639-.838 1.104-1.626 1.397-2.364.293-.738.439-1.529.439-2.373 0-1.16-.349-2.074-1.046-2.742-.697-.668-1.661-1.002-2.892-1.002-.984 0-1.937.182-2.856.545-.92.363-1.983 1.02-3.19 1.969l-2.232-2.725c1.43-1.207 2.818-2.062 4.166-2.566 1.348-.504 2.783-.756 4.307-.756 2.391 0 4.307.624 5.748 1.872 1.441 1.248 2.162 2.927 2.162 5.036 0 1.16-.208 2.262-.624 3.305-.416 1.043-1.055 2.118-1.916 3.226-.861 1.107-2.294 2.604-4.298 4.491l-4.465 4.324v.176h12.199v3.639zm19.582-19.793c0 1.629-.475 2.985-1.424 4.069s-2.285 1.813-4.008 2.188v.141c2.063.258 3.609.899 4.641 1.925 1.031 1.025 1.547 2.388 1.547 4.087 0 2.473-.873 4.38-2.619 5.722-1.746 1.342-4.23 2.013-7.453 2.013-2.848 0-5.25-.463-7.207-1.389v-3.674c1.09.539 2.244.955 3.463 1.248 1.219.293 2.391.439 3.516.439 1.992 0 3.48-.369 4.465-1.107.984-.738 1.477-1.881 1.477-3.428 0-1.371-.545-2.379-1.635-3.023-1.09-.645-2.801-.967-5.133-.967h-2.232v-3.357h2.268c4.102 0 6.152-1.418 6.152-4.254 0-1.102-.357-1.951-1.072-2.549-.715-.598-1.77-.896-3.164-.896-.973 0-1.91.138-2.813.413-.902.275-1.969.812-3.199 1.608l-2.021-2.883c2.355-1.734 5.092-2.602 8.209-2.602 2.59 0 4.611.557 6.064 1.67 1.453 1.113 2.18 2.648 2.18 4.605zm22.43 14.186h-3.463v5.607h-4.025v-5.607h-11.742v-3.182l11.742-16.98h4.025v16.734h3.463v3.428zm-7.488-3.428v-6.451c0-2.297.059-4.178.176-5.643h-.141c-.328.773-.844 1.711-1.547 2.813l-6.381 9.281h7.893zm18.422-7.014c2.59 0 4.641.686 6.152 2.057 1.512 1.371 2.268 3.24 2.268 5.607 0 2.742-.858 4.884-2.575 6.425-1.717 1.541-4.157 2.312-7.321 2.312-2.871 0-5.127-.463-6.768-1.389v-3.744c.949.539 2.039.955 3.27 1.248 1.23.293 2.373.439 3.428.439 1.863 0 3.281-.416 4.254-1.248.973-.832 1.459-2.051 1.459-3.656 0-3.07-1.957-4.605-5.871-4.605-.551 0-1.23.056-2.039.167-.809.111-1.518.237-2.127.378l-1.846-1.09.984-12.551h13.359v3.674h-9.721l-.58 6.363c.41-.07.911-.152 1.503-.246.592-.094 1.315-.141 2.171-.141zm11.9 5.098c0-10.055 4.096-15.082 12.287-15.082 1.289 0 2.379.1 3.27.299v3.445c-.891-.258-1.922-.387-3.094-.387-2.754 0-4.822.738-6.205 2.215-1.383 1.477-2.133 3.844-2.25 7.102h.211c.551-.949 1.324-1.685 2.32-2.206.996-.521 2.168-.782 3.516-.782 2.332 0 4.148.715 5.449 2.145 1.301 1.43 1.951 3.369 1.951 5.818 0 2.695-.753 4.825-2.259 6.39-1.506 1.564-3.56 2.347-6.161 2.347-1.84 0-3.439-.442-4.799-1.327-1.359-.885-2.405-2.174-3.138-3.867-.732-1.693-1.099-3.729-1.099-6.108zm8.965 7.893c1.418 0 2.511-.457 3.278-1.371.768-.914 1.151-2.221 1.151-3.92 0-1.477-.36-2.637-1.081-3.48-.721-.844-1.802-1.266-3.243-1.266-.891 0-1.711.19-2.461.571-.75.381-1.342.902-1.775 1.564-.434.662-.65 1.339-.65 2.03 0 1.652.448 3.044 1.345 4.175.896 1.131 2.042 1.696 3.437 1.696zm14.432 3.059l10.16-22.025h-13.359v-3.639h17.771v2.883l-10.107 22.781h-4.465zm26.314-26.033c2.438 0 4.365.56 5.783 1.679 1.418 1.119 2.127 2.616 2.127 4.491 0 2.637-1.582 4.734-4.746 6.293 2.016 1.008 3.448 2.068 4.298 3.182.85 1.113 1.274 2.355 1.274 3.727 0 2.121-.779 3.82-2.338 5.098-1.559 1.277-3.668 1.916-6.328 1.916-2.789 0-4.951-.598-6.486-1.793-1.535-1.195-2.303-2.889-2.303-5.08 0-1.43.401-2.716 1.204-3.858.803-1.143 2.118-2.159 3.946-3.05-1.57-.938-2.689-1.928-3.357-2.971-.668-1.043-1.002-2.215-1.002-3.516 0-1.863.732-3.349 2.197-4.456 1.465-1.107 3.375-1.661 5.73-1.661zm-4.764 19.371c0 1.219.428 2.165 1.283 2.839.855.674 2.016 1.011 3.48 1.011 1.512 0 2.687-.349 3.524-1.046.838-.697 1.257-1.644 1.257-2.839 0-.949-.387-1.816-1.16-2.602-.773-.785-1.945-1.512-3.516-2.18l-.51-.229c-1.547.68-2.66 1.427-3.34 2.241-.68.814-1.02 1.749-1.02 2.804zm4.729-16.189c-1.172 0-2.115.29-2.83.87-.715.58-1.072 1.368-1.072 2.364 0 .609.129 1.154.387 1.635.258.48.633.917 1.125 1.31s1.324.864 2.496 1.415c1.406-.621 2.399-1.274 2.979-1.96.58-.686.87-1.485.87-2.399 0-.996-.36-1.784-1.081-2.364-.721-.58-1.679-.87-2.874-.87zm29.285 8.121c0 5.063-1.02 8.842-3.059 11.338-2.039 2.496-5.109 3.744-9.211 3.744-1.559 0-2.678-.094-3.357-.281v-3.463c1.043.293 2.092.439 3.146.439 2.789 0 4.869-.75 6.24-2.25 1.371-1.5 2.121-3.855 2.25-7.066h-.211c-.691 1.055-1.526 1.816-2.505 2.285-.979.469-2.124.703-3.437.703-2.273 0-4.061-.709-5.361-2.127-1.301-1.418-1.951-3.363-1.951-5.836 0-2.684.753-4.819 2.259-6.407 1.506-1.588 3.56-2.382 6.161-2.382 1.828 0 3.422.445 4.781 1.336 1.359.891 2.408 2.183 3.146 3.876s1.107 3.724 1.107 6.091zm-8.965-7.875c-1.43 0-2.525.466-3.287 1.397-.762.932-1.143 2.241-1.143 3.929 0 1.465.354 2.616 1.063 3.454.709.838 1.784 1.257 3.226 1.257 1.395 0 2.566-.416 3.516-1.248.949-.832 1.424-1.805 1.424-2.918 0-1.043-.202-2.019-.606-2.927-.404-.908-.97-1.626-1.696-2.153-.727-.527-1.559-.791-2.496-.791zm12.885 20.408c0-.855.223-1.512.668-1.969.445-.457 1.09-.686 1.934-.686.855 0 1.506.237 1.951.712.445.475.668 1.122.668 1.942 0 .832-.226 1.491-.677 1.978-.451.486-1.099.729-1.942.729-.844 0-1.488-.24-1.934-.721-.445-.48-.668-1.143-.668-1.986zm14.801-1.582c-.563 2.18-1.594 4.986-3.094 8.42h-3.041c.809-3.164 1.412-6.105 1.811-8.824h4.061l.264.404zm9.352-.404l.264.404c-.563 2.18-1.594 4.986-3.094 8.42h-3.041c.809-3.164 1.412-6.105 1.811-8.824h4.061zm-4.676-13.025c0-1.77.867-2.654 2.602-2.654.879 0 1.535.234 1.969.703.434.469.65 1.119.65 1.951 0 .832-.226 1.491-.677 1.978-.451.486-1.099.729-1.942.729-.844 0-1.488-.24-1.934-.721-.445-.48-.668-1.143-.668-1.986zm12.674 9.404v-1.125c0-1.289.234-2.361.703-3.217.469-.855 1.289-1.74 2.461-2.654 1.395-1.102 2.294-1.957 2.698-2.566.404-.609.606-1.336.606-2.18 0-.984-.328-1.74-.984-2.268-.656-.527-1.6-.791-2.83-.791-1.113 0-2.145.158-3.094.475-.949.316-1.875.697-2.777 1.143l-1.477-3.094c2.379-1.324 4.928-1.986 7.646-1.986 2.297 0 4.119.562 5.467 1.688 1.348 1.125 2.021 2.678 2.021 4.658 0 .879-.129 1.661-.387 2.347-.258.686-.647 1.339-1.169 1.96-.521.621-1.421 1.43-2.698 2.426-1.09.855-1.819 1.564-2.188 2.127-.369.563-.554 1.318-.554 2.268v.791h-3.445zm-.721 5.607c0-1.77.861-2.654 2.584-2.654.844 0 1.488.231 1.934.694.445.463.668 1.116.668 1.96 0 .832-.226 1.491-.677 1.978-.451.486-1.093.729-1.925.729-.832 0-1.471-.237-1.916-.712-.445-.475-.668-1.14-.668-1.995zm18.58-5.607h-3.059l-.914-17.895h4.869l-.896 17.895zm-4.184 5.607c0-.867.229-1.526.686-1.978.457-.451 1.107-.677 1.951-.677.832 0 1.471.234 1.916.703.445.469.668 1.119.668 1.951 0 .832-.226 1.491-.677 1.978-.451.486-1.087.729-1.907.729-.832 0-1.479-.234-1.942-.703-.463-.469-.694-1.137-.694-2.004zm15.521-17.965c0 .738.196 1.436.589 2.092.393.656.94 1.354 1.644 2.092 1.324-.75 2.253-1.45 2.786-2.101.533-.65.8-1.38.8-2.188 0-.762-.255-1.371-.765-1.828-.51-.457-1.187-.686-2.03-.686-.926 0-1.661.237-2.206.712-.545.475-.817 1.11-.817 1.907zm2.619 16.963c2.145 0 3.979-.627 5.502-1.881l-6.732-6.627c-1.242.797-2.098 1.544-2.566 2.241-.469.697-.703 1.491-.703 2.382 0 1.148.407 2.083 1.222 2.804.814.721 1.907 1.081 3.278 1.081zm-8.859-3.604c0-1.535.375-2.874 1.125-4.017.75-1.143 2.104-2.276 4.061-3.401-1.113-1.301-1.872-2.399-2.276-3.296-.404-.896-.606-1.825-.606-2.786 0-1.781.636-3.187 1.907-4.219 1.271-1.031 2.979-1.547 5.124-1.547 2.074 0 3.703.501 4.887 1.503 1.184 1.002 1.775 2.353 1.775 4.052 0 1.336-.396 2.549-1.187 3.639-.791 1.09-2.112 2.18-3.964 3.27l6.082 5.871c.949-1.254 1.74-3.094 2.373-5.52h4.254c-.82 3.328-2.133 6.041-3.938 8.139l5.291 5.115h-5.326l-2.619-2.549c-1.195.961-2.47 1.685-3.823 2.171-1.354.486-2.851.729-4.491.729-2.695 0-4.811-.639-6.346-1.916-1.535-1.277-2.303-3.023-2.303-5.238zm55.301-6.188c0 1.676-.264 3.208-.791 4.597-.527 1.389-1.269 2.47-2.224 3.243-.955.773-2.06 1.16-3.313 1.16-.926 0-1.729-.246-2.408-.738-.68-.492-1.137-1.16-1.371-2.004h-.211c-.574.914-1.283 1.6-2.127 2.057-.844.457-1.793.686-2.848.686-1.91 0-3.413-.615-4.509-1.846-1.096-1.23-1.644-2.895-1.644-4.992 0-2.414.727-4.374 2.18-5.88 1.453-1.506 3.404-2.259 5.854-2.259.891 0 1.878.079 2.962.237 1.084.158 2.048.378 2.892.659l-.387 8.174v.422c0 1.875.609 2.813 1.828 2.813.926 0 1.661-.598 2.206-1.793.545-1.195.817-2.719.817-4.57 0-2.004-.41-3.765-1.23-5.282-.82-1.518-1.986-2.687-3.498-3.507-1.512-.82-3.246-1.23-5.203-1.23-2.496 0-4.667.516-6.513 1.547s-3.255 2.505-4.228 4.421c-.973 1.916-1.459 4.14-1.459 6.671 0 3.398.908 6.012 2.725 7.84 1.816 1.828 4.424 2.742 7.822 2.742 2.59 0 5.291-.527 8.104-1.582v2.883c-2.461 1.008-5.139 1.512-8.033 1.512-4.336 0-7.717-1.169-10.143-3.507-2.426-2.338-3.639-5.599-3.639-9.782 0-3.059.656-5.78 1.969-8.165 1.313-2.385 3.132-4.21 5.458-5.476s4.96-1.898 7.901-1.898c2.543 0 4.808.527 6.794 1.582 1.986 1.055 3.527 2.558 4.623 4.509 1.096 1.951 1.644 4.204 1.644 6.759zm-18.07 2.232c0 2.73 1.072 4.096 3.217 4.096 2.262 0 3.498-1.717 3.709-5.15l.211-4.201c-.738-.199-1.529-.299-2.373-.299-1.5 0-2.669.498-3.507 1.494-.838.996-1.257 2.35-1.257 4.061z" opacity=".9" fill="#292929" sketch:type="MSShapeGroup"/><path d="M19.336 37l-2.566-7.137h-9.826l-2.514 7.137h-4.43l9.615-25.805h4.57l9.615 25.805h-4.465zm-3.674-10.758l-2.408-6.996c-.176-.469-.419-1.207-.729-2.215-.311-1.008-.524-1.746-.642-2.215-.316 1.441-.779 3.018-1.389 4.729l-2.32 6.697h7.488zm11.531-14.941h7.629c3.539 0 6.097.516 7.673 1.547 1.576 1.031 2.364 2.66 2.364 4.887 0 1.5-.387 2.748-1.16 3.744-.773.996-1.887 1.623-3.34 1.881v.176c1.805.34 3.132 1.011 3.981 2.013.85 1.002 1.274 2.358 1.274 4.069 0 2.309-.806 4.116-2.417 5.423-1.611 1.307-3.853 1.96-6.724 1.96h-9.281v-25.699zm4.201 10.617h4.043c1.758 0 3.041-.278 3.85-.835.809-.557 1.213-1.503 1.213-2.839 0-1.207-.437-2.08-1.31-2.619-.873-.539-2.259-.809-4.157-.809h-3.639v7.102zm0 3.41v8.139h4.465c1.758 0 3.085-.337 3.981-1.011.896-.674 1.345-1.737 1.345-3.19 0-1.336-.457-2.326-1.371-2.971-.914-.645-2.303-.967-4.166-.967h-4.254zm30.498-10.793c-2.414 0-4.312.855-5.695 2.566-1.383 1.711-2.074 4.072-2.074 7.084 0 3.152.665 5.537 1.995 7.154s3.255 2.426 5.774 2.426c1.09 0 2.145-.108 3.164-.325 1.02-.217 2.08-.495 3.182-.835v3.604c-2.016.762-4.301 1.143-6.855 1.143-3.762 0-6.65-1.14-8.666-3.419s-3.023-5.54-3.023-9.782c0-2.672.489-5.01 1.468-7.014.979-2.004 2.394-3.539 4.245-4.605 1.852-1.066 4.025-1.6 6.521-1.6 2.625 0 5.051.551 7.277 1.652l-1.512 3.498c-.867-.41-1.784-.771-2.751-1.081-.967-.311-1.983-.466-3.05-.466zm32.783 9.369c0 4.242-1.178 7.485-3.533 9.729-2.355 2.244-5.748 3.366-10.178 3.366h-7.189v-25.699h7.945c4.09 0 7.271 1.102 9.545 3.305 2.273 2.203 3.41 5.303 3.41 9.299zm-4.43.141c0-6.152-2.877-9.229-8.631-9.229h-3.639v18.65h2.988c6.188 0 9.281-3.141 9.281-9.422zm24.486 12.955h-14.537v-25.699h14.537v3.551h-10.336v6.996h9.686v3.516h-9.686v8.068h10.336v3.568zm9.721 0h-4.166v-25.699h14.502v3.551h-10.336v8.033h9.686v3.568h-9.686v10.547zm25.506-13.939h9.457v12.902c-1.547.504-3.032.861-4.456 1.072-1.424.211-2.962.316-4.614.316-3.891 0-6.891-1.151-9-3.454s-3.164-5.552-3.164-9.747c0-4.137 1.189-7.374 3.568-9.712s5.654-3.507 9.826-3.507c2.684 0 5.227.516 7.629 1.547l-1.477 3.498c-2.086-.961-4.172-1.441-6.258-1.441-2.742 0-4.91.861-6.504 2.584-1.594 1.723-2.391 4.078-2.391 7.066 0 3.141.718 5.528 2.153 7.163 1.436 1.635 3.501 2.452 6.196 2.452 1.359 0 2.812-.17 4.359-.51v-6.627h-5.326v-3.604zm35.895 13.939h-4.219v-11.584h-11.848v11.584h-4.201v-25.699h4.201v10.512h11.848v-10.512h4.219v25.699zm6.768 0v-25.699h4.201v25.699h-4.201zm7.734 7.172c-1.148 0-2.109-.146-2.883-.439v-3.533c.984.246 1.84.369 2.566.369 2.297 0 3.445-1.453 3.445-4.359v-24.908h4.219v24.768c0 2.625-.624 4.632-1.872 6.021-1.248 1.389-3.073 2.083-5.476 2.083zm33.627-7.172h-4.869l-8.068-11.637-2.479 2.021v9.615h-4.201v-25.699h4.201v12.27c1.148-1.406 2.291-2.76 3.428-4.061l6.943-8.209h4.781c-4.488 5.273-7.705 9.029-9.65 11.268l9.914 14.432zm3.393 0v-25.699h4.201v22.096h10.881v3.604h-15.082zm30.621 0l-7.453-21.463h-.141c.199 3.188.299 6.176.299 8.965v12.498h-3.814v-25.699h5.924l7.137 20.443h.105l7.348-20.443h5.941v25.699h-4.043v-12.709c0-1.277.032-2.941.097-4.992.064-2.051.12-3.293.167-3.727h-.141l-7.717 21.428h-3.709zm43.523 0h-5.15l-12.639-20.479h-.141l.088 1.143c.164 2.18.246 4.172.246 5.977v13.359h-3.814v-25.699h5.098l12.604 20.373h.105c-.023-.27-.07-1.251-.141-2.944-.07-1.693-.105-3.015-.105-3.964v-13.465h3.85v25.699zm29.602-12.885c0 4.184-1.046 7.436-3.138 9.756-2.092 2.32-5.054 3.48-8.886 3.48-3.879 0-6.858-1.151-8.938-3.454-2.08-2.303-3.12-5.575-3.12-9.817s1.046-7.5 3.138-9.773c2.092-2.273 5.077-3.41 8.956-3.41 3.82 0 6.773 1.154 8.859 3.463 2.086 2.309 3.129 5.561 3.129 9.756zm-19.617 0c0 3.164.639 5.563 1.916 7.198 1.277 1.635 3.17 2.452 5.678 2.452 2.496 0 4.38-.809 5.651-2.426s1.907-4.025 1.907-7.225c0-3.152-.63-5.543-1.89-7.172-1.26-1.629-3.138-2.443-5.634-2.443-2.52 0-4.421.814-5.704 2.443-1.283 1.629-1.925 4.02-1.925 7.172zm42.152-5.045c0 2.684-.879 4.74-2.637 6.17-1.758 1.43-4.26 2.145-7.506 2.145h-2.672v9.615h-4.201v-25.699h7.4c3.211 0 5.616.656 7.216 1.969 1.6 1.313 2.399 3.246 2.399 5.801zm-12.814 4.781h2.232c2.156 0 3.738-.375 4.746-1.125 1.008-.75 1.512-1.922 1.512-3.516 0-1.477-.451-2.578-1.354-3.305-.902-.727-2.309-1.09-4.219-1.09h-2.918v9.035zm40.764.264c0 3.117-.595 5.742-1.784 7.875s-2.921 3.633-5.194 4.5l6.152 6.627h-5.66l-4.852-5.766h-.686c-3.879 0-6.858-1.151-8.938-3.454-2.08-2.303-3.12-5.575-3.12-9.817s1.046-7.5 3.138-9.773c2.092-2.273 5.077-3.41 8.956-3.41 3.82 0 6.773 1.154 8.859 3.463 2.086 2.309 3.129 5.561 3.129 9.756zm-19.617 0c0 3.164.639 5.563 1.916 7.198 1.277 1.635 3.17 2.452 5.678 2.452 2.496 0 4.38-.809 5.651-2.426s1.907-4.025 1.907-7.225c0-3.152-.63-5.543-1.89-7.172-1.26-1.629-3.138-2.443-5.634-2.443-2.52 0-4.421.814-5.704 2.443-1.283 1.629-1.925 4.02-1.925 7.172zm29.338-.861h2.918c1.957 0 3.375-.363 4.254-1.09.879-.727 1.318-1.805 1.318-3.234 0-1.453-.475-2.496-1.424-3.129s-2.379-.949-4.289-.949h-2.777v8.402zm0 3.48v10.266h-4.201v-25.699h7.26c3.316 0 5.771.621 7.365 1.863 1.594 1.242 2.391 3.117 2.391 5.625 0 3.199-1.664 5.479-4.992 6.838l7.26 11.373h-4.781l-6.152-10.266h-4.148zm33.627 3.287c0 2.285-.826 4.078-2.479 5.379-1.652 1.301-3.932 1.951-6.838 1.951s-5.285-.451-7.137-1.354v-3.973c1.172.551 2.417.984 3.735 1.301 1.318.316 2.546.475 3.683.475 1.664 0 2.892-.316 3.683-.949.791-.633 1.187-1.482 1.187-2.549 0-.961-.363-1.775-1.09-2.443-.727-.668-2.227-1.459-4.5-2.373-2.344-.949-3.996-2.033-4.957-3.252-.961-1.219-1.441-2.684-1.441-4.395 0-2.145.762-3.832 2.285-5.063 1.523-1.23 3.568-1.846 6.135-1.846 2.461 0 4.91.539 7.348 1.617l-1.336 3.428c-2.285-.961-4.324-1.441-6.117-1.441-1.359 0-2.391.296-3.094.888-.703.592-1.055 1.374-1.055 2.347 0 .668.141 1.239.422 1.714.281.475.744.923 1.389 1.345.645.422 1.805.979 3.48 1.67 1.887.785 3.27 1.518 4.148 2.197.879.68 1.523 1.447 1.934 2.303.41.855.615 1.863.615 3.023zm13.852 6.979h-4.201v-22.096h-7.559v-3.604h19.318v3.604h-7.559v22.096zm31.641-25.699v16.629c0 1.898-.407 3.56-1.222 4.983-.814 1.424-1.992 2.52-3.533 3.287-1.541.768-3.384 1.151-5.528 1.151-3.188 0-5.666-.844-7.436-2.531-1.77-1.688-2.654-4.008-2.654-6.961v-16.559h4.219v16.26c0 2.121.492 3.686 1.477 4.693.984 1.008 2.496 1.512 4.535 1.512 3.961 0 5.941-2.08 5.941-6.24v-16.225h4.201zm21.217 0h4.359l-9 25.699h-4.43l-8.965-25.699h4.324l5.361 15.979c.281.762.58 1.743.896 2.944.316 1.201.521 2.095.615 2.681.152-.891.387-1.922.703-3.094.316-1.172.574-2.039.773-2.602l5.361-15.908zm31.465 25.699h-4.57l-4.359-15.328c-.188-.668-.422-1.632-.703-2.892-.281-1.26-.451-2.136-.51-2.628-.117.75-.308 1.723-.571 2.918-.264 1.195-.483 2.086-.659 2.672l-4.254 15.258h-4.57l-3.322-12.867-3.375-12.832h4.289l3.674 14.977c.574 2.402.984 4.523 1.23 6.363.129-.996.322-2.109.58-3.34.258-1.23.492-2.227.703-2.988l4.184-15.012h4.166l4.289 15.082c.41 1.395.844 3.48 1.301 6.258.176-1.676.598-3.809 1.266-6.398l3.656-14.941h4.254l-6.697 25.699zm29.268 0h-4.834l-6.434-10.512-6.486 10.512h-4.5l8.525-13.324-7.98-12.375h4.676l5.941 9.721 5.941-9.721h4.535l-8.033 12.445 8.648 13.254zm10.723-13.975l6.082-11.725h4.57l-8.561 15.732v9.967h-4.219v-9.826l-8.525-15.873h4.57l6.082 11.725zm30.199 13.975h-18.387v-2.918l12.955-19.178h-12.604v-3.604h17.684v2.953l-13.008 19.143h13.359v3.604z" opacity=".9" fill="#292929" sketch:type="MSShapeGroup"/><path d="M15.117 87l-.826-2.707h-.141c-.938 1.184-1.881 1.989-2.83 2.417-.949.428-2.168.642-3.656.642-1.91 0-3.401-.516-4.474-1.547-1.072-1.031-1.608-2.49-1.608-4.377 0-2.004.744-3.516 2.232-4.535 1.488-1.02 3.756-1.576 6.803-1.67l3.357-.105v-1.037c0-1.242-.29-2.171-.87-2.786-.58-.615-1.479-.923-2.698-.923-.996 0-1.951.146-2.865.439-.914.293-1.793.639-2.637 1.037l-1.336-2.953c1.055-.551 2.209-.97 3.463-1.257 1.254-.287 2.437-.431 3.551-.431 2.473 0 4.339.539 5.599 1.617 1.26 1.078 1.89 2.771 1.89 5.08v13.096h-2.953zm-6.152-2.813c1.5 0 2.704-.419 3.612-1.257.908-.838 1.362-2.013 1.362-3.524v-1.688l-2.496.105c-1.945.07-3.36.396-4.245.976-.885.58-1.327 1.468-1.327 2.663 0 .867.258 1.538.773 2.013.516.475 1.289.712 2.32.712zm24.803-16.98c2.426 0 4.315.879 5.669 2.637 1.354 1.758 2.03 4.225 2.03 7.4 0 3.188-.686 5.669-2.057 7.444-1.371 1.775-3.275 2.663-5.713 2.663-2.461 0-4.371-.885-5.73-2.654h-.281l-.756 2.303h-3.094v-27.352h4.131v6.504c0 .48-.023 1.195-.07 2.145-.047.949-.082 1.553-.105 1.811h.176c1.313-1.934 3.246-2.9 5.801-2.9zm-1.072 3.375c-1.664 0-2.862.489-3.595 1.468-.732.979-1.11 2.616-1.134 4.913v.281c0 2.367.375 4.081 1.125 5.142s1.975 1.591 3.674 1.591c1.465 0 2.575-.58 3.331-1.74.756-1.16 1.134-2.836 1.134-5.027 0-4.418-1.512-6.627-4.535-6.627zm21.41 16.77c-2.941 0-5.177-.858-6.706-2.575-1.529-1.717-2.294-4.181-2.294-7.392 0-3.27.8-5.783 2.399-7.541 1.6-1.758 3.911-2.637 6.935-2.637 2.051 0 3.896.381 5.537 1.143l-1.248 3.322c-1.746-.68-3.187-1.02-4.324-1.02-3.363 0-5.045 2.232-5.045 6.697 0 2.18.419 3.817 1.257 4.913.838 1.096 2.065 1.644 3.683 1.644 1.84 0 3.58-.457 5.221-1.371v3.604c-.738.434-1.526.744-2.364.932-.838.188-1.854.281-3.05.281zm16.541 0c-2.426 0-4.318-.879-5.678-2.637-1.359-1.758-2.039-4.225-2.039-7.4 0-3.188.688-5.669 2.065-7.444 1.377-1.775 3.284-2.663 5.722-2.663 2.555 0 4.5.943 5.836 2.83h.211c-.199-1.395-.299-2.496-.299-3.305v-7.084h4.148v27.352h-3.234l-.721-2.549h-.193c-1.324 1.934-3.264 2.9-5.818 2.9zm1.107-3.34c1.699 0 2.936-.478 3.709-1.433.773-.955 1.172-2.505 1.195-4.649v-.58c0-2.449-.398-4.189-1.195-5.221-.797-1.031-2.045-1.547-3.744-1.547-1.453 0-2.572.589-3.357 1.767-.785 1.178-1.178 2.856-1.178 5.036 0 2.156.381 3.8 1.143 4.931.762 1.131 1.904 1.696 3.428 1.696zm23.256 3.34c-3.023 0-5.388-.882-7.093-2.646-1.705-1.764-2.558-4.192-2.558-7.286 0-3.176.791-5.672 2.373-7.488 1.582-1.816 3.756-2.725 6.521-2.725 2.566 0 4.594.779 6.082 2.338 1.488 1.559 2.232 3.703 2.232 6.434v2.232h-12.955c.059 1.887.568 3.337 1.529 4.351.961 1.014 2.314 1.521 4.061 1.521 1.148 0 2.218-.108 3.208-.325.99-.217 2.054-.577 3.19-1.081v3.357c-1.008.48-2.027.82-3.059 1.02-1.031.199-2.209.299-3.533.299zm-.756-17.016c-1.313 0-2.364.416-3.155 1.248-.791.832-1.263 2.045-1.415 3.639h8.824c-.023-1.605-.41-2.821-1.16-3.647-.75-.826-1.781-1.239-3.094-1.239zm22.764.352h-4.746v16.313h-4.148v-16.313h-3.199v-1.934l3.199-1.266v-1.266c0-2.297.539-3.999 1.617-5.106 1.078-1.107 2.725-1.661 4.939-1.661 1.453 0 2.883.24 4.289.721l-1.09 3.129c-1.02-.328-1.992-.492-2.918-.492-.938 0-1.62.29-2.048.87-.428.58-.642 1.45-.642 2.61v1.266h4.746v3.129zm19.723-3.129v2.268l-3.322.615c.305.41.557.914.756 1.512.199.598.299 1.23.299 1.898 0 2.004-.691 3.58-2.074 4.729-1.383 1.148-3.287 1.723-5.713 1.723-.621 0-1.184-.047-1.688-.141-.891.551-1.336 1.195-1.336 1.934 0 .445.208.779.624 1.002.416.223 1.181.334 2.294.334h3.393c2.145 0 3.773.457 4.887 1.371 1.113.914 1.67 2.232 1.67 3.955 0 2.203-.908 3.902-2.725 5.098-1.816 1.195-4.441 1.793-7.875 1.793-2.648 0-4.67-.469-6.064-1.406-1.395-.938-2.092-2.273-2.092-4.008 0-1.195.378-2.2 1.134-3.015.756-.814 1.813-1.38 3.173-1.696-.551-.234-1.005-.612-1.362-1.134-.357-.521-.536-1.069-.536-1.644 0-.727.205-1.342.615-1.846.41-.504 1.02-1.002 1.828-1.494-1.008-.434-1.825-1.14-2.452-2.118-.627-.979-.94-2.124-.94-3.437 0-2.109.665-3.744 1.995-4.904 1.33-1.16 3.226-1.74 5.687-1.74.551 0 1.128.038 1.731.114.604.076 1.058.155 1.362.237h6.732zm-15.275 22.465c0 .891.401 1.576 1.204 2.057.803.48 1.931.721 3.384.721 2.25 0 3.926-.322 5.027-.967 1.102-.645 1.652-1.5 1.652-2.566 0-.844-.302-1.444-.905-1.802-.604-.357-1.726-.536-3.366-.536h-3.129c-1.184 0-2.124.278-2.821.835-.697.557-1.046 1.31-1.046 2.259zm1.775-16.172c0 1.219.313 2.156.94 2.813.627.656 1.526.984 2.698.984 2.391 0 3.586-1.277 3.586-3.832 0-1.266-.296-2.241-.888-2.927-.592-.686-1.491-1.028-2.698-1.028-1.195 0-2.101.34-2.716 1.02-.615.68-.923 1.67-.923 2.971zm34.207 13.148h-4.148v-11.953c0-1.5-.302-2.619-.905-3.357-.604-.738-1.562-1.107-2.874-1.107-1.734 0-3.009.519-3.823 1.556-.814 1.037-1.222 2.774-1.222 5.212v9.65h-4.131v-27.352h4.131v6.943c0 1.113-.07 2.303-.211 3.568h.264c.563-.938 1.345-1.664 2.347-2.18 1.002-.516 2.171-.773 3.507-.773 4.711 0 7.066 2.373 7.066 7.119v12.674zm9.879 0h-4.131v-19.441h4.131v19.441zm-4.377-24.592c0-.738.202-1.307.606-1.705.404-.398.981-.598 1.731-.598.727 0 1.292.199 1.696.598.404.398.606.967.606 1.705 0 .703-.202 1.257-.606 1.661-.404.404-.97.606-1.696.606-.75 0-1.327-.202-1.731-.606-.404-.404-.606-.958-.606-1.661zm8.297 33.24c-1.242 0-2.273-.146-3.094-.439v-3.27c.797.211 1.611.316 2.443.316 1.758 0 2.637-.996 2.637-2.988v-21.709h4.131v21.99c0 2.004-.524 3.521-1.573 4.553-1.049 1.031-2.563 1.547-4.544 1.547zm1.74-33.24c0-.738.202-1.307.606-1.705.404-.398.981-.598 1.731-.598.727 0 1.292.199 1.696.598.404.398.606.967.606 1.705 0 .703-.202 1.257-.606 1.661-.404.404-.97.606-1.696.606-.75 0-1.327-.202-1.731-.606-.404-.404-.606-.958-.606-1.661zm14.273 14.326l2.338-2.918 5.871-6.258h4.764l-7.822 8.35 8.314 11.092h-4.852l-6.24-8.525-2.268 1.863v6.662h-4.096v-27.352h4.096v13.342l-.211 3.744h.105zm20.725 10.266h-4.131v-27.352h4.131v27.352zm22.289 0h-4.148v-11.988c0-1.488-.281-2.599-.844-3.331-.563-.732-1.441-1.099-2.637-1.099-1.594 0-2.763.519-3.507 1.556-.744 1.037-1.116 2.763-1.116 5.177v9.686h-4.131v-19.441h3.234l.58 2.549h.211c.539-.926 1.321-1.641 2.347-2.145 1.025-.504 2.153-.756 3.384-.756 2.988 0 4.969 1.02 5.941 3.059h.281c.574-.961 1.383-1.711 2.426-2.25 1.043-.539 2.238-.809 3.586-.809 2.32 0 4.011.586 5.071 1.758 1.061 1.172 1.591 2.959 1.591 5.361v12.674h-4.131v-11.988c0-1.488-.284-2.599-.853-3.331-.568-.732-1.45-1.099-2.646-1.099-1.605 0-2.78.501-3.524 1.503-.744 1.002-1.116 2.54-1.116 4.614v10.301zm35.139 0h-4.148v-11.953c0-1.5-.302-2.619-.905-3.357-.604-.738-1.562-1.107-2.874-1.107-1.746 0-3.023.516-3.832 1.547-.809 1.031-1.213 2.76-1.213 5.186v9.686h-4.131v-19.441h3.234l.58 2.549h.211c.586-.926 1.418-1.641 2.496-2.145s2.273-.756 3.586-.756c4.664 0 6.996 2.373 6.996 7.119v12.674zm22.992-9.756c0 3.176-.814 5.654-2.443 7.436-1.629 1.781-3.896 2.672-6.803 2.672-1.816 0-3.422-.41-4.816-1.23-1.395-.82-2.467-1.998-3.217-3.533s-1.125-3.316-1.125-5.344c0-3.152.809-5.613 2.426-7.383 1.617-1.77 3.896-2.654 6.838-2.654 2.813 0 5.039.905 6.68 2.716 1.641 1.811 2.461 4.251 2.461 7.321zm-14.15 0c0 4.488 1.658 6.732 4.975 6.732 3.281 0 4.922-2.244 4.922-6.732 0-4.441-1.652-6.662-4.957-6.662-1.734 0-2.991.574-3.771 1.723-.779 1.148-1.169 2.795-1.169 4.939zm28.758 10.107c-2.461 0-4.371-.885-5.73-2.654h-.246c.164 1.641.246 2.637.246 2.988v7.963h-4.131v-28.09h3.34c.094.363.287 1.23.58 2.602h.211c1.289-1.969 3.223-2.953 5.801-2.953 2.426 0 4.315.879 5.669 2.637 1.354 1.758 2.03 4.225 2.03 7.4 0 3.176-.688 5.654-2.065 7.436-1.377 1.781-3.278 2.672-5.704 2.672zm-1.002-16.77c-1.641 0-2.839.48-3.595 1.441-.756.961-1.134 2.496-1.134 4.605v.615c0 2.367.375 4.081 1.125 5.142s1.975 1.591 3.674 1.591c1.43 0 2.531-.586 3.305-1.758.773-1.172 1.16-2.842 1.16-5.01 0-2.18-.384-3.829-1.151-4.948-.768-1.119-1.896-1.679-3.384-1.679zm21.27 13.465c1.734 0 2.979-.501 3.735-1.503.756-1.002 1.134-2.517 1.134-4.544v-.65c0-2.402-.39-4.131-1.169-5.186-.779-1.055-2.036-1.582-3.771-1.582-1.477 0-2.602.586-3.375 1.758-.773 1.172-1.16 2.854-1.16 5.045 0 4.441 1.535 6.662 4.605 6.662zm-1.178 3.305c-2.402 0-4.283-.882-5.643-2.646-1.359-1.764-2.039-4.228-2.039-7.392 0-3.164.691-5.64 2.074-7.427s3.287-2.681 5.713-2.681c1.219 0 2.312.226 3.278.677.967.451 1.831 1.192 2.593 2.224h.141l.457-2.549h3.428v28.09h-4.148v-8.244c0-.516.023-1.061.07-1.635.047-.574.088-1.014.123-1.318h-.229c-1.219 1.934-3.158 2.9-5.818 2.9zm29.619-.352l-.58-2.549h-.211c-.574.902-1.392 1.611-2.452 2.127-1.061.516-2.271.773-3.63.773-2.355 0-4.113-.586-5.273-1.758-1.16-1.172-1.74-2.947-1.74-5.326v-12.709h4.166v11.988c0 1.488.305 2.604.914 3.349.609.744 1.564 1.116 2.865 1.116 1.734 0 3.009-.519 3.823-1.556.814-1.037 1.222-2.774 1.222-5.212v-9.686h4.148v19.441h-3.252zm19.002-19.793c.832 0 1.518.059 2.057.176l-.404 3.85c-.586-.141-1.195-.211-1.828-.211-1.652 0-2.991.539-4.017 1.617-1.025 1.078-1.538 2.479-1.538 4.201v10.16h-4.131v-19.441h3.234l.545 3.428h.211c.645-1.16 1.485-2.08 2.522-2.76 1.037-.68 2.153-1.02 3.349-1.02zm18.721 14.256c0 1.898-.691 3.354-2.074 4.368-1.383 1.014-3.363 1.521-5.941 1.521-2.59 0-4.67-.393-6.24-1.178v-3.568c2.285 1.055 4.412 1.582 6.381 1.582 2.543 0 3.814-.768 3.814-2.303 0-.492-.141-.902-.422-1.23-.281-.328-.744-.668-1.389-1.02s-1.541-.75-2.689-1.195c-2.238-.867-3.753-1.734-4.544-2.602-.791-.867-1.187-1.992-1.187-3.375 0-1.664.671-2.956 2.013-3.876 1.342-.92 3.167-1.38 5.476-1.38 2.285 0 4.447.463 6.486 1.389l-1.336 3.111c-2.098-.867-3.861-1.301-5.291-1.301-2.18 0-3.27.621-3.27 1.863 0 .609.284 1.125.853 1.547.568.422 1.808 1.002 3.718 1.74 1.605.621 2.771 1.189 3.498 1.705.727.516 1.266 1.11 1.617 1.784.352.674.527 1.479.527 2.417zm11.707 2.549c1.008 0 2.016-.158 3.023-.475v3.111c-.457.199-1.046.366-1.767.501-.721.135-1.468.202-2.241.202-3.914 0-5.871-2.062-5.871-6.188v-10.477h-2.654v-1.828l2.848-1.512 1.406-4.113h2.549v4.324h5.537v3.129h-5.537v10.406c0 .996.249 1.731.747 2.206.498.475 1.151.712 1.96.712zm20.619 2.988l-.58-2.549h-.211c-.574.902-1.392 1.611-2.452 2.127-1.061.516-2.271.773-3.63.773-2.355 0-4.113-.586-5.273-1.758-1.16-1.172-1.74-2.947-1.74-5.326v-12.709h4.166v11.988c0 1.488.305 2.604.914 3.349.609.744 1.564 1.116 2.865 1.116 1.734 0 3.009-.519 3.823-1.556.814-1.037 1.222-2.774 1.222-5.212v-9.686h4.148v19.441h-3.252zm13.57 0l-7.383-19.441h4.359l3.955 11.303c.68 1.898 1.09 3.434 1.23 4.605h.141c.105-.844.516-2.379 1.23-4.605l3.955-11.303h4.395l-7.418 19.441h-4.465zm30.779 0l-2.514-9.07c-.305-.961-.855-3.193-1.652-6.697h-.158c-.68 3.164-1.219 5.408-1.617 6.732l-2.584 9.035h-4.57l-5.449-19.441h4.219l2.479 9.58c.563 2.367.961 4.395 1.195 6.082h.105c.117-.855.296-1.837.536-2.944.24-1.107.448-1.937.624-2.487l2.953-10.23h4.535l2.865 10.23c.176.574.396 1.453.659 2.637.264 1.184.419 2.104.466 2.76h.141c.176-1.441.586-3.457 1.23-6.047l2.514-9.58h4.148l-5.484 19.441h-4.641zm17.789-9.932l-6.521-9.51h4.711l4.43 6.803 4.465-6.803h4.676l-6.539 9.51 6.873 9.932h-4.676l-4.799-7.277-4.781 7.277h-4.676l6.838-9.932zm12.551-9.51h4.5l3.955 11.021c.598 1.57.996 3.047 1.195 4.43h.141c.105-.645.299-1.427.58-2.347.281-.92 1.77-5.288 4.465-13.104h4.465l-8.314 22.025c-1.512 4.043-4.031 6.064-7.559 6.064-.914 0-1.805-.1-2.672-.299v-3.27c.621.141 1.33.211 2.127.211 1.992 0 3.393-1.154 4.201-3.463l.721-1.828-7.805-19.441zm35.244 19.441h-14.748v-2.549l9.826-13.729h-9.229v-3.164h13.869v2.883l-9.615 13.395h9.896v3.164z" opacity=".9" fill="#292929" sketch:type="MSShapeGroup"/><path d="M14.756 186.842c0 2.363-.586 4.18-1.758 5.449-1.172 1.27-2.852 1.904-5.039 1.904-2.188 0-3.867-.635-5.039-1.904-1.172-1.27-1.758-3.092-1.758-5.469 0-2.376.588-4.191 1.763-5.444 1.175-1.253 2.86-1.88 5.054-1.88 2.194 0 3.872.632 5.034 1.895s1.743 3.079 1.743 5.449zm-10.42 0c0 1.595.303 2.796.908 3.604.605.807 1.51 1.211 2.715 1.211 2.415 0 3.623-1.605 3.623-4.814 0-3.216-1.201-4.824-3.604-4.824-1.204 0-2.113.405-2.725 1.216-.612.811-.918 2.013-.918 3.608zm19.141 7.354c-1.283 0-2.288-.465-3.018-1.396h-.156c.104.911.156 1.439.156 1.582v4.424h-2.979v-15.723h2.422l.42 1.416h.137c.697-1.081 1.729-1.621 3.096-1.621 1.289 0 2.298.498 3.027 1.494.729.996 1.094 2.38 1.094 4.15 0 1.165-.171 2.178-.513 3.037-.342.859-.828 1.514-1.46 1.963-.632.449-1.374.674-2.227.674zm-.879-8.936c-.736 0-1.273.226-1.611.679-.339.452-.514 1.2-.527 2.241v.322c0 1.172.174 2.012.522 2.52.348.508.9.762 1.655.762 1.335 0 2.002-1.1 2.002-3.301 0-1.074-.164-1.88-.493-2.417-.329-.537-.845-.806-1.548-.806zm12.061-.264c-.632 0-1.126.2-1.484.601-.358.4-.563.968-.615 1.704h4.18c-.013-.736-.205-1.304-.576-1.704-.371-.4-.872-.601-1.504-.601zm.42 9.199c-1.758 0-3.132-.485-4.121-1.455-.99-.97-1.484-2.344-1.484-4.121 0-1.829.457-3.244 1.372-4.243.915-.999 2.179-1.499 3.794-1.499 1.543 0 2.744.439 3.604 1.318.859.879 1.289 2.093 1.289 3.643v1.445h-7.041c.033.846.283 1.507.752 1.982.469.475 1.126.713 1.973.713.658 0 1.279-.068 1.865-.205.586-.137 1.198-.355 1.836-.654v2.305c-.521.26-1.077.454-1.67.581-.592.127-1.315.19-2.168.19zm16.953-.195h-2.979v-6.377c0-.788-.14-1.379-.42-1.772-.28-.394-.726-.591-1.338-.591-.833 0-1.436.278-1.807.835-.371.557-.557 1.479-.557 2.769v5.137h-2.979v-10.918h2.275l.4 1.396h.166c.332-.527.789-.926 1.372-1.196.583-.27 1.245-.405 1.987-.405 1.27 0 2.233.343 2.891 1.03.658.687.986 1.678.986 2.974v7.119zm11.729-3.965c0 1.289-.464 2.305-1.392 3.047-.928.742-2.218 1.113-3.872 1.113-1.523 0-2.871-.286-4.043-.859v-2.813c.964.43 1.779.732 2.446.908.667.176 1.278.264 1.831.264.664 0 1.174-.127 1.528-.381.355-.254.532-.632.532-1.133 0-.28-.078-.529-.234-.747-.156-.218-.386-.428-.688-.63-.303-.202-.92-.524-1.851-.967-.872-.41-1.527-.804-1.963-1.182-.436-.378-.785-.817-1.045-1.318-.26-.501-.391-1.087-.391-1.758 0-1.263.428-2.256 1.284-2.979.856-.723 2.039-1.084 3.55-1.084.742 0 1.45.088 2.124.264.674.176 1.379.423 2.114.742l-.977 2.354c-.762-.313-1.392-.531-1.89-.654-.498-.124-.988-.186-1.47-.186-.573 0-1.012.133-1.318.4-.306.267-.459.615-.459 1.045 0 .267.062.5.186.698.124.199.321.391.591.576.27.186.91.519 1.919 1.001 1.335.638 2.249 1.278 2.744 1.919.495.641.742 1.427.742 2.358zm9.287 3.965l-.576-1.484h-.078c-.501.632-1.017 1.069-1.548 1.313-.531.244-1.222.366-2.075.366-1.048 0-1.873-.299-2.476-.898-.602-.599-.903-1.452-.903-2.559 0-1.159.405-2.013 1.216-2.563.811-.55 2.033-.854 3.667-.913l1.895-.059v-.479c0-1.107-.566-1.66-1.699-1.66-.872 0-1.898.264-3.076.791l-.986-2.012c1.257-.658 2.65-.986 4.18-.986 1.465 0 2.588.319 3.369.957.781.638 1.172 1.608 1.172 2.91v7.275h-2.08zm-.879-5.059l-1.152.039c-.866.026-1.51.182-1.934.469-.423.286-.635.723-.635 1.309 0 .84.482 1.26 1.445 1.26.69 0 1.242-.199 1.655-.596.413-.397.62-.924.62-1.582v-.898zm16.104 5.059h-2.979v-6.377c0-.788-.14-1.379-.42-1.772-.28-.394-.726-.591-1.338-.591-.833 0-1.436.278-1.807.835-.371.557-.557 1.479-.557 2.769v5.137h-2.979v-10.918h2.275l.4 1.396h.166c.332-.527.789-.926 1.372-1.196.583-.27 1.245-.405 1.987-.405 1.27 0 2.233.343 2.891 1.03.658.687.986 1.678.986 2.974v7.119zm10.684-3.242c0 1.12-.389 1.973-1.167 2.559-.778.586-1.942.879-3.491.879-.794 0-1.471-.054-2.031-.161-.56-.107-1.084-.265-1.572-.474v-2.461c.553.26 1.177.479 1.87.654.693.176 1.304.264 1.831.264 1.081 0 1.621-.312 1.621-.938 0-.234-.072-.425-.215-.571-.143-.146-.391-.312-.742-.498-.352-.186-.82-.402-1.406-.649-.84-.352-1.457-.677-1.851-.977-.394-.299-.68-.643-.859-1.03-.179-.387-.269-.864-.269-1.431 0-.97.376-1.72 1.128-2.251.752-.531 1.818-.796 3.198-.796 1.315 0 2.594.286 3.838.859l-.898 2.148c-.547-.234-1.058-.426-1.533-.576-.475-.15-.96-.225-1.455-.225-.879 0-1.318.238-1.318.713 0 .267.142.498.425.693.283.195.903.485 1.86.869.853.345 1.478.667 1.875.967.397.299.69.645.879 1.035.189.391.283.856.283 1.396z" fill="#229EE0" sketch:type="MSShapeGroup"/></g></svg>