<svg xmlns="http://www.w3.org/2000/svg" viewBox="0 0 360 160" enable-background="new 0 0 360 160"><path opacity=".05" d="M358.1 23.8v-20h-1.2v20h-3.8v-3.1h-4.4v3.1h-3.7v95h-10v-5h-10v5h-2.6l-2.4-40h-5v-4.4h-2.5v-1.9h-3.8l-1.2-17.5-1.2 17.5h-3.8v1.9h-2.5v4.4h-5l-2.7 45h-2.3v-10h-4.9v-5h.9c.8 0 1.5-.7 1.5-1.5v-2c0-.8-.7-1.5-1.5-1.5h-8.5c0-5.5-4.5-10-10-10s-10 4.5-10 10h-8.4c-.8 0-1.5.7-1.5 1.5v2c0 .8.7 1.5 1.5 1.5h.9v25h-5v-5h-10v5h-1.3v-12.3h1c.8 0 1.5-.7 1.5-1.5v-2c0-.8-.7-1.5-1.5-1.5h-28.8c-.8 0-1.5.7-1.5 1.5v2c0 .8.7 1.5 1.5 1.5h1v15.3h-16.4l-10.6-31-10.6 31h-16.3v-15.3h1c.8 0 1.5-.7 1.5-1.5v-2c0-.8-.7-1.5-1.5-1.5h-28.8c-.8 0-1.5.7-1.5 1.5v2c0 .8.7 1.5 1.5 1.5h1v12.3h-1.2v-5h-10v5h-5v-25h.9c.8 0 1.5-.7 1.5-1.5v-2c0-.8-.7-1.5-1.5-1.5h-8.5c0-5.5-4.5-10-10-10s-10 4.5-10 10h-8.5c-.8 0-1.5.7-1.5 1.5v2c0 .8.7 1.5 1.5 1.5h.9v5h-4.8v10h-2.3l-2.7-45h-5v-4.4h-2.5v-1.9h-3.8l-1.2-17.5-1.2 17.5h-3.8v1.9h-2.5v4.4h-5l-2.4 40h-2.6v-5h-10v5h-10v-95h-3.8v-3.1h-4.3v3.1h-3.8v-20h-1.2v20h-1.9v138h360v-138h-1.9z"/></svg>