<?xml version="1.0" encoding="UTF-8" standalone="no"?>
<svg width="720px" height="300px" viewBox="0 0 720 300" version="1.1" xmlns="http://www.w3.org/2000/svg" xmlns:xlink="http://www.w3.org/1999/xlink" xmlns:sketch="http://www.bohemiancoding.com/sketch/ns">
    <!-- Generator: Sketch 3.2.2 (9983) - http://www.bohemiancoding.com/sketch -->
    <title>Artboard 1</title>
    <desc>Created with Sketch.</desc>
    <defs></defs>
    <g id="Page-1" stroke="none" stroke-width="1" fill="none" fill-rule="evenodd" sketch:type="MSPage">
        <g id="Artboard-1" sketch:type="MSArtboardGroup" fill="#000000" opacity="0.100000001">
            <path d="M338.823,266 L306.03,266 L306.03,235.333 L308.111,235.333 C309.768,235.333 311.111,233.99 311.111,232.333 L311.111,228.333 C311.111,226.676 309.768,225.333 308.111,225.333 L250.444,225.333 C248.787,225.333 247.444,226.676 247.444,228.333 L247.444,232.333 C247.444,233.99 248.787,235.333 250.444,235.333 L252.525,235.333 L252.525,260 L250,260 L250,250 L230,250 L230,260 L220,260 L220,210 L221.875,210 C223.532,210 224.875,208.657 224.875,207 L224.875,203 C224.875,201.343 223.532,200 221.875,200 L204.875,200 C204.875,188.954 195.921,180 184.875,180 C173.829,180 164.875,188.954 164.875,200 L147.875,200 C146.218,200 144.875,201.343 144.875,203 L144.875,207 C144.875,208.657 146.218,210 147.875,210 L149.75,210 L149.75,220 L140,220 L140,240 L135.422,240 L130,150 L120,150 L120,141.25 L115,141.25 L115,137.5 L107.5,137.5 L105,102.5 L102.5,137.5 L95,137.5 L95,141.25 L90,141.25 L90,150 L80,150 L75.181,230 L70,230 L70,220 L50,220 L50,230 L30,230 L30,40 L22.5,40 L22.5,33.75 L13.75,33.75 L13.75,40 L6.25,40 L6.25,0 L3.75,0 L3.75,40 L0,40 L0,316 L337.03,316 L337.03,301.776 L354.5,301.776 L354.5,316 L360,316 L360,203.948 L338.823,266 Z M381.177,266 L413.97,266 L413.97,235.333 L411.889,235.333 C410.232,235.333 408.889,233.99 408.889,232.333 L408.889,228.333 C408.889,226.676 410.232,225.333 411.889,225.333 L469.556,225.333 C471.213,225.333 472.556,226.676 472.556,228.333 L472.556,232.333 C472.556,233.99 471.213,235.333 469.556,235.333 L467.474,235.333 L467.474,260 L470,260 L470,250 L490,250 L490,260 L500,260 L500,210 L498.125,210 C496.468,210 495.125,208.657 495.125,207 L495.125,203 C495.125,201.343 496.468,200 498.125,200 L515.125,200 C515.125,188.954 524.079,180 535.125,180 C546.171,180 555.125,188.954 555.125,200 L572.125,200 C573.782,200 575.125,201.343 575.125,203 L575.125,207 C575.125,208.657 573.782,210 572.125,210 L570.25,210 L570.25,220 L580,220 L580,240 L584.578,240 L590,150 L600,150 L600,141.25 L605,141.25 L605,137.5 L612.5,137.5 L615,102.5 L617.5,137.5 L625,137.5 L625,141.25 L630,141.25 L630,150 L640,150 L644.819,230 L650,230 L650,220 L670,220 L670,230 L690,230 L690,40 L697.5,40 L697.5,33.75 L706.25,33.75 L706.25,40 L713.75,40 L713.75,0 L716.25,0 L716.25,40 L720,40 L720,316 L382.97,316 L382.97,301.776 L365.5,301.776 L365.5,316 L360,316 L360,203.948 L381.177,266 Z" id="Imported-Layers" sketch:type="MSShapeGroup"></path>
        </g>
    </g>
</svg>